<svg xmlns="http://www.w3.org/2000/svg" width="215.459" height="81.781" viewBox="0 0 215.459 81.781"><defs><style>.a{fill:#e8ddb8;}.b{fill:#c7be9e;}.c{fill:#131b3a;}.d{fill:#64ba4f;}.e{fill:#f02d35;}.f{fill:#56a145;}</style></defs><g transform="translate(-487 -318)"><g transform="translate(487 318)"><path class="a" d="M32.381,121.729H20.525c-1.445,0-3.388-.4-4.484.7a4.81,4.81,0,0,0,2.043.747c-2.74.847-6.327-.548-8.768,1.544.947,1.345,5.33,1,2.889,3.039-1.594,1.3-4.533-.149-5.43,2.292,2.043.7,4.832.149,7.024.249-3.637,3.437-10.561,3.188-13.7,7.323,5.33,3.288,13.7-2.092,19.429-1.395-3.587,6.626,13.5,1.544,14.547,1.245a2.156,2.156,0,0,1,.249.6c4.484.548,8.818-.2,13.251-.149-.3.548-.448,1.594-.7,2.142,2.242,1.2,5.081-.149,7.423-.05.1,2.292,4.185-1.843.2-2.541-2.192-.4-3.388-.149-4.284-2.092-1.1-2.391,1.046-2.59.548-4.484,1.245-.4,4.135-.4,4.982-1.245,2.242-2.292-1.1-2.64-2.64-2.64,1.046,0,5.38.05,4.434-2.341-.548-1.495-4.135-.3-5.231-2.341-2.939.149-3.487,3.437-3.836,5.878-.4,2.889.349,6.675-3.288,5.281-5.131-1.943-13.4-5.58-14.8-11.707" transform="translate(-0.1 -61.07)"/><path class="b" d="M106.31,136.894c-1.544.05-3.039.249-4.583.448a19.875,19.875,0,0,1-5.928-.448c-.7-.1-1,1-.3,1.1a23.918,23.918,0,0,0,4.932.648c1.943-.1,3.836-.6,5.829-.648a.549.549,0,0,0,.05-1.1" transform="translate(-47.775 -68.712)"/><path class="b" d="M35.316,145.127a24.524,24.524,0,0,1-5.081-.747,29.394,29.394,0,0,0-3.587-1c-1.445-.149-1.495.747-2.84,1.245-4.085,1.445-8.569,1.544-12.753,2.491-.947.2-.548,1.644.4,1.445,4.334-1,8.967-1.1,13.152-2.64a4.231,4.231,0,0,0,1.694-1.046,4.607,4.607,0,0,0,.249-.5c-1,.3.7.648.847.7a38.991,38.991,0,0,0,7.921,1.495c.947.1.947-1.395,0-1.445" transform="translate(-5.326 -71.964)"/><path class="b" d="M26.885,129.029a90.294,90.294,0,0,0,14.646-1.2c.947-.149.548-1.594-.4-1.445a90.6,90.6,0,0,1-14.248,1.146.748.748,0,0,0,0,1.494" transform="translate(-13.185 -63.439)"/><path class="b" d="M71.588,149.025c3.039,1.146,6.277,1.495,9.415,2.341a12.511,12.511,0,0,0-.2-1.345,4.688,4.688,0,0,0-1.1.6c-.8.5-.05,1.793.747,1.3a4.687,4.687,0,0,1,1.1-.6.737.737,0,0,0-.2-1.345c-3.138-.847-6.377-1.146-9.415-2.341-.847-.4-1.245,1.046-.349,1.395" transform="translate(-35.719 -74.069)"/><path class="b" d="M35.647,122.646a4.387,4.387,0,0,0-1.2-.548v1.445c3.686-.8,8.369-1.2,12.006.1.9.3,1.3-1.1.4-1.445-3.936-1.395-8.818-.947-12.8-.1-.8.149-.648,1.2,0,1.445l.8.4a.762.762,0,0,0,.8-1.3" transform="translate(-16.866 -60.892)"/><path class="b" d="M105.23,128.692a6.945,6.945,0,0,1-2.042-.149c.1.3.149.648.249.947.4-.5.9-.8,1.146-1.395a.589.589,0,0,0-.349-.847c-1.793-.5-3.637-.1-5.48-.1-.7,0-.747,1.146,0,1.1,1.694-.05,3.487-.4,5.181.05a6.075,6.075,0,0,0-.349-.847c-.2.5-.648.747-1,1.146a.576.576,0,0,0,.249.947,7.428,7.428,0,0,0,2.341.149.5.5,0,1,0,.05-1" transform="translate(-49.336 -63.749)"/><path class="b" d="M38.535,137.387c2.59-.05,5.231-.149,7.821-.349,1.943-.149,4.434-.847,6.377-.3v-1.1c-1.644.648-3.388.747-5.032,1.445a.579.579,0,0,0,0,1.1c1.893.7,1.843,1.544,3.936,1.445,1.993-.1,3.985-.349,6.028-.3l-.3-1.046c-1.893,1.146-4.484,1.793-6.576,2.69-.648.3-.1,1.245.548.947,2.142-.9,4.583-1.495,6.576-2.69a.56.56,0,0,0-.3-1.046c-1.893,0-3.786.149-5.679.3-1.644.149-2.491-.8-3.936-1.345v1.1c1.644-.648,3.388-.8,5.032-1.445a.571.571,0,0,0,0-1.1c-1.793-.5-3.836.05-5.679.2-2.939.249-5.878.349-8.818.448a.524.524,0,1,0,0,1.046" transform="translate(-19.107 -68.011)"/><path class="c" d="M51.606,121.363c-2.59.349-5.629.1-7.722,1.744-.2.149-.05.5.2.5,1.445.05,2.889.05,4.334.1a.3.3,0,1,0,0-.6,186.745,186.745,0,0,0-21.073,1.2c-1.943.149-3.886.349-5.779.5-1.146.1-1.793.3-2.84-.349-.3-.249-.4-.2-.249.149l.6-.6c.6-.249,0-.149.5-.3a10,10,0,0,1,2.441,0h5.629a.3.3,0,0,0,.149-.548c-.648-.448-1.345-.9-1.993-1.3-.05.2-.1.349-.149.548,2.292-.2,4.583-.4,6.875-.648,1.395-.1,2.491.448,3.886.6,1.445.149,4.135,1.146,5.33-.05.2-.2.3-.7.2-.648a5.006,5.006,0,0,1,1.495,0h3.487c-.05-.2-.1-.349-.149-.548a15.452,15.452,0,0,1-3.039,1.744,33.156,33.156,0,0,1-4.434.847c-2.989.6-6.028,1.2-9.017,1.744-.349.05-.249.548.1.6,1.345.149,2.74.3,4.085.4.448.05.9.05,1.345.1.548.05.249-.548,0-.1-.249.4-.6.448-.9,1a.294.294,0,0,0,.249.448,33.627,33.627,0,0,0,7.423.1c3.238-.5,6.526-.947,9.764-1.445.3-.05.249-.5,0-.6-.6-.2-1.245-.4-1.843-.648,0,.2.05.349.05.548.648-.4,1.245-.747,1.893-1.146a.291.291,0,1,0-.3-.5c-.648.4-1.245.747-1.893,1.146a.308.308,0,0,0,.05.548c.6.2,1.245.4,1.843.648v-.6L41.842,127.44a14.336,14.336,0,0,1-3.587.05,10.965,10.965,0,0,1-2.889-.249c-.1-.05-.149.2.3-.1a8.062,8.062,0,0,1,.9-.5c.2-.1.2-.448,0-.5-1.694-.8-4.334-.6-6.177-.8.05.2.05.4.1.6,3.138-.6,6.327-1.245,9.465-1.843a26.936,26.936,0,0,0,4.085-.8,15.7,15.7,0,0,0,3.039-1.793.3.3,0,0,0-.149-.548H41.792a.336.336,0,0,0-.3.2c-.648,1.644-2.79.7-4.284.548-1.3-.149-2.341-.7-3.587-.847-2.491-.2-5.48.5-7.971.747a.3.3,0,0,0-.149.548l1.993,1.3c.05-.2.1-.349.149-.548H21.567c-1.943,0-2.242-.2-3.637,1.2-.1.149-.1.4.05.448,1.893.847,2.74.7,4.782.5,3.587-.3,7.223-.6,10.81-.947a133.642,133.642,0,0,1,14.8-.648v-.6c-1.445-.05-2.889-.05-4.334-.1.05.149.149.349.2.5,1.843-1.445,4.932-1.245,7.323-1.544.4.2.4-.4.05-.349" transform="translate(-9.013 -60.654)"/><path class="c" d="M59.764,135.592a6.529,6.529,0,0,0-3.388-.149,12.222,12.222,0,0,1-4.384.4c-1.395-.249-3.985-1.245-5.38-.947-.947.2-1.694,1.445-2.391,2.142a.307.307,0,0,0-.05.349c.947,1.544,2.242,2.192,3.736,3.188.05-.2.1-.349.149-.548-3.039-.349-6.277-1.146-9.316-1.046a10.2,10.2,0,0,0-4.384,1.3c-1.495.747-1.544.6-3.338.249-2.292-.448-4.533-.847-6.825-1.3a13.371,13.371,0,0,0-3.138-.548,15.444,15.444,0,0,0-2.989.747c-2.142.548-4.334,1.046-6.476,1.594l-10.91,2.69a.306.306,0,0,0,.1.6c1.993-.05,4.085,0,6.078-.2a13.363,13.363,0,0,0,3.786-1.395c.3-.1.149-.548-.149-.548-.8.05-1.644.1-2.441.1.05.2.05.4.1.6,2.541-.5,5.081-1.046,7.622-1.544,2.341-.5,3.487-.7,5.38-2.142.2-.149.2-.5-.05-.548a9.512,9.512,0,0,1-2.59-.7c0,.2-.05.349-.05.548l1.594-.448a.283.283,0,0,0,.2-.349c-.448-1.146-.249-2.391-1.495-3.188-.9-.6-1.893-.149-2.889,0-3.686.6-7.373,1.2-11.01,1.793-.349.05-.249.6.1.6,6.526-.349,13.052-.747,19.578-1.1,2.989-.149,6.277-.747,9.216-.5a2.234,2.234,0,0,1,.6-.05c.8.249.448.4.149.548-1.395.548-3.338.4-4.882.6-.249.05-.4.3-.2.5,1.594,1.943,4.733,1.1,6.974,1,.9-.05,3.288-.6,4.035-.05.249.149.05.149-.2.3a7.991,7.991,0,0,1-1.544.5c-3.637,1.2-7.223,2.341-10.86,3.537-1.943.648-4.135,1.694-6.078,1.744-3.587.1-7.174-.1-10.76-.149a.3.3,0,1,0,0,.6c3.138.149,6.277.3,9.415.5a6.628,6.628,0,0,1,2.74.4c1,.548,2.042,1.843,3.188,2.092a10.083,10.083,0,0,0,2.74-.349c1.943-.249,3.886-.448,5.878-.7,1.943-.249,3.836-.448,5.779-.7a14.483,14.483,0,0,1,3.288-.4,28.112,28.112,0,0,1,3.637,1.694c1.544.747,3.089,1.445,4.583,2.192.349.149.648-.349.3-.5-1.843-.9-3.637-1.793-5.48-2.69-.4-.2-.847-.4-1.245-.6-.548-.3-.2-.2-.3.05.3-.947,1.793-.9,2.59-1.1.3-.05.3-.5,0-.6-3.836-.9-7.722-1.793-11.558-2.64l-.149.6c4.035.9,8.07,1.744,12.106,2.64a25.09,25.09,0,0,0,3.836.847,35.477,35.477,0,0,0,5.58-.648v-.6c-1.843.249-3.686.448-5.53.7-.2.05-.4.249-.249.448.3.548.3,1.345.6,1.793.349.448,1.445.747,1.993,1,.349.149.648-.349.3-.5a3.584,3.584,0,0,1-1.843-1.395c-.05-.1,0-.3-.05-.4-.1-.2-.249-.4-.349-.6-.4.2-.448.249-.149.2.5-.349,2.192-.249,2.79-.349.847-.1,1.694-.2,2.491-.3.4-.05.4-.648,0-.6a34.249,34.249,0,0,1-5.48.648,26.225,26.225,0,0,1-4.185-.9L36.6,141.072a.308.308,0,1,0-.149.6c3.836.9,7.722,1.793,11.558,2.64v-.6c-1.544.349-2.142.249-3.039,1.495a.269.269,0,0,0,.1.4c2.391,1.2,4.832,2.391,7.223,3.537.1-.149.2-.349.3-.5-1.245-.6-2.491-1.2-3.736-1.744-1.395-.648-2.989-1.793-4.484-2.142-1.943-.448-4.733.448-6.725.7-3.487.4-7.223,1.3-10.711,1.3-1.744,0-3.039-2.242-5.131-2.341-3.587-.2-7.223-.349-10.81-.548v.6c4.284.05,9.166.947,13.3-.448,5.33-1.843,10.81-3.637,16.29-5.43a.273.273,0,0,0,.2-.3c.05-.249.05-.448.1-.7a.336.336,0,0,0-.2-.3c-1.744-.548-3.786-.1-5.629,0-1.793.1-4.035.648-5.33-.9-.05.149-.149.349-.2.5,1.744-.2,3.537-.448,5.281-.648a.336.336,0,0,0,.3-.2c.05-.2.149-.448.2-.648a.274.274,0,0,0-.149-.349c-1.345-.7-2.69-.349-4.234-.249-3.388.2-6.775.4-10.163.548l-15.941.9c.05.2.05.4.1.6,3.487-.548,6.974-1.1,10.462-1.694,1.1-.149,2.341-.7,3.188-.05a2.71,2.71,0,0,1,.847,2.043c-.05.8.548-.05.05.4-.2.2-.9.249-1.2.349a.3.3,0,0,0-.05.548,8.317,8.317,0,0,0,2.69.747c0-.2-.05-.349-.05-.548a10.114,10.114,0,0,1-2.142,1.445,28.624,28.624,0,0,1-3.587.747c-2.391.5-4.782.947-7.174,1.445-.349.05-.249.6.1.6.8-.05,1.644-.1,2.441-.1-.05-.2-.1-.349-.149-.548a11.115,11.115,0,0,1-3.985,1.345c-1.843.05-3.736.149-5.58.2.05.2.05.4.1.6,2.939-.747,5.829-1.445,8.768-2.192,3.637-.9,7.423-2.192,11.109-2.74,2.242-.349,6.277,1,8.867,1.495,1,.2,2.491.8,3.487.648,1.3-.2,2.441-1.345,3.736-1.694,3.537-.9,7.722.349,11.259.747.3.05.349-.4.149-.548a26.154,26.154,0,0,1-2.441-1.644c-.8-.7-1.146-.847-.6-1.544a5.133,5.133,0,0,1,1.245-1.3c.448-.3-.249-.05.349-.1a16.578,16.578,0,0,1,3.437.6,10.81,10.81,0,0,0,3.985.3c1.993-.349,3.537-.8,5.48-.3.249.149.4-.4.05-.5" transform="translate(-0.283 -67.361)"/><path class="c" d="M27.423,132.066a22.606,22.606,0,0,0-1.793-2.491c-.249-.3-.747,0-.5.3.6.847,1.245,1.594,1.793,2.491a.291.291,0,1,0,.5-.3" transform="translate(-12.628 -64.981)"/><path class="d" d="M65.727,81.3c.5-2.84,3.437-8.867,2.79-11.458-.349-1.495,2.74-3.587,2.441-5.181a54.862,54.862,0,0,1-.5-8.07c0-1.644-3.487-.6-4.683-1.744a6.664,6.664,0,0,1-1.644-1.694,7.042,7.042,0,0,0-.947-1.694c-2.192-2.142-6.277.1-8.718-1.3-1-.548-.448-1.146-.4-2.391a11.568,11.568,0,0,0-.648-3.886c-.847-2.84-1.2-5.629-2.59-8.17,1.744-1.146,4.135-1.395,5.829-2.69,2.042-1.594,1-3.537,1.146-5.729.2-1.843,1.495-3.537.249-5.33-.9-1.245-3.537-2.192-5.032-2.142-2.441.1-3.437,2.142-5.081,3.487-.9-1.943-.05-3.487-2.092-4.932-1.146-.8-3.288-1.744-4.733-1.3-2.441.747-1.644,3.637-.747,5.231,1.3,2.292,3.736,2.69,6.177,1.943a9.047,9.047,0,0,1,0,2.84,10.474,10.474,0,0,0,.8,3.936c.847,1.843,2.341,3.238,3.138,5.131-1.1-.2-2.042-.747-3.188-.9a27.833,27.833,0,0,0-2.84-.149c-2.491,0-4.882,1.843-6.277,3.886a5.968,5.968,0,0,0-.249,6.227c.7,1.046,1.893.947,2.69,1.843.847.9.4,1.694.5,2.84.249,3.039,2.441,2.79,4.832,3.437,1.793.5,1.2,1,.149,2.341a4.038,4.038,0,0,0-.8,3.537A31.154,31.154,0,0,0,47.394,68.1c1.046,2.391,2.79,3.836,4.085,6.177a5.848,5.848,0,0,0,2.74,2.74c.4.2.5.847.9,1.146.6.4,3.388.5,3.985.9a12.11,12.11,0,0,0,3.686,1.793" transform="translate(-18.7 -8.534)"/><path class="e" d="M41.4,10.476c.7-.847,1.943-1,2.79-1.744.5-.448,1.793-2.341.349-2.292-.1-.8.5-1.843.2-2.59-.548-1.694-1.1.4-1.544,1.146a5.071,5.071,0,0,1-.9-1.146A2.819,2.819,0,0,0,41.147,5C41,4.249,40.6,3.551,39.8,4.149c-.648.5-.349,1.495-.149,2.192A27.384,27.384,0,0,0,41,10.376" transform="translate(-19.826 -1.627)"/><path class="e" d="M38.991,8.238C37.6,6.993,35.853,6.595,35.006,4.8a3.227,3.227,0,0,1-.2-2.541c.548-.947,1.395-.7,1.694.349.3-.5,1.495-4.334,2.092-1.594.3,1.345-1.594,2.391-.947,3.736a7.88,7.88,0,0,1,1.445-1.694c.4.747-.4,1.544,0,2.341.648-.9,1.146-3.138,2.292-3.388.249.648-.05,1.3.149,1.893.448-.5,1.594-2.391,2.59-1.544,1.1.9-1,1.644-1.495,1.943-1.495.9-3.039,1.893-2.79,3.786a1.241,1.241,0,0,1-.847.149" transform="translate(-17.42 -0.037)"/><path class="c" d="M66.735,80.786C65.888,74.858,70.321,69.627,70.869,64c.2-2.142.149-6.974-1.345-8.668a2.89,2.89,0,0,0-1.445-.747c-1.993-.6-2.541-1.495-3.587-3.138C63.247,49.451,61.5,49.252,59.262,49c-2.889-.249-5.629-.2-7.971,1.644-1.744,1.395-2.79,3.039-5.181,1.993a18.193,18.193,0,0,1-1.694-.9A4.32,4.32,0,0,1,42.673,49.4c-1.046-2.292-3.587-3.388-4.035-5.928A12,12,0,0,1,40.73,35.3c2.043-2.84,7.473-2.441,9.565.1,0,.1.149.1.2.1,2.192-.6,6.327-1.445,7.223-3.786.5-1.3.548-3.039.947-4.384a15.931,15.931,0,0,0,.747-3.039,4.4,4.4,0,0,0-1.943-4.185A6.464,6.464,0,0,0,48.6,21.5c-.349.4-.747,1.843-1,2.092-.1.1-.7,0-.847.05A5.713,5.713,0,0,1,40.581,21.3c-1.2-1.644-1.395-3.388.349-4.633,1.395-1,2.989-1.2,4.234,0,.847.847,1.495,2.889,2.043,4.085a3.885,3.885,0,0,1,.5,2.59c-.2.548-.747.947-.9,1.495a9.651,9.651,0,0,0,.548,5.679c.7,1.793,2.142,2.889,2.989,4.384a24.35,24.35,0,0,1,1.694,4.085,31.235,31.235,0,0,1,.847,3.736c.3,1.495,1,3.039,1,4.633,0,1.993-1.046,2.192-2.391,3.089a24.694,24.694,0,0,0-2.939,2.64c-1.544,1.594-2.64,2.939-2.79,5.181-.747,9.465,7.971,19.478,16.788,21.969a.308.308,0,0,0,.149-.6c-4.234-1.2-8.12-4.384-11.059-7.522-3.338-3.537-6.925-11.01-4.832-15.842A13.115,13.115,0,0,1,49.8,52.639,16.649,16.649,0,0,1,51.789,50.9c.5-.349,1.744-.8,1.993-1,.847-.9.747-2.64.548-3.786a57.423,57.423,0,0,0-1.644-7.024c-.3-1-1.993-3.537-1.744-4.533a.366.366,0,0,0-.1-.3c-2.341-2.142-4.782-6.476-3.288-9.764.7-1.544,1.445-1.843.548-3.487-1.495-2.889-2.441-7.223-6.576-5.43-3.188,1.395-3.089,4.135-1.046,6.576a5.745,5.745,0,0,0,3.686,2.142c1.1.149,2.292-.4,3.388-.149a.283.283,0,0,0,.349-.2c.947-2.59,3.338-4.733,6.227-4.533a5.148,5.148,0,0,1,4.334,2.84c.6,1.395.1,2.84-.249,4.185-.5,1.843-.648,5.081-2.242,6.227-.947.7-3.936,2.192-5.231,2.092-.947-.1-2.142-1.395-3.288-1.694a9.546,9.546,0,0,0-4.882.1c-2.242.648-3.238,2.541-3.985,4.633-.9,2.441-1.544,5.779.149,8.07a5.926,5.926,0,0,0,1,.947,7.593,7.593,0,0,1,2.391,3.437c.648,1.544,1.594,1.744,2.989,2.541.947.548,1.744,1.345,2.939,1,1.744-.5,2.989-2.59,4.484-3.487,2.242-1.3,7.124-1.345,9.515-.3,2.092.9,1.993,3.288,3.686,4.434.6.4,1.395.349,2.043.648,1.993.947,2.142,3.736,2.292,5.629.349,3.587-.8,6.327-1.943,9.565-1.146,3.188-2.541,7.174-2.092,10.611.2.448.747.3.7-.1" transform="translate(-18.96 -7.623)"/><path class="c" d="M37.551,7.616c2.042-.149,5.58-1.594,6.377-3.686.2-.5.349-1.3-.349-1.495-.8-.2-1.2.8-1.594,1.245.149.1.249.149.4.249.6-1.843-.847-3.338-1.893-1.146-.648,1.395-.5,5.081-2.64,4.633-1.3-.3-2.142-1.943-2.441-3.039-.1-.249-.5-1.395-.349-1.644.1-1.2.9-.448,1.245.05a4.936,4.936,0,0,0,.548.847c.149.2.548.1.448-.2l-.149-.448c-.1-1.993,1.2-2.64,1.993-1.843S38.9,2.535,38.3,3.481a6.521,6.521,0,0,0-.747,1.843c-.249.5-.847,1.843,0,2.292,1.644.9,3.388-3.288,3.437-4.284.1-2.441-1.993-.648-2.74.3-.648.8-1.495,1.694-1.445,2.84.05,1.2,1.146,2.043,2.092,2.64.249.149.5-.249.249-.4C38,7.965,37.5,7.566,37.6,6.172A3.344,3.344,0,0,1,38.7,3.88c.4-.5,1.644-2.142,1.793-.1.05.5-.6,1.395-.9,1.893-.2.349-.5,1.694-1.3,1.694-1.943,0,.349-3.587.648-4.035a4.152,4.152,0,0,0,.8-1.793c.1-1.2-.7-1.744-1.793-1.3A2.341,2.341,0,0,0,36.8,3.481a1.77,1.77,0,0,0,.448-.2c-.4-.6-1.445-2.69-2.441-1.644-.847.947.4,3.936.947,4.683.6.8,2.391,2.292,3.437,1.495a4.15,4.15,0,0,0,1-2.043c.149-.6.249-1.3.4-1.893a5.1,5.1,0,0,1,.548-1.345c1.1-1.146,1.2.6.847,1.2-.1.3.2.5.349.3l.448-.6c1.893-.7-.448,1.694-.8,1.943a9.119,9.119,0,0,1-4.434,1.793c-.3,0-.3.5,0,.448" transform="translate(-17.375 -0.063)"/><path class="c" d="M98.5,127.7a20.183,20.183,0,0,1,6.476-.1c-.05-.2-.1-.349-.149-.548-.7.5-1.495.9-2.192,1.445a.281.281,0,0,0,.05.448,6.554,6.554,0,0,0,3.089.4c-.05-.2-.1-.349-.149-.548a7.7,7.7,0,0,1-4.882,1.2c.1.149.2.249.3.4.1-.448.05-.947.149-1.395.05-.2-.1-.349-.3-.4a10.775,10.775,0,0,0-3.089.448c-.349.1-.2.648.149.6a9.782,9.782,0,0,1,2.939-.448c-.1-.149-.2-.249-.3-.4-.1.448-.05.947-.149,1.395a.319.319,0,0,0,.3.4,8.583,8.583,0,0,0,5.181-1.3.3.3,0,0,0-.149-.548,5.834,5.834,0,0,1-2.79-.3c0,.149.05.3.05.448a23.967,23.967,0,0,1,2.042-1.345.3.3,0,0,0-.149-.548,21.445,21.445,0,0,0-6.675.149c-.3.05-.1.6.249.548" transform="translate(-49.029 -63.658)"/><path class="f" d="M83.388,88.628a8.009,8.009,0,0,0,2.69,4.284c1.993,1.445,4.733,1.594,4.932,4.683.05.4.648.4.6,0a4.7,4.7,0,0,0-2.341-3.786c-1-.648-2.242-.847-3.138-1.644a8.114,8.114,0,0,1-2.142-3.686.308.308,0,0,0-.6.149" transform="translate(-41.89 -44.309)"/><path class="f" d="M57.376,109.05c1.544,4.035,3.437,8.319,7.024,10.91a49.9,49.9,0,0,0,9.814,5.48c.149.05.349-.05.349-.2a12.084,12.084,0,0,0,.05-3.288.3.3,0,1,0-.6,0c0,.349.349,2.192.1,2.441-.5.5-2.042-.6-2.441-.8-1.793-.9-3.537-1.943-5.231-2.989-4.434-2.79-6.675-6.925-8.519-11.707-.1-.349-.7-.2-.548.149" transform="translate(-28.831 -54.568)"/><path class="f" d="M75.638,88.993a1.045,1.045,0,0,0,.448,1.544,1.378,1.378,0,0,0,1.644-.349,1.172,1.172,0,0,0-.448-1.744,1.223,1.223,0,0,0-1.793.7c-.1.349.5.548.6.149.249-.9,1.843-.05,1.146.6a.857.857,0,0,1-.847.1c-.349-.149-.349-.448-.2-.747s-.349-.6-.548-.249" transform="translate(-37.926 -44.326)"/><path class="f" d="M41.179,64.242c-.5,1.1-1.1,2.441-.4,3.637,1.046,1.793,3.637.3,4.085,2.69.3,1.395-.349,2.341.548,3.587A3.152,3.152,0,0,0,48.851,75.5c.349-.1.2-.7-.149-.6-2.64.8-3.338-2.042-3.288-3.836a4.859,4.859,0,0,0-.149-2.092,1.585,1.585,0,0,0-1.245-.747c-.249-.05-.6.1-.847,0-2.59-.7-2.242-1.993-1.445-3.736.149-.3-.4-.6-.548-.249" transform="translate(-20.355 -32.178)"/><path class="f" d="M72.031,28.7c.5,1.893-.7,3.288-.947,5.081-.149,1.2.7,1.345-.1,2.889a5.89,5.89,0,0,1-2.242,2.042.291.291,0,1,0,.3.5c1.495-.847,2.74-2.042,2.84-3.786a13.316,13.316,0,0,1,0-2.441c.149-.6.4-1.1.6-1.694a4.128,4.128,0,0,0,.149-2.79c-.1-.349-.7-.2-.6.2" transform="translate(-34.469 -14.224)"/><path class="f" d="M44.364,20.178c-.747,2.541,1.744,5.281,4.234,5.38a.3.3,0,0,0,0-.6c-2.092-.1-4.284-2.491-3.637-4.633.1-.349-.5-.548-.6-.149" transform="translate(-22.245 -10.034)"/><path class="f" d="M44.885,59.764a1.032,1.032,0,0,0,.947,1.245,1.2,1.2,0,0,0,1.3-.947c.2-1.445-2.192-1.744-2.242-.2a.3.3,0,0,0,.6,0c0-.7,1.146-.5,1.046.149-.1.5-1.2.548-1.1-.1.05-.4-.5-.548-.548-.149" transform="translate(-22.567 -29.543)"/><path class="f" d="M69.6,26a3.757,3.757,0,0,1,.8,3.537.308.308,0,0,0,.6.149,4.346,4.346,0,0,0-.947-4.085c-.3-.3-.747.149-.448.4" transform="translate(-34.928 -12.816)"/><path class="f" d="M47.44,18.6a2.4,2.4,0,0,0,.847,2.889c.3.2.648-.3.3-.5a1.786,1.786,0,0,1-.6-2.192.292.292,0,1,0-.548-.2" transform="translate(-23.777 -9.256)"/><path class="f" d="M52.676,80.05a2.8,2.8,0,0,0,2.292,1.594A3.333,3.333,0,0,0,57.957,80.4c.249-.3-.149-.7-.4-.4a2.724,2.724,0,0,1-2.341,1.1,2.353,2.353,0,0,1-1.943-1.2c-.149-.349-.747-.2-.6.149" transform="translate(-26.472 -40.015)"/><path class="f" d="M61.727,95.3c-1.993,4.882.747,10.81,4.583,13.949.3.249.7-.2.4-.4-3.686-2.989-6.377-8.668-4.434-13.351a.292.292,0,1,0-.548-.2" transform="translate(-30.691 -47.746)"/><rect class="a" width="114.38" height="8.12" transform="translate(101.079 58.517)"/><path class="c" d="M207.544,116.79c0-.4-.05-.9-.05-1.395-.249.05-.5.1-.7.149-.249.05-.448.1-.7.149a.259.259,0,0,1-.2-.1.381.381,0,0,1-.1-.249v-.3c0-.1.1-.149.149-.2l1.544-.3a.49.49,0,0,1,.149-.4.847.847,0,0,1,.8,0,.457.457,0,0,1,.3.2,27.014,27.014,0,0,1,3.288-.249c1,0,1.793-.05,2.292-.1.2.05.249.1.3.249,0,.149-.05.249-.249.3-.6.05-1.1.1-1.544.149s-.9.1-1.3.149-.847.1-1.245.149c-.448.05-.9.1-1.395.2l.149,2.939a12.435,12.435,0,0,1,1.245-.1c.4-.05.8-.05,1.2-.1s.8-.05,1.245-.1c.4-.05.9-.05,1.395-.1.2.05.249.1.3.249,0,.149-.05.249-.249.3-.5.05-1,.1-1.395.149-.448.05-.847.1-1.245.149a9.972,9.972,0,0,0-1.2.2c-.4.05-.847.149-1.3.2l.2,4.284c0,.1-.1.149-.2.2a1.172,1.172,0,0,1-.4.1.971.971,0,0,1-.4-.05.273.273,0,0,1-.2-.3,60.272,60.272,0,0,1-.5-6.426" transform="translate(-103.326 -57.227)"/><path class="c" d="M222.449,123.375a2.231,2.231,0,0,1,1.843-1.793,1.352,1.352,0,0,1,1,.2,3.086,3.086,0,0,1,.7.7,3.183,3.183,0,0,1,.4.947,8.084,8.084,0,0,1,.2.947,3.066,3.066,0,0,0,.947-.1,2.316,2.316,0,0,0,.947-.7.132.132,0,0,1,.149-.149.151.151,0,0,1,.2,0c.05,0,.149.05.149.1a.222.222,0,0,1,0,.249.725.725,0,0,1-.3.448,2.217,2.217,0,0,1-1.046.6,4.443,4.443,0,0,1-1.1.149,2.4,2.4,0,0,1-.5,1.644,2.126,2.126,0,0,1-1.2.7,2.176,2.176,0,0,1-1.345-.249,2.331,2.331,0,0,1-1-1.245,4.327,4.327,0,0,1-.2-1.046,11.955,11.955,0,0,1,.149-1.395m2.341,3.039a.685.685,0,0,0,.548-.05,1.342,1.342,0,0,0,.4-.349,1.841,1.841,0,0,0,.249-.548,2.235,2.235,0,0,0,.05-.548,3.223,3.223,0,0,1-.648-.2,2.824,2.824,0,0,1-.648-.4,5.282,5.282,0,0,1-.5-.6,2.135,2.135,0,0,1-.249-.8h0a1.918,1.918,0,0,0-.4.847,4.038,4.038,0,0,0,0,1.1,2.47,2.47,0,0,0,.4,1,1.761,1.761,0,0,0,.8.548m1.2-2.142a3.075,3.075,0,0,0-.8-1.893c-.1.05-.149.149-.149.349a1.264,1.264,0,0,0,.1.6,3.351,3.351,0,0,0,.3.6.947.947,0,0,0,.548.349" transform="translate(-111.606 -61.023)"/><path class="c" d="M234.827,121.349c0-.1.05-.149.1-.149a.3.3,0,0,1,.2.05,3.166,3.166,0,0,0,.9.3c.3.05.6.1.847.149a1.674,1.674,0,0,1,.7.249.732.732,0,0,1,.349.6,5.018,5.018,0,0,1,.1.947,6.351,6.351,0,0,0,.05,1,4.388,4.388,0,0,0,.1.847.487.487,0,0,0,.349.4.609.609,0,0,0,.448-.2,2.211,2.211,0,0,0,.4-.548,3.433,3.433,0,0,0,.349-.747,4.149,4.149,0,0,0,.2-.747c0-.1.05-.149.149-.2a.152.152,0,0,1,.2,0c.05,0,.1.05.149.1a.222.222,0,0,1,0,.249c-.149.349-.249.7-.4,1a6.543,6.543,0,0,1-.448.847,2.028,2.028,0,0,1-.7.6,1.9,1.9,0,0,1-.947.2c-.6,0-.947-.349-1.146-1-.05-.2-.1-.448-.149-.648,0-.249-.05-.448-.05-.7v-1a.856.856,0,0,0-.05-.4c-.05-.1-.1-.149-.2-.149a.739.739,0,0,0-.349-.05,1.3,1.3,0,0,1-.548-.149c-.05.1-.1.249-.2.448s-.149.4-.249.648c-.1.2-.149.4-.249.6a1.953,1.953,0,0,1-.2.448c-.249.5-.4.7-.548.7s-.149-.249-.05-.747c.149-.5.249-1.046.4-1.544a6.8,6.8,0,0,0,.5-1.395" transform="translate(-117.408 -60.84)"/><path class="c" d="M240.323,114.886c-.149.149-.3.149-.4,0a.372.372,0,0,1,0-.448,1.784,1.784,0,0,1,.548-.3,3.733,3.733,0,0,1,.8-.249c.3-.05.6-.149.9-.2a4.967,4.967,0,0,1,.8-.1,6.753,6.753,0,0,0-.1-1,8.793,8.793,0,0,0-.2-1,.286.286,0,0,1,.1-.349,3.431,3.431,0,0,1,.4-.149,1.379,1.379,0,0,1,.448.05.51.51,0,0,1,.3.249,2.66,2.66,0,0,1,.249,1c0,.349.05.7.05,1.046.747-.05,1.445-.1,2.192-.1h2.192c.747,0,1.445,0,2.192-.05a10.953,10.953,0,0,0,2.192-.249c.2,0,.3.05.349.2a.252.252,0,0,1-.2.349,13.22,13.22,0,0,1-2.092.3c-.747.05-1.495.1-2.292.149s-1.544.1-2.341.1c-.747.05-1.495.05-2.192.1.05.7.05,1.495.05,2.341s.05,1.694.05,2.441a18.1,18.1,0,0,0,.2,1.943c.1.5.3.8.548.8.149,0,.3-.1.5-.349a6.991,6.991,0,0,0,.6-.9c.2-.349.4-.747.6-1.146a5.917,5.917,0,0,0,.4-1.1c0-.1.05-.149.149-.2a.152.152,0,0,1,.2,0q.075,0,.149.149a.373.373,0,0,1,.05.249,4.811,4.811,0,0,1-.349,1,8.662,8.662,0,0,1-.7,1.345,12.443,12.443,0,0,1-.9,1.2,1.468,1.468,0,0,1-1.046.5,1.131,1.131,0,0,1-.8-.3,2.09,2.09,0,0,1-.448-.7,6.023,6.023,0,0,1-.249-.9,5.752,5.752,0,0,1-.1-.8,22.58,22.58,0,0,1-.149-2.59v-2.84a11.749,11.749,0,0,0-1.544.2,2.639,2.639,0,0,0-1.1.3" transform="translate(-120.414 -55.772)"/><path class="c" d="M258.533,126.029c.149.2.2.249.249.2a1.364,1.364,0,0,0,.2-.249c.1-.2.249-.4.349-.648s.249-.548.349-.847.2-.6.3-.847c.1-.3.149-.548.2-.747,0-.1.05-.149.149-.2a.152.152,0,0,1,.2,0,.378.378,0,0,1,.2.1.222.222,0,0,1,0,.249,3.166,3.166,0,0,1-.3.9,8.313,8.313,0,0,1-.4,1,7.064,7.064,0,0,0-.4.9,6.521,6.521,0,0,1-.349.648,2.168,2.168,0,0,1-.3.349.615.615,0,0,1-.4.2.844.844,0,0,1-.5,0,1.171,1.171,0,0,1-.5-.4,4.386,4.386,0,0,1-.8-1.445,12.317,12.317,0,0,1-.548-1.793,3.024,3.024,0,0,1-.349.5,4.7,4.7,0,0,1-.5.5,1.544,1.544,0,0,1-.648.3,1.379,1.379,0,0,1-.648-.05.51.51,0,0,1-.249-.3,1.619,1.619,0,0,1,0-.8,3.177,3.177,0,0,1,.1-.349,3.274,3.274,0,0,1,.3-.6,7.3,7.3,0,0,1,.448-.648,1.881,1.881,0,0,1,.6-.5.848.848,0,0,1,.7-.1V120.9a1.378,1.378,0,0,1,.05-.448.351.351,0,0,1,.249-.2,1.246,1.246,0,0,1,.7,0c.1.05.2.05.249.1a3.025,3.025,0,0,1,.2.847,3.224,3.224,0,0,1-.05,1.2,12.881,12.881,0,0,0,.448,1.993,4.2,4.2,0,0,0,.7,1.644m-3.487-2.092a.934.934,0,0,0,.349-.3,2.338,2.338,0,0,0,.3-.448,2.082,2.082,0,0,0,.2-.5.844.844,0,0,0,0-.5,2.166,2.166,0,0,0-.3.349l-.3.448a2.081,2.081,0,0,0-.2.5,1.379,1.379,0,0,0-.05.448" transform="translate(-127.414 -60.338)"/><path class="c" d="M267.991,121.86a1.284,1.284,0,0,1-.648-.4,4.847,4.847,0,0,1-.548-.747,7.522,7.522,0,0,1-.448-.9c-.149-.3-.249-.6-.349-.847a9.219,9.219,0,0,1-.4-2.341,18.022,18.022,0,0,1,.1-2.341c0-.149.05-.4.1-.747a9.42,9.42,0,0,1,.249-1.146,5.1,5.1,0,0,1,.4-1.046c.149-.3.349-.448.548-.448.1,0,.2.1.349.3a2.5,2.5,0,0,1,.249.648c.05.249.149.5.2.747a3.427,3.427,0,0,1,.1.648,14.7,14.7,0,0,1-.05,2.59,6.849,6.849,0,0,1-.648,2.242,10.19,10.19,0,0,0,.8,2.391c.3.548.5.8.648.8a.713.713,0,0,0,.5-.4,5.681,5.681,0,0,0,.5-.947c.149-.349.3-.7.4-1s.149-.548.2-.648c0-.1.05-.149.149-.2a.152.152,0,0,1,.2,0,.378.378,0,0,1,.2.1.222.222,0,0,1,0,.249,12.024,12.024,0,0,1-.4,1.245c-.2.4-.4.847-.648,1.245a1.676,1.676,0,0,1-1.744.947m-.947-5.032a8.786,8.786,0,0,0,.349-1.993,8.916,8.916,0,0,0-.1-1.993,10.181,10.181,0,0,0-.3,1.843,10.485,10.485,0,0,0,.05,2.142" transform="translate(-133.336 -55.671)"/><path class="c" d="M276.119,121.39c.249.05.5.1.6.249a1.177,1.177,0,0,1,.3.448,1.226,1.226,0,0,1,.05.6,3.225,3.225,0,0,1-.2.648,4.156,4.156,0,0,1-.4.6,2.361,2.361,0,0,1-.5.5,5.161,5.161,0,0,0,.648,1.395,1.2,1.2,0,0,0,.947.648,2.2,2.2,0,0,0,.648-.7,7.3,7.3,0,0,0,.448-.747c.149-.3.249-.6.349-.8a5.637,5.637,0,0,1,.2-.747c0-.1.05-.149.149-.2a.152.152,0,0,1,.2,0c.05,0,.1.05.149.1a.222.222,0,0,1,0,.249,12.031,12.031,0,0,1-.4,1.245,4.586,4.586,0,0,1-.648,1.2,2.272,2.272,0,0,1-.6.6,1.328,1.328,0,0,1-.7.349,1.8,1.8,0,0,1-1.345-.249,2.3,2.3,0,0,1-.9-1.046,4.51,4.51,0,0,1-.5-1.445,3.765,3.765,0,0,1,0-1.495,2.677,2.677,0,0,1,.5-1.146,1.485,1.485,0,0,1,1-.249m-.249,2.491a3.034,3.034,0,0,0,.6-.747,1.2,1.2,0,0,0,.149-.8.881.881,0,0,0-.249-.4.8.8,0,0,0-.448-.149,2.24,2.24,0,0,0-.149.9,3.249,3.249,0,0,0,.1,1.2" transform="translate(-137.827 -60.931)"/><path class="c" d="M288.362,124.168a4.926,4.926,0,0,1-1.395,2.341,3.986,3.986,0,0,1-1.046.648,1.659,1.659,0,0,1-1.1.05,1.77,1.77,0,0,1-.8-.548,3.042,3.042,0,0,1-.448-1,3.249,3.249,0,0,1-.1-1.2,4.246,4.246,0,0,1,.149-1.146q.224-.747.6-.9a.972.972,0,0,1,.747,0,1.087,1.087,0,0,1,.548.6,1.2,1.2,0,0,1,.149.8c-.05.2-.149.249-.3.249a.235.235,0,0,1-.249-.249,1.144,1.144,0,0,0-.2-.7,1.319,1.319,0,0,0-.149.7,3.332,3.332,0,0,0,0,1,5.29,5.29,0,0,0,.2.947.915.915,0,0,0,.4.6.678.678,0,0,0,.747,0,2.386,2.386,0,0,0,.747-.548,4.145,4.145,0,0,0,.648-.9,4.845,4.845,0,0,0,.4-.947c0-.1.05-.149.149-.2a.151.151,0,0,1,.2,0c.05,0,.149.05.149.1a.873.873,0,0,1-.05.3" transform="translate(-142.299 -61.417)"/><path class="c" d="M293.419,121.39c.249.05.5.1.6.249a1.176,1.176,0,0,1,.3.448,1.226,1.226,0,0,1,.05.6,3.221,3.221,0,0,1-.2.648,4.156,4.156,0,0,1-.4.6,2.361,2.361,0,0,1-.5.5,5.16,5.16,0,0,0,.648,1.395,1.2,1.2,0,0,0,.947.648,2.2,2.2,0,0,0,.648-.7,7.3,7.3,0,0,0,.448-.747c.149-.3.249-.6.349-.8a5.637,5.637,0,0,1,.2-.747c0-.1.05-.149.149-.2a.152.152,0,0,1,.2,0c.05,0,.1.05.149.1a.222.222,0,0,1,0,.249,12.031,12.031,0,0,1-.4,1.245,4.585,4.585,0,0,1-.648,1.2,2.272,2.272,0,0,1-.6.6,1.328,1.328,0,0,1-.7.349,1.8,1.8,0,0,1-1.345-.249,2.3,2.3,0,0,1-.9-1.046,4.51,4.51,0,0,1-.5-1.445,3.764,3.764,0,0,1,0-1.495,2.677,2.677,0,0,1,.5-1.146,1.408,1.408,0,0,1,1-.249m-.3,2.491a3.033,3.033,0,0,0,.6-.747,1.2,1.2,0,0,0,.149-.8.881.881,0,0,0-.249-.4.8.8,0,0,0-.448-.149,2.24,2.24,0,0,0-.149.9,9.671,9.671,0,0,0,.1,1.2" transform="translate(-146.509 -60.931)"/><path class="c" d="M307.522,126.621a4.279,4.279,0,0,0,.548-1.495,17.882,17.882,0,0,1,.4-1.744c0-.1.05-.149.149-.2a.152.152,0,0,1,.2,0c.05,0,.1.05.149.1a.222.222,0,0,1,0,.249c-.05.249-.1.548-.2,1a13.351,13.351,0,0,1-.349,1.345,5.566,5.566,0,0,1-.548,1.245,1.241,1.241,0,0,1-.8.648,1.15,1.15,0,0,1-.947-.3,3.473,3.473,0,0,1-.7-1.046,12.4,12.4,0,0,1-.548-1.445q-.224-.822-.448-1.495a4.937,4.937,0,0,0-.5-1.146.674.674,0,0,0-.6-.448c-.2,0-.349.2-.448.548a6.827,6.827,0,0,0-.349,1.2c-.1.448-.149.847-.249,1.3a2.143,2.143,0,0,1-.249.847.67.67,0,0,1-.349.3,1.379,1.379,0,0,1-.448.05.951.951,0,0,1-.4-.149.894.894,0,0,1-.249-.349,16.377,16.377,0,0,1-.349-1.793c-.05-.648-.149-1.245-.249-1.893,0-.2.05-.3.2-.349a1.237,1.237,0,0,1,.448-.05,1.583,1.583,0,0,1,.448.149c.149.1.2.149.2.249a5.124,5.124,0,0,0,.05.847c.05.3.1.6.149.847a6.044,6.044,0,0,1,.249-.7c.1-.249.249-.5.349-.8a3.2,3.2,0,0,1,.5-.648,1.112,1.112,0,0,1,.648-.3,1.422,1.422,0,0,1,1.146.4,3.765,3.765,0,0,1,.9,1.2,14.535,14.535,0,0,1,.7,1.544c.2.548.349,1,.548,1.445a3.71,3.71,0,0,0,.448.9c.249.2.4.2.548-.05" transform="translate(-150.599 -60.831)"/><path class="c" d="M316.387,118.263a1.65,1.65,0,0,1,0-1.2,2.425,2.425,0,0,1,.7-1.046,2.844,2.844,0,0,1,1.046-.648,2.359,2.359,0,0,1,1.146-.149,11.779,11.779,0,0,1-.1-1.495v-3.686c0-.6.05-1.046.05-1.395a.508.508,0,0,1,.249-.4.8.8,0,0,1,.448-.149,1.455,1.455,0,0,1,.448.1.314.314,0,0,1,.149.4,7.881,7.881,0,0,0,.05,1.893c.1.6.149,1.2.249,1.744.05.548.1,1.146.149,1.694a7.209,7.209,0,0,1-.2,1.744,8.2,8.2,0,0,1,.149.9l.3,1.345a7.959,7.959,0,0,0,.4,1.3,2.333,2.333,0,0,0,.4.747,1.994,1.994,0,0,0,.5-.6c.149-.249.249-.5.349-.648.149-.349.3-.7.448-1.1a6.466,6.466,0,0,0,.3-.947c0-.1.05-.149.149-.2a.152.152,0,0,1,.2,0c.05,0,.149.05.149.1a.373.373,0,0,1,.05.249,6.4,6.4,0,0,1-.349,1.046,7.514,7.514,0,0,1-.6,1.3,4.688,4.688,0,0,1-.747,1.1,1.192,1.192,0,0,1-.8.5.9.9,0,0,1-.747-.349,3.907,3.907,0,0,1-.548-.9,7.326,7.326,0,0,1-.4-1.245l-.3-1.345a6.364,6.364,0,0,1-.7,1.046,3.663,3.663,0,0,1-.947.8,1.2,1.2,0,0,1-.9.2c-.349.1-.548-.2-.747-.7m2.79-2.391a2.11,2.11,0,0,0-.7.3,1.723,1.723,0,0,0-.5.548,1.747,1.747,0,0,0-.3.7,1.453,1.453,0,0,0,.05.8,1.548,1.548,0,0,0,1-.8,10.467,10.467,0,0,0,.648-1.3Z" transform="translate(-158.766 -54.266)"/><path class="c" d="M330.749,123.375a2.231,2.231,0,0,1,1.843-1.793,1.353,1.353,0,0,1,1,.2,3.086,3.086,0,0,1,.7.7,3.183,3.183,0,0,1,.4.947,8.1,8.1,0,0,1,.2.947,3.066,3.066,0,0,0,.947-.1,2.315,2.315,0,0,0,.947-.7.132.132,0,0,1,.149-.149.152.152,0,0,1,.2,0c.05,0,.149.05.149.1a.222.222,0,0,1,0,.249.725.725,0,0,1-.3.448,2.217,2.217,0,0,1-1.046.6,4.443,4.443,0,0,1-1.1.149,2.4,2.4,0,0,1-.5,1.644,2.126,2.126,0,0,1-1.2.7,2.175,2.175,0,0,1-1.345-.249,2.33,2.33,0,0,1-1-1.245,4.326,4.326,0,0,1-.2-1.046,11.981,11.981,0,0,1,.15-1.395m2.341,3.039a.685.685,0,0,0,.548-.05,1.342,1.342,0,0,0,.4-.349,1.841,1.841,0,0,0,.249-.548,2.233,2.233,0,0,0,.05-.548,3.222,3.222,0,0,1-.648-.2,2.824,2.824,0,0,1-.648-.4,5.276,5.276,0,0,1-.5-.6,2.135,2.135,0,0,1-.249-.8h0a1.917,1.917,0,0,0-.4.847,4.036,4.036,0,0,0,0,1.1,2.47,2.47,0,0,0,.4,1,1.372,1.372,0,0,0,.8.548m1.2-2.142a3.075,3.075,0,0,0-.8-1.893c-.1.05-.149.149-.149.349a1.264,1.264,0,0,0,.1.6,3.351,3.351,0,0,0,.3.6.817.817,0,0,0,.548.349" transform="translate(-165.954 -61.023)"/><path class="c" d="M349.049,123.375a2.231,2.231,0,0,1,1.843-1.793,1.353,1.353,0,0,1,1,.2,3.086,3.086,0,0,1,.7.7,3.184,3.184,0,0,1,.4.947,8.1,8.1,0,0,1,.2.947,3.066,3.066,0,0,0,.947-.1,2.316,2.316,0,0,0,.947-.7.132.132,0,0,1,.149-.149.151.151,0,0,1,.2,0c.05,0,.149.05.149.1a.222.222,0,0,1,0,.249.725.725,0,0,1-.3.448,2.217,2.217,0,0,1-1.046.6,4.443,4.443,0,0,1-1.1.149,2.4,2.4,0,0,1-.5,1.644,2.126,2.126,0,0,1-1.2.7,2.176,2.176,0,0,1-1.345-.249,2.331,2.331,0,0,1-1-1.245,4.325,4.325,0,0,1-.2-1.046,6.305,6.305,0,0,1,.149-1.395m2.341,3.039a.685.685,0,0,0,.548-.05,1.343,1.343,0,0,0,.4-.349,1.841,1.841,0,0,0,.249-.548,2.233,2.233,0,0,0,.05-.548,3.222,3.222,0,0,1-.648-.2,2.825,2.825,0,0,1-.648-.4,5.276,5.276,0,0,1-.5-.6,2.134,2.134,0,0,1-.249-.8h0a1.918,1.918,0,0,0-.4.847,4.038,4.038,0,0,0,0,1.1,2.471,2.471,0,0,0,.4,1,1.372,1.372,0,0,0,.8.548m1.2-2.142a3.075,3.075,0,0,0-.8-1.893c-.1.05-.149.149-.149.349a1.264,1.264,0,0,0,.1.6l.3.6a.817.817,0,0,0,.548.349" transform="translate(-175.138 -61.023)"/><path class="c" d="M369.381,125.263a1.123,1.123,0,0,0-.4-.8,6.992,6.992,0,0,0-.9-.6,5.437,5.437,0,0,1-.847-.648.966.966,0,0,1,0-1.495,3.177,3.177,0,0,1,.7-.4,2.328,2.328,0,0,1,.847-.149,3.708,3.708,0,0,1,.747,0,.293.293,0,0,1,.249.1.183.183,0,0,1,.05.149c0,.05-.05.1-.1.149a.3.3,0,0,1-.2.05,2.331,2.331,0,0,0-.8.1.637.637,0,0,0-.5.5q-.075.224.3.448c.2.149.448.349.747.548a5.737,5.737,0,0,1,.847.7,1.7,1.7,0,0,1,.548.9,4.272,4.272,0,0,0,1-.648,1.44,1.44,0,0,0,.548-.9c0-.1.05-.149.149-.2a.152.152,0,0,1,.2,0c.05,0,.149.05.149.1a.222.222,0,0,1,0,.249,1.894,1.894,0,0,1-.7,1.1,4.328,4.328,0,0,1-1.3.8,2.257,2.257,0,0,1-.149.8,2.09,2.09,0,0,1-.448.7,2.055,2.055,0,0,1-.648.5,2.348,2.348,0,0,1-.747.3,2.239,2.239,0,0,1-1,0,1.076,1.076,0,0,1-.7-.7.6.6,0,0,1,.1-.7,1.619,1.619,0,0,1,.648-.5,4.311,4.311,0,0,1,.847-.349,1.593,1.593,0,0,0,.747-.1m0,.6c-.05,0-.2.05-.448.1a4.384,4.384,0,0,0-.747.249,1.04,1.04,0,0,0-.5.4c-.1.149-.05.349.249.5a3.772,3.772,0,0,0,.9-.448,1.538,1.538,0,0,0,.548-.8" transform="translate(-184.161 -60.818)"/><path class="c" d="M378.719,121.39c.249.05.5.1.6.249a1.176,1.176,0,0,1,.3.448,1.226,1.226,0,0,1,.05.6,3.223,3.223,0,0,1-.2.648,4.156,4.156,0,0,1-.4.6,2.362,2.362,0,0,1-.5.5,5.16,5.16,0,0,0,.648,1.395,1.2,1.2,0,0,0,.947.648,2.2,2.2,0,0,0,.648-.7,7.3,7.3,0,0,0,.448-.747c.149-.3.249-.6.349-.8a5.636,5.636,0,0,1,.2-.747c0-.1.05-.149.149-.2a.151.151,0,0,1,.2,0c.05,0,.1.05.149.1a.222.222,0,0,1,0,.249,12.031,12.031,0,0,1-.4,1.245,4.585,4.585,0,0,1-.648,1.2,2.272,2.272,0,0,1-.6.6,1.328,1.328,0,0,1-.7.349,1.8,1.8,0,0,1-1.345-.249,2.3,2.3,0,0,1-.9-1.046,4.509,4.509,0,0,1-.5-1.445,3.764,3.764,0,0,1,0-1.495,2.677,2.677,0,0,1,.5-1.146,1.408,1.408,0,0,1,1-.249m-.3,2.491a3.034,3.034,0,0,0,.6-.747,1.2,1.2,0,0,0,.149-.8.881.881,0,0,0-.249-.4.8.8,0,0,0-.448-.149,2.24,2.24,0,0,0-.149.9,9.67,9.67,0,0,0,.1,1.2" transform="translate(-189.315 -60.931)"/><path class="c" d="M386.427,121.349c0-.1.05-.149.1-.149a.3.3,0,0,1,.2.05,3.167,3.167,0,0,0,.9.3c.3.05.6.1.847.149a1.674,1.674,0,0,1,.7.249.732.732,0,0,1,.349.6,5.02,5.02,0,0,1,.1.947,6.349,6.349,0,0,0,.05,1,4.386,4.386,0,0,0,.1.847.487.487,0,0,0,.349.4.609.609,0,0,0,.448-.2,2.212,2.212,0,0,0,.4-.548,3.434,3.434,0,0,0,.349-.747,4.151,4.151,0,0,0,.2-.747c0-.1.05-.149.149-.2a.152.152,0,0,1,.2,0c.05,0,.1.05.149.1a.222.222,0,0,1,0,.249c-.149.349-.249.7-.4,1a6.547,6.547,0,0,1-.448.847,2.028,2.028,0,0,1-.7.6,1.9,1.9,0,0,1-.947.2c-.6,0-.947-.349-1.146-1-.05-.2-.1-.448-.149-.648,0-.249-.05-.448-.05-.7v-1a.856.856,0,0,0-.05-.4c-.05-.1-.1-.149-.2-.149a.739.739,0,0,0-.349-.05,1.3,1.3,0,0,1-.548-.149c-.05.1-.1.249-.2.448s-.149.4-.249.648c-.1.2-.149.4-.249.6a1.952,1.952,0,0,1-.2.448c-.249.5-.4.7-.548.7s-.149-.249-.05-.747c.149-.5.249-1.046.4-1.544a12.087,12.087,0,0,0,.5-1.395" transform="translate(-193.485 -60.84)"/><path class="c" d="M391.923,114.886c-.149.149-.3.149-.4,0a.372.372,0,0,1,0-.448,1.784,1.784,0,0,1,.548-.3,3.733,3.733,0,0,1,.8-.249c.3-.05.6-.149.9-.2a4.967,4.967,0,0,1,.8-.1,6.749,6.749,0,0,0-.1-1,8.806,8.806,0,0,0-.2-1,.286.286,0,0,1,.1-.349,3.429,3.429,0,0,1,.4-.149,1.379,1.379,0,0,1,.448.05.51.51,0,0,1,.3.249,2.66,2.66,0,0,1,.249,1c0,.349.05.7.05,1.046.747-.05,1.445-.1,2.192-.1h2.192c.747,0,1.445,0,2.192-.05a10.952,10.952,0,0,0,2.192-.249c.2,0,.3.05.349.2a.252.252,0,0,1-.2.349,13.221,13.221,0,0,1-2.092.3c-.747.05-1.495.1-2.292.149s-1.544.1-2.341.1c-.747.05-1.495.05-2.192.1.05.7.05,1.495.05,2.341s.05,1.694.05,2.441a18.109,18.109,0,0,0,.2,1.943c.1.5.3.8.548.8.149,0,.3-.1.5-.349a7,7,0,0,0,.6-.9c.2-.349.4-.747.6-1.146a5.913,5.913,0,0,0,.4-1.1c0-.1.05-.149.149-.2a.152.152,0,0,1,.2,0q.075,0,.149.149a.373.373,0,0,1,.05.249,4.812,4.812,0,0,1-.349,1,8.663,8.663,0,0,1-.7,1.345,12.441,12.441,0,0,1-.9,1.2,1.468,1.468,0,0,1-1.046.5,1.131,1.131,0,0,1-.8-.3,2.09,2.09,0,0,1-.448-.7,6.024,6.024,0,0,1-.249-.9,5.746,5.746,0,0,1-.1-.8,22.58,22.58,0,0,1-.149-2.59v-2.84a11.747,11.747,0,0,0-1.544.2,2.639,2.639,0,0,0-1.1.3" transform="translate(-196.491 -55.772)"/><path class="c" d="M410.033,123.951c.149.2.2.249.249.2a1.364,1.364,0,0,0,.2-.249c.1-.2.249-.4.349-.648s.249-.548.349-.847.2-.6.3-.847c.1-.3.149-.548.2-.747,0-.1.05-.149.149-.2a.152.152,0,0,1,.2,0,.378.378,0,0,1,.2.1.222.222,0,0,1,0,.249,3.166,3.166,0,0,1-.3.9,8.317,8.317,0,0,1-.4,1,7.06,7.06,0,0,0-.4.9,6.514,6.514,0,0,1-.349.648,2.169,2.169,0,0,1-.3.349.615.615,0,0,1-.4.2.845.845,0,0,1-.5,0,1.171,1.171,0,0,1-.5-.4,4.385,4.385,0,0,1-.8-1.445,12.321,12.321,0,0,1-.548-1.793,3.024,3.024,0,0,1-.349.5,4.7,4.7,0,0,1-.5.5,1.544,1.544,0,0,1-.648.3,1.379,1.379,0,0,1-.648-.05.51.51,0,0,1-.249-.3,1.619,1.619,0,0,1,0-.8,3.174,3.174,0,0,1,.1-.349,3.273,3.273,0,0,1,.3-.6,7.288,7.288,0,0,1,.448-.648,1.881,1.881,0,0,1,.6-.5.848.848,0,0,1,.7-.1v-.448a1.38,1.38,0,0,1,.05-.448.351.351,0,0,1,.249-.2,1.246,1.246,0,0,1,.7,0c.1.05.2.05.249.1a3.025,3.025,0,0,1,.2.847,3.224,3.224,0,0,1-.05,1.2,12.878,12.878,0,0,0,.448,1.993,6.491,6.491,0,0,0,.7,1.644m-3.437-6.327c-.05.1-.1.149-.2.149h-.249c-.1,0-.149-.1-.249-.149-.05-.1-.1-.149-.05-.249a1.541,1.541,0,0,1,.1-.4,1.77,1.77,0,0,1,.2-.448,2.168,2.168,0,0,1,.3-.349.447.447,0,0,1,.448-.1.615.615,0,0,1,.4.2c.1.1.2.249.3.349s.2.249.3.349.2.2.3.2l.149-.4a.376.376,0,0,1,.349-.2c.149,0,.2.1.249.3-.1.249-.149.448-.2.548s-.149.2-.2.2a.6.6,0,0,1-.5.05,2.019,2.019,0,0,1-.448-.249,2.169,2.169,0,0,1-.349-.3,1.042,1.042,0,0,0-.3-.2.457.457,0,0,0-.2.3,3.428,3.428,0,0,0-.149.4m0,4.234a.934.934,0,0,0,.349-.3,2.338,2.338,0,0,0,.3-.448,2.08,2.08,0,0,0,.2-.5.844.844,0,0,0,0-.5,2.168,2.168,0,0,0-.3.349l-.3.448a2.082,2.082,0,0,0-.2.5,1.38,1.38,0,0,0-.05.448" transform="translate(-203.441 -58.261)"/><path class="c" d="M418.049,123.375a2.231,2.231,0,0,1,1.843-1.793,1.353,1.353,0,0,1,1,.2,3.087,3.087,0,0,1,.7.7,3.183,3.183,0,0,1,.4.947,8.1,8.1,0,0,1,.2.947,3.066,3.066,0,0,0,.947-.1,2.316,2.316,0,0,0,.947-.7.132.132,0,0,1,.149-.149.152.152,0,0,1,.2,0c.05,0,.149.05.149.1a.222.222,0,0,1,0,.249.726.726,0,0,1-.3.448,2.217,2.217,0,0,1-1.046.6,4.443,4.443,0,0,1-1.1.149,2.4,2.4,0,0,1-.5,1.644,2.126,2.126,0,0,1-1.2.7,2.176,2.176,0,0,1-1.345-.249,2.33,2.33,0,0,1-1-1.245,4.325,4.325,0,0,1-.2-1.046,11.975,11.975,0,0,1,.15-1.395m2.341,3.039a.685.685,0,0,0,.548-.05,1.343,1.343,0,0,0,.4-.349,1.841,1.841,0,0,0,.249-.548,2.235,2.235,0,0,0,.05-.548,3.224,3.224,0,0,1-.648-.2,2.824,2.824,0,0,1-.648-.4,5.276,5.276,0,0,1-.5-.6,2.134,2.134,0,0,1-.249-.8h0a1.917,1.917,0,0,0-.4.847,4.038,4.038,0,0,0,0,1.1,2.47,2.47,0,0,0,.4,1,1.372,1.372,0,0,0,.8.548m1.2-2.142a3.075,3.075,0,0,0-.8-1.893c-.1.05-.1.149-.149.349a1.264,1.264,0,0,0,.1.6,3.347,3.347,0,0,0,.3.6.817.817,0,0,0,.548.349" transform="translate(-209.764 -61.023)"/><path class="c" d="M132.894,49l-.05-.3-.5-.05h-.6L129.9,48.9h-.7l-3.487-.249-2.79.149h-2.042l-.7.05-1,.1V49.6l.1.6.1,1.395-.05,1.1.1.947,1.1.2.648.05h.947l.6-.05,1-.149.7-.05h1.2l1,.2.6.847v1.046l.1,1.245v.8l-.05.4v.648l-.349.7-.8.548-.747.349-.8.3-3.138.7-.8.1h-.7l-.8-.05-.947-.1-1.445-.349-.747-.3-1-.6-.648-.5-.847-.847-.5-.6-.6-.9-.349-.648-.448-1.146-.249-.8-.349-1.793-.1-1.146v-.747l.05-.9.4-2.042.2-.7.249-.8.3-.8.4-.7.4-.548.548-.7.6-.6.548-.4.747-.548,1.495-.648.847-.2,2.242-.149,2.192.149.747.149.947.2.7.249.847.4,1.2.7.648.448,1.146-.9.8-.7,1.495-1.594.448-.648h0l-.548-.4-.2-.2-1.644-1.1-.548-.349-1.495-.7-1.495-.5-.6-.149-1.495-.3-1-.149-1.445-.1-1.594.1-.648.1-.548.1-1.345.2-1.544.249-1.3.349-.648.249-2.491,1.495-1.046.8-1.544,1.345-.9,1.046-.847,1.2-.249.5-.6,1.345-.847,2.69-.149.7-.2,1.046L104,51.144v.6l.05.6.1.648.149.9.1.747.249,1.3.4,1.345.548,1.245,1.1,1.893.349.6.448.6.349.4,1.1,1.046.448.349.548.448,1.046.747,1.3.7,1.395.5,2.74.747.648.149.648.05,2.242.2.6-.05,1.644-.2.6-.149,2.939-.448.6-.2,1.544-.5.6-.2.747-.4,1.3-.8L131.9,62.6l.349-.448.448-.747v-2.74l.1-1.893V52.738l.2-2.84Z" transform="translate(-52.24 -17.984)"/><path class="c" d="M189.314,62.356l-.4-.5-1.993-2.69-1.644-2.391-.7-1.345,1.544-.548.448-.1,1.744-1,.349-.3.648-.648.747-.947.349-.548.349-.548.3-.6.2-.548.149-.6.1-.7.1-.7.05-.648v-.6l-.1-1.594-.1-.6-.2-.6-.548-1.146-.847-1.3-.6-.847-.4-.448-.349-.349-.4-.349-1.245-.847-.548-.249-1.943-.7-.847-.249-.548-.1-.648-.05h-1.594l-2.939-.2h-.648l-2.939.2L167,36.9l-.9.1-.1.4-.05.548.1,1.395v.747l.05,3.039-.1,2.341v.648l-.149,2.391v.648L166,51.446v.747l-.149,2.391v.648l.1,2.939.149,2.341v.8l-.3,4.135.05.947,1.943.149h.648l1.993-.149,2.142.149h.4l.05-.6V65.3l-.1-1.694-.2-3.188.149-2.59.2-.947.9-.648.947-.05,2.192.149.6.3.5.548,1.843,2.491,1.2,1.943,2.142,2.889,1.345,1.893.2.149h.349l2.64-.1,2.391.05h2.242L190.858,64.5ZM183.983,50l-.548.648-.847.448-.747.249-1.1.2-2.889.149h-.847l-2.341-.2-.747-.149-.747-.3-.3-.947-.05-.548.1-2.391-.05-.7-.2-1.445-.05-1.046.1-.9.648-.648.648-.249.7-.05,2.242-.149h.747l2.292.05.8.1,1.146.3.747.3.747.648.5.7.349.8.2.8.1.747.05.847-.1.947-.249.9Z" transform="translate(-83.253 -18.486)"/><path class="c" d="M245.721,61.112h-.648l-2.989.2h-.8l-3.039-.2-2.391.2h-.7l-3.338-.2-.548-.548-.3-.648-.05-.7v-.947l.05-.747.2-1.943.3-.747.747-.448,1.544-.1,1.793.149h.648l2.79.1,3.487-.249.747.05,1.943.2h.8l.05-.2.05-1.2-.1-1V50l-.149-.8-1.2-.1-4.832.249h-4.185l-1.395.1-1.644-.149-.8-.2-.548-.648-.149-.648-.1-1.3v-.8l.1-1.146.2-1.046.648-.7,1.3-.2h.7l1.993.149,2.242.05h.648l2.889-.05,4.085.05,1.046-.05V42.63l.05-.548-.1-1.694v-.847l.1-1.046V37.4l-.05-.249h-1.046l-2.242.149h0l-6.626-.1-2.541.2h-.747l-2.69-.2h-.648l-2.64.05-2.79-.149-.3.05-.149,2.491v.6l-.1,1.395v.947l.249,3.736-.2,2.341v3.637l-.1,2.341.249,3.686-.05,2.341v.747l-.2,2.292v.6l-.05.7.2,1.744h.1l1.345.1,3.686-.249h.8l2.292.2h2.939l3.686-.249,2.341.149h.648l5.131-.149.2-2.989-.149-2.292Z" transform="translate(-112.56 -18.636)"/><path class="c" d="M297.659,42.929l.6-.05.05-.548.05-.6-.05-1.3.149-2.042-.1-1-.548-.1h-.6l-1.395.05h-3.288l-3.936.05-2.491-.05-3.288.249h-.747l-2.541-.249h-.6l-2.59.2h-.747L274,37.4h-.9l-.05.249-.05.5.149,1.694v.648l-.1,1.3.05.947.4.05h.6l1.744-.1,1.943.149h.747l1.345-.1h.8l1.1.2.4,1.046v.8l.05,2.541v3.338l.249,3.238v.8l-.05,2.59v.648l-.05,2.64V63.8l-.149,2.939,1.843.1h.648l1.943-.149.8.05,1.146.149.6.05v-.448l-.3-2.64.1-2.64V57.227l-.1-2.59.3-3.985-.2-2.541v-.8l.249-3.437.548-.8.9-.249.448-.05h.747l1.046.1h.648l1.993-.149.8.05Z" transform="translate(-137.049 -18.737)"/><path class="c" d="M346.279,64.85l-1.146-2.74-2.69-5.281-.3-.648L341,53.392l-2.441-5.43-.8-2.292-1.445-3.238-1.1-2.092-.249-.648-.747-2.042-.448-.1-1.943-.05h-3.388l-1.893.1-.4.1-1.1,2.59-1.146,2.74-1.245,2.64-1.245,2.64-1.793,4.135-1.2,2.441-.249.6-1.245,2.989-1.395,3.089L313.6,66l-.3.9h.05l2.989-.2h.747l3.039.149.2-.1.2-.249.2-.548,1.046-3.039.4-.8.747-.5.947-.149H325.8l.7-.05h.648l5.878.149h.648l3.338.249.8.149.648,1,1.495,3.985H340l2.491-.149h2.043l2.192.149.349-.05v-.05Zm-11.956-9.515-.7.7-1,.3-2.242-.149h-2.74l-.847-.1-1.046-.5-.3-1.2.249-1.046,2.64-6.725.8-.8,1-.249,1,.249.847.6.349.847,1.1,3.288,1.245,3.836Z" transform="translate(-157.273 -18.837)"/><path class="c" d="M405.757,56.076l-.149-.9-.149-.5-.249-.548-.747-1.2-.8-.947-1.2-.947-1.046-.648-.6-.249-.8-.349-1.146-.448-.6-.149-1.046-.249-1.345-.4-1.445-.349-.648-.1-1.395-.1-1.245-.149-.847-.2-.3-.1-.7-.349-.7-.648-.5-.8-.2-.947.1-1.046.548-.947.349-.4.7-.5.4-.2.847-.249.847-.149.747-.05h1.2l2.043.149,2.192.5,1.046.4.747.349.8.448.2-.2.448-.548,1.893-2.59.5-.9-.349-.3-.548-.249-.8-.448-.6-.249-.648-.3-.648-.249-1.395-.448-.7-.149L394.8,36l-1.2-.1h-1.245l-.648.1-.9.149-1.345.2-1.594.3-.6.2-1.146.448-.8.448-.6.3-.947.747-.648.6-.349.349-.3.448-.249.548-.4.847-.349,1.1-.149.548-.1,1.594.1,1.3.1.947.1.5.3.847.2.548.648,1,.6.448.548.4.6.349.548.4,1.993.947,1.495.548.648.149,1.245.249,4.135.4.747.149.947.2,1.1.448.847.7.349.4.4.747.15.648.05,1-.448,1.046-.3.448-.648.6-.7.4-.8.3-.448.1-.7.1-2.889.2-1.893-.1-.8-.2-1.495-.448-2.391-1.245-1.644-1.1-.6.7-.8,1.2-.5.548-1.2,1.1-.349.448.4.349L382.642,64l1.843,1.245,1.744.847,1.495.448,1.245.2,1.544.149h.9l4.583-.3,2.242-.349,2.192-.747,1.146-.6,1.3-.9.947-.9.349-.448.5-.7.249-.448.349-.847.2-.5.3-1.495.1-.747.05-.6-.05-.648Z" transform="translate(-190.996 -18.034)"/></g></g></svg>