<svg xmlns="http://www.w3.org/2000/svg" width="1954.965" height="533.153" viewBox="0 0 1954.965 533.153"><defs><style>.a{opacity:0.3;}.b{fill:#e8ddb8;}</style></defs><g class="a" transform="translate(4245.272 1597.9)"><path class="b" d="M-2290.307-1194.263c-4.824-2.278-9.44-5.619-14.515-6.605-9.33-1.813-18.85-4.841-28.326.656a93.884,93.884,0,0,1-42.6,12.935c-6.452.343-12.872,1.288-19.876.624,5.893-2.194,11.755-4.474,17.688-6.556,5.737-2.012,11.516-5.251,17.331-5.376,8.341-.179,13.082-6.694,20.072-8.9,1.575-.5,2.6-2.718,4.467-4.8,15.58.6,30.177-7.376,45.757-11.3v8.554l-22.453,7.806q.18.77.362,1.539l22.091,7.76Z"/><path class="b" d="M-2290.307-1464.293c-4.625,1.9-8.9,3.9-7.182,10.364a13.356,13.356,0,0,1-.171,6.042c-.9,4.08-3.07,5.516-7.006,2.893-8.386-5.589-9.868-9.659-6.389-20.577-15.393,3.584-30.011-2.373-45.439.548-18.422,3.488-37.484,3.582-56.261,5.211-8.5.738-17.02,1.376-25.438,2.666-1.809.277-3.612,2.956-4.7,4.926-1,1.821-1.038,4.175-1.5,6.295l-2.265-.067q-2.424-4.616-4.847-9.233l-.073.167c.563-.225,1.372-.285,1.653-.7,5.558-8.272,14.41-4.99,21.772-5.722q38.435-3.822,77.008-6.207c9.256-.583,18.644.252,27.933.97,11.856.916,20.779-3.5,27.343-13.287,1.543-2.3,3.688-4.2,5.557-6.281Z"/><path class="b" d="M-4245.272-1326.224c21.843-1.906,43.708-3.82,64.034-13.025,5.734-2.6,11.121-5.959,16.668-8.97l-.7-1.346-80-7.205v-3.666c10.84,1.461,21.647,3.271,32.528,4.308,19.512,1.858,39.077,3.137,58.6,4.866,34.873,3.086,69.759,1.793,104.64.4,7.991-.319,15.948-1.477,23.921-2.249q.107.816.211,1.63c-5.033.589-10.058,1.586-15.1,1.7-31.872.7-63.749,1.231-95.624,1.759-6.644.111-13.3-.169-19.935.038-2.85.089-4.6,1.436-6.826,4.118a21.474,21.474,0,0,1-16.444,7.858,13.612,13.612,0,0,0-5.3.826c-19.368,8.423-40.021,9.9-60.676,11.4Z"/><path class="b" d="M-3403.416-1064.747c.348-1.981.23-4.205,1.116-5.905,8.96-17.194,20.473-31.875,39.479-38.9a16.341,16.341,0,0,1,4.089-1.169c2.2-.2,4.433-.052,7.8-.052-4.379,1.849-7.9,3.111-11.214,4.777-11.021,5.54-20.045,12.982-26.364,24.064-3.181,5.579-7.821,10.189-7.577,17.18Z"/><path class="b" d="M-2290.307-1075.744c-6,.752-12,1.457-17.989,2.281a18.079,18.079,0,0,0-5.255,1.3c-6.688,3.171-11.551,2.068-16.264-2.953-1.77-1.885-4.875-2.517-8.764-4.4.931,2.689,1.209,3.493,1.647,4.753h-24.241q-.069-.98-.137-1.957c3.061-.325,6.118-.671,9.181-.97,7.588-.744,15.169-1.6,22.773-2.088,1.592-.1,4.262.774,4.743,1.913,2.095,4.966,4.825,2.155,7.511.609h-5.17c2.551-5.909,7.366-.348,9.828-2.809,6.045,7.042,11.634-.1,17.429-.6a29.453,29.453,0,0,0,4.708-1.184Z"/><path class="b" d="M-2290.307-1393.425c-.192-.068-.38-.147-.574-.2-12.2-3.609-16.44-1.355-19.745,10.468-.414,1.482-.894,2.944-1.342,4.416l-1.874.554-8.509-16.04,8.978-1.645c-.029-.307-.056-.613-.084-.919l-16.2,1.091-.791-1.788c1.718-.977,3.362-2.615,5.164-2.811,6.611-.721,13.37-1.83,19.887-1.11,5.172.572,10.072,3.6,15.094,5.544Z"/><path class="b" d="M-4245.272-1416.641l47.464,4.072.174,1.332a71.046,71.046,0,0,1-8.322,1.1c-10.281.186-20.572.388-30.845.085-2.85-.084-5.649-1.9-8.471-2.922Z"/><path class="b" d="M-2290.307-1400.756q-14.516-5.981-29.026-11.959c-1.25-.514-2.513-.995-3.77-1.491q-.016-.84-.032-1.682l16.681-1.753c-.444,2.574-.774,4.484-1.167,6.766,5.382,3.653,11.19,4.008,17.314,1.566Z"/><path class="b" d="M-2579.887-1064.747c.58-5.57.311-10.733,5.109-15.73,4.2-4.366,7.5-4.225,12.342-3.4-3.164,3.346-6.67,6-8.661,9.507-1.5,2.635-1.044,6.373-1.459,9.621Z"/><path class="b" d="M-2770.5-1064.747c4.33-1.591,8.769-2.947,12.954-4.855,2.9-1.325,5.46-3.411,8.171-5.157l-.163.154,16.777,2.867-25.52,6.991Z"/><path class="b" d="M-2926.656-1332.566c-4.905.324-10.179-.4-14.646,1.176-11.845,4.171-23.379,9.249-34.96,14.145a121.97,121.97,0,0,0-12.932,6.419c-5.42,3.1-7.595,8.187-7.491,14.68l-5.445.5-2.7,6.99c11.673-10.674,28.007-7.074,40.674-14.583l.852,2.138c-3.853,1.577-7.589,3.623-11.587,4.613-5.312,1.316-11.033,1.188-16.178,2.889-3.008.995-7.077,4.075-7.461,6.687-1.009,6.871-5.216,7.737-10.531,8.029-1.184.065-2.359.292-3.532.444l-3.3,14.938c-3.041-3.869-5.937-6.53-7.51-9.823-1.793-3.752-4.347-4.441-7.843-3.994-9.056,1.157-18.11,2.343-27.593,3.573.322-1.241.561-2.165.608-2.344-12.928,3.069-25.892,6.121-39.438,6.464-11.342.287-22.678,1.088-34,1.893-16.156,1.147-32.308,2.381-48.441,3.811-14.779,1.31-29.534,2.894-44.292,4.424-12.326,1.279-24.625,2.869-36.973,3.873-4.532.369-9.389-.121-11.834-6.338,6.59,0,12.69.391,18.722-.077,15.537-1.2,31.049-2.745,46.563-4.225,21.225-2.026,42.439-4.171,63.667-6.159,10.284-.963,20.609-2.558,30.88-2.325,18.178.413,35.732-3.93,53.607-5.689,14.523-1.429,28.957-3.79,43.412-5.863,2.078-.3,4.056-1.3,7.75-2.538l-8.008-3.72c-4.558-15.5,8.655-19.771,17.47-27.42-84.1-6.724-167.26-16.983-248.225-40.284q.081-1.24.162-2.48c1.786.115,3.7-.145,5.338.407,7.808,2.629,15.393,6.06,23.342,8.1,9.146,2.343,18.587,3.536,27.9,5.2,11.917,2.131,23.962,3.716,35.723,6.5,11.356,2.692,20.6-2.7,30.157-6.553a201.248,201.248,0,0,0,28.973-14.193c6.45-3.909,11.776-9.723,17.432-14.875,4.344-3.958,8.311-8.335,12.719-12.215.756-.666,2.885.227,5.376.514l-9.107,8.013c-1.441,2.521-2.312,5.912-4.5,7.537-8.426,6.267-16.833,12.8-26.077,17.658-10.207,5.361-21.324,8.983-32.04,13.374-1.48.606-2.934,1.274-5.7,2.479,5.257,1.51,9.267,3.088,13.424,3.776,12.718,2.1,25.46,4.138,38.253,5.7,24.554,3,49.143,5.721,73.73,8.422,7.222.793,14.489,1.374,21.746,1.529,2.205.048,4.384-1.878,6.681-2.521,13.936-3.9,28.013-7.335,41.8-11.7,4.815-1.523,8.715-5.737,13.428-7.833,11.075-4.925,22.186-9.924,33.666-13.743,10.678-3.552,21.852-5.616,32.977-7.341-13.441,5.423-27,10.587-40.28,16.369-7.355,3.2-14.325,7.32-21.314,11.3-1.4.795-2.091,2.826-3.109,4.288Z"/><path class="b" d="M-3945.679-1501.129c18.566.591,36.947.611,54.472-7.387,13.171-6.01,26.755-11.128,40.253-16.392,3.652-1.424,7.662-1.934,11.359-2.827l-1.845-1.265c13.667-2.548,27.6-5.21,41.556-7.734,30.558-5.525,60.962-12.33,91.736-16.122,38.956-4.8,76.853-14.507,115.251-21.84,8.216-1.569,15.956-5.528,24.025-8.033,2.9-.9,6.177-.51,9.193-1.138,15.245-3.174,30.486-6.372,45.659-9.865,2.6-.6,4.869-2.663,7.5-4.168,2.853,3.366,2.064,5.587-1.781,6.682-8.593,2.447-17.183,4.939-25.868,7.021-25.971,6.228-51.987,12.266-77.982,18.392-.947.223-1.86.6-3.916,1.263l7.376,4.825.139-.162c-2.776-.476-5.807-.4-8.282-1.53-9.48-4.34-18.346-.279-27.231,1.787-14.62,3.4-29,7.868-43.679,10.955-4.537.954-9.711-1.679-14.59-1.665a108.785,108.785,0,0,0-19.765,1.689c-16.483,3.111-32.495,7.939-49.376,9.923-19.172,2.253-37.93,8.178-56.8,12.772-11.026,2.685-21.926,5.887-32.88,8.868-.975.266-2.2.331-2.85.964-9.475,9.289-23.056,9.324-34.1,15.158-7.343,3.877-15.467,6.273-23.041,9.252l2.858,1.451c-.255.375-.495.978-.682.963-8.6-.737-14.231,5.8-21.023,9.1-10.524,5.124-22.448,10.1-29.656,18.632-9.332,11.039-22.637,9.057-33.245,15.139-10.521,6.031-23.334,7.921-34.817,12.452-17.376,6.856-34.471,14.426-51.685,21.694q.167,1.32.332,2.642l31.4,4.711c-5.322,3.611-9.662,6.557-14.114,9.579,9.762.453,2.5,7.835,4.383,11.852l-.887,1.623c-3.693-2.2-8.5-3.581-10.836-6.772-4.152-5.672.5-10.494,5.017-16.058-41.106-5.435-81.567-3.974-121.8-5.742q-.007-1.446-.014-2.893a39.235,39.235,0,0,1,5.357-.577q32.895.862,65.787,1.864c6.251.193,12.519,1.089,18.731.76,2.992-.158,5.911-2.339,8.8-3.736,7.666-3.711,15.1-7.995,23-11.116,8.6-3.4,17.8-5.289,26.414-8.671,11.072-4.349,21.972-9.22,32.622-14.517,3.83-1.905,6.562-5.908,10.093-8.559,2.363-1.773,4.94-4.175,7.361.905.933,1.957,5.041,2.4,8.592,3.913v-10.371l65.262-33.353q-.351-1.461-.7-2.924l-24.571,1.531c1.2-1.017,2.431-2.056,3.659-3.093Z"/><path class="b" d="M-2748.313-1090.338c-.227-3.676,1.986-5.583,5.992-7.2,7.294-2.938,14.181-6.884,21.28-10.321,1.185-.573,2.629-.587,3.881-1.055,5.176-1.938,10.65-1.976,14.632-7.873,3.029-4.487,9.767-6.874,15.283-9.165,5.655-2.348,12.1-2.826,17.7-5.256,6.087-2.638,11.609-6.583,18.57-10.656l-40.782-5.753q-.137-1.08-.275-2.162c1.549-.532,3.2-1.719,4.631-1.5,15.207,2.353,30.312,5.918,45.595,6.969,6.3.433,12.994-4.328,19.441-6.9,1.439-.573,2.458-2.314,3.9-2.741,8.371-2.481,16.731-5.088,25.246-6.965,10.47-2.308,21.082-3.985,31.645-5.857,25.174-4.461,50.305-9.2,75.559-13.151,10.079-1.577,20.454-1.177,30.66-2.077,5.256-.464,10.412-1.956,15.651-2.718,14.862-2.16,29.742-4.184,44.564-6.254-12.122,8.074-12.126,8.023-37.957,10.155-9.323.769-18.65,1.631-27.908,2.929-2.484.349-4.722,2.46-8.269,4.425-9.713-7.891-21.017-.213-32.162,1.514-30.907,4.789-61.689,10.4-92.509,15.742-6.665,1.155-12.174,4.057-17.741,8.413-10.754,8.413-22.852,14.9-38.755,9.3.97,2.355,1.609,3.91,2.2,5.333l-41.952,18.629c.786,1.342,1.3,2.211,1.031,1.761-4.273,1.22-8.625,2.013-12.6,3.694-7.847,3.315-15.535,7.022-23.178,10.792-2.121,1.046-3.676,3.24-5.8,4.284-5.452,2.682-9.177,11.905-17.574,3.65"/><path class="b" d="M-2793.065-1194.355l-17.575-6.8,5.453-4.3-3.68-3.447c27.561-7.022,54.115-13.789,80.669-20.556q.011-.645.021-1.291l-9.7-3.178q-.093-.574-.187-1.148c1.691-.437,3.892-1.787,4.993-1.171,9.976,5.588,20.311,2.573,30.366,1.2a419.045,419.045,0,0,0,41.934-7.52c11.967-2.893,23.489-7.591,35.286-11.242,3.752-1.161,7.83-1.244,11.623-2.305,7.24-2.024,14.67-2.17,21.846-6.233,4.759-2.694,10.964-5.892,17.4-5.92,1.284,5.944-.047,7.744-9.054,8.78-4.378.505-7.259.77-9.835,5.356-1.487,2.648-7.089,3.329-11,4.179-4.166.905-8.516.966-13.02,1.419-1.028.782-2.592,2.827-4.551,3.33-17.282,4.437-34.573,8.881-51.988,12.749-12.477,2.77-25.137,4.729-37.747,6.857-1.561.264-3.306-.781-4.994-1.009-3.153-.427-6.326-.7-9.49-1.037q-.115.876-.231,1.753l6.687,2.04c-21.533,4.306-41.379,8.228-61.2,12.287-3.187.653-7.364-.477-6.88,6.025.28,3.749-3.482,7.8-5.157,11.172"/><path class="b" d="M-3081.988-1478.992c2.608,1.919,4.771,3.509,6.771,4.979-4.061,1.051-8.9,2.388-13.781,3.55-24.691,5.876-49.438,11.53-74.064,17.668-6.742,1.681-13.652,2.613-20.244,4.232-14.648,3.6-28.768,9.335-43.1,14.2-7.291,2.473-14.429,5.657-21.9,7.279-25.476,5.526-48.348,17.572-71.906,27.912-6.765,2.968-12.768,6.7-11.187,15.806.2,1.176-.747,2.552-1.747,5.641-3.937-4.015-8.781-6.794-9.54-10.428-.581-2.782,3.237-8.01,6.418-9.781,12.3-6.845,24.913-13.231,37.82-18.848a343.958,343.958,0,0,1,35.749-13.157c24.211-7.476,48.527-14.656,72.975-21.312,17.014-4.633,34.387-7.935,51.475-12.313,12.574-3.223,24.915-7.331,37.419-10.836,6.634-1.861,13.393-3.274,18.85-4.59"/><path class="b" d="M-2477.184-1342.035c-47.367,2.148-92.439,4.19-137.512,6.233l-.474-3.183c2.174-.581,4.338-1.626,6.524-1.672,18.27-.384,36.551-.352,54.814-.894,26.311-.781,52.61-1.991,78.919-2.892,6.054-.208,13.175-1.631,12.934,8.369-.025,1.006,1.713,2.054,3.823,4.413-5.4,4.405-10.448,8.905-15.917,12.818a24.852,24.852,0,0,1-8.974,3.69c-14.239,3.143-23.8,11.423-28.494,25.457-3.351-1.22-6.919-1.786-9.535-3.675-2.648-1.914-4.352-5.134-6.43-7.732,2.256-3.987,4.705-8.316,7.156-12.646l1.317.632c-.173,1.432-.816,3.064-.33,4.218.261.618,2.468.415,3.8.582.149-7.912,7.436-6.99,11.86-9.686,7.189-4.381,14.5-8.653,21.191-13.712,2.358-1.783,3.071-5.743,5.331-10.32"/><path class="b" d="M-3620.16-1320.888c-10.916,3.462-21.887,4.408-33.478,3.711-21.037-1.266-42.176-2.9-63.173,2.2-6.672,1.621-14.062.149-21.109.44-2.153.088-5.405.717-6.18,2.16-2.954,5.49-7.827,6.48-13.167,7.24-6.823.971-13.724,1.741-20.384,3.418-7.3,1.837-9.946,5.958-10.257,13.671-.023.576.151,1.438-.155,1.684-11.093,8.912-8.2,21.884-9.979,33.551-.536,3.511-2.427,6.815-3.79,10.462-3.351-2.967-7.245-4.827-7.464-7.049-.222-2.264,3.171-4.884,5.315-7.8-1.851-4.787-4.537-10.692-6.292-16.862-.573-2.014,1.189-4.755,2.085-7.086.246-.639,1.664-.9,1.795-1.5,1.811-8.289,7.137-13.1,14.789-16.155,1-.4.763-3.9,1.248-6.873,6.723-.9,13.893-1.82,21.046-2.855a17.369,17.369,0,0,0,4.537-1.352c10.3-4.616,20.441-9.073,32.134-9.91,19.9-1.424,39.7-4.09,59.8-6.261a3.252,3.252,0,0,1-.459,1.335,16.98,16.98,0,0,1-2.62,2.081c2.669.619,4.352,1.35,6.034,1.346,13.713-.039,27.425-.266,41.138-.307a83.306,83.306,0,0,1,8.466.809Z"/><path class="b" d="M-2926.664-1332.548c4.068-.476,8.392-2.079,12.161-1.23,14.425,3.249,28.55,7.92,43.046,10.713,5.642,1.086,12-1.234,17.98-2.286,12.416-2.182,24.793-4.577,37.2-6.814a7.153,7.153,0,0,1,4.38.7l-49.633,9.352-.18,1.559c2.336.9,4.7,1.717,7,2.7,10.446,4.463,20.775,9.224,31.355,13.34,4.175,1.626,8.9,1.809,13.355,2.764a4.447,4.447,0,0,1,2.594,1.416c2.129,3.081,3.394,2.844,4.683-.653.331-.9,1.992-1.72,3.121-1.844,32.549-3.549,65.114-6.952,97.663-10.5,17.963-1.959,35.894-4.218,53.859-6.162a107.466,107.466,0,0,1,13.339-.273c1.174.02,2.333.884,4.533,1.784a934.69,934.69,0,0,1-98.58,12.406l1.846,4.451c-.619.031-1.119.217-1.413.048-11.253-6.439-22.458-.276-33.658.22-9.036.4-18.063,1.372-27.048,2.475-6.367.782-12.639,2.308-18.985,3.3-2.93.456-5.934.42-9.826.667,2.026-4.791-.018-5.6-3.592-6.918-9.8-3.611-19.071-8.684-28.888-12.255-7.8-2.839-16.144-4.186-24.18-6.429-13.976-3.9-27.864-8.121-41.874-11.891-3.239-.872-6.821-.473-10.248-.657l-.011.021"/><path class="b" d="M-3511.971-1398.552c23.686,5.441,47.348,10.99,71.073,16.258,7.287,1.617,14.74,2.5,22.129,3.649,16.966,2.633,33.92,5.371,50.921,7.763,9.437,1.327,18.941,2.408,28.451,2.861,3.755.179,7.6-1.65,11.411-2.565l-.107-.128c1.018,4.309-1.677,6.326-5.107,6.934-6.169,1.091-12.45,1.534-18.671,2.346a45.113,45.113,0,0,0-5.158,1.208c-11.006,2.782-21.906,7.181-33.046,7.909-11.231.733-19.6,7.764-30.39,8.306q.021,1.3.039,2.611l20.662,7.33q-.029.552-.057,1.107c-1.161.094-2.4.5-3.469.231-6.205-1.582-12.138-4.933-18.9-2.656a1.47,1.47,0,0,1-1.116-.325c-7.24-5.561-13.381-3.971-18.783,2.8-.184.23-.759.15-2.273.4,4.683-7.04,8.625-13.427,16.971-15.33,11.83-2.7,23.668-5.366,35.425-8.357,7.052-1.794,13.954-4.18,20.926-6.291,3.856-1.168,7.718-2.317,13.464-4.038-4.176-1.124-6.788-2.145-9.487-2.5-12.692-1.662-25.45-2.862-38.106-4.754-18.012-2.692-35.976-5.724-53.922-8.839-13.559-2.353-27.067-5.014-40.575-7.649-2.976-.581-6.179-1.11-8.676-2.643-1.714-1.051-2.389-3.8-3.529-5.784Z"/><path class="b" d="M-2652.968-1354.521l6.444-5.008c2.226,1.163,5.071,6.09,10.063,1.818.837-.717,3.676.906,6.056,1.58,3.047-6.4.434-12.209-1.46-18.409l4.66-2.19c-.035-.373-.072-.746-.107-1.12h-34.972l-.453-.786c1.6-.642,3.171-1.775,4.792-1.846,8.858-.387,17.761-1.117,26.583-.606,20.377,1.179,40.49-1.744,60.708-3.032a8.853,8.853,0,0,1,5.779,1.056,14.18,14.18,0,0,1-2.622,1.823c-3.857,1.564-7.747,3.053-11.671,4.438a4.938,4.938,0,0,1-3.014.133c-12.852-4.411-25.89,1.449-38.781-.7-.513-.086-1.185.785-2.451,1.687l8.844,1.171c-.7,5.532-1.64,10.487-1.849,15.471-.144,3.426-1.192,5.492-4.274,7.163-1.744.946-2.723,3.3-4.046,5.023l7.888.837c-1.016,5.864-2.151,12.408-3.465,19.98l-18.764-11.325a5.187,5.187,0,0,1,1.345-1.04,32.027,32.027,0,0,1,4.284-1.178l-50.845-7.317q.168-1.261.338-2.523c2.753.423,5.5.878,8.259,1.263,9.839,1.376,19.693,2.661,29.52,4.117a12.281,12.281,0,0,0,11.358-4.173c.992-1.067,2.149-3.519,1.694-4.072a6.88,6.88,0,0,0-4.523-2.137c-4.8-.266-9.615-.1-15.318-.1"/><path class="b" d="M-3623.821-1470.739c.491-2.443.9-4.466,1.258-6.261q36.256-2.128,72.412-4.249c14.342-.84,28.76-1.019,43.007-2.669,17.3-2,34.487-5.067,51.662-8.019,9.095-1.564,18.039-3.984,27.107-5.731,1.773-.341,5.229.256,5.45,1.079a4.687,4.687,0,0,1-3.768,6.114c-7.7,1.714-15.367,3.889-23.172,4.779-21.936,2.5-43.918,4.633-65.913,6.57-27.284,2.4-54.6,4.5-81.9,6.656-8.654.685-17.326,1.154-26.14,1.731"/><path class="b" d="M-3925.367-1433.207c2.828-.69,4.862-1.349,6.947-1.67q33.721-5.183,67.458-10.274c27.894-4.241,55.783-8.518,83.693-12.655,1.855-.275,3.858.58,5.806.763,1.43.133,2.883.025,4.325.025q.077-.8.153-1.6l-12.911-3.939.154-.4c6.125.814,12.342,2.732,18.354,2.221,14.348-1.219,28.592-3.64,42.892-5.468,10.234-1.308,20.492-2.441,30.739-3.651q.474,1,.947,2c-1.914,1.137-3.7,2.834-5.769,3.286-3.547.777-7.331.467-10.88,1.237-1.72.373-3.133,2.16-5.877,4.188-10.8-6.387-23.159.337-35.613,2.031-6.189.842-12.31,4.256-18.327,3.939-20.853-1.1-40.556,6.038-61.007,7.407a70.59,70.59,0,0,0-7.521,1.407l3.2,7.363c-6.728,4.167,2.5,6.742.965,11.994-3.585-5.31-6.88-9.853-9.8-14.627-2.072-3.391-4.56-4.578-8.559-3.957-17.286,2.686-34.589,5.276-51.926,7.609-11.67,1.57-23.405,2.662-35.116,3.912-.47.05-1-.47-2.332-1.145"/><path class="b" d="M-2508.146-1481.021q4.719-2.975,9.438-5.95c-3.067-3.637,1.708-5.735,1.512-9.136,5.88,1.335,11.218,2.122,16.023-2.923,1.074-1.129,5.773,1.194,9.168,3.006-9.358,3.036-11.608,9.29-11.116,17.7.2,3.491-1.4,7.088-1.969,9.695,5.465,3.284,10.689,6.421,15.924,9.551.013-.007.143-.093.143-.093-3.68.124-7.731,1.611-10.094-2.969a2.474,2.474,0,0,0-2.085-.734c-2.968.434-5.9,1.387-8.865,1.512-2.988.125-6.008-.506-9.806-.884-.879,5.422-1.733,10.681-2.615,16.113l-5.948.615.125.064c-.236-5.454-.472-10.907-.761-17.588l-40.928,6.108q-.249-.891-.494-1.781c1.612-.671,3.169-1.7,4.843-1.953,9.624-1.434,19.29-2.582,28.9-4.07,2.075-.322,4.582-1.129,5.871-2.6,3.212-3.677,5.837-7.867,8.069-10.973l-5.291-2.782Z"/><path class="b" d="M-3437.131-1237.243c-.74,3.733-1.181,5.951-1.621,8.172l-1.452.355-6.26-10.16,165.165-20.135c-.266,1.8-.64,4.34-1.015,6.883l.483.226c-.59,3.242-1.251,6.474-1.747,9.731a23.38,23.38,0,0,0-.085,7.676c-4.768,8.891-32.136,18.974-51,18.849,10.174-3.093,19.42-5.957,28.7-8.708,7.5-2.226,13.418-6.154,17.2-13.38,2.367-4.523,1.734-8.7-1.16-11.8a11.928,11.928,0,0,0-8.912-3.222c-17.927,2.222-35.744,5.334-53.669,7.574-17.111,2.141-34.3,3.671-51.474,5.293-11.283,1.066-22.6,1.817-33.153,2.651"/><path class="b" d="M-2540.555-1417.419c-1.4.706-2.775,1.976-4.2,2.028-13.368.5-26.742.984-40.118,1.073-10.909.072-21.835-.876-32.728-.533-19.153.6-38.3,1.693-57.423,2.911-6.682.426-13.3,1.835-20.378,2.3l8.341-3.99-2.17-1.3a6.8,6.8,0,0,1,1.806-.666c10.764-.262,21.539-.307,32.292-.8,4.211-.194,8.3-.824,9.2-6.783.322-2.131,4.185-3.728,6.845-5.906-2.455-3.575.048-5.273,3.982-6.4,5.389-1.54,10.726-3.255,17.064-5.195l-3.658-2.348c2.4-2.147,3.936-5.585,8.307-1.883,2.309,1.955,9.775-4.118,12.076-8.59-.551,4.058-.761,8.213-1.865,12.114-.318,1.121-3.173,1.656-4.944,2.2a75.008,75.008,0,0,0-7.622,2.365l-13.145,5.129q.137.629.272,1.257l7.732-1.043c-.447,4.209-.447,4.209-8.048,6.749.95,1.637,1.967,3.24,2.84,4.918.642,1.234,1.1,2.565,1.636,3.852l2.874-3.073c13.535,0,27.04-.123,40.54.065a88.746,88.746,0,0,1,14.58,1.451c3.912.712,8.6-3.139,11.859,1.913.164.253,1.827-.411,2.768-.722,3.358-1.111,6.706-2.253,10.057-3.384q.613,1.149,1.226,2.3"/><path class="b" d="M-2865.889-1408.069l-10.358-3.936c1.034-5.667,3.005-9.488,8.42-10.637a8.861,8.861,0,0,0,4.23-2.319c17.336-17.578,40.413-23.166,62.764-30.363,5.851-1.885,11.439-4.588,17.149-6.916l-.222-1.585-15.417-1.034.059.528,39.7-3.806,1.685,4.193-13.488,3.1c-.4-1.145-.736-2.125-1.249-3.6l-5.881,3.984,5.568,2.569c-9.23,3.281-19.005,6.863-28.851,10.235-19,6.508-37.638,13.824-54.872,24.328a30.325,30.325,0,0,1-5.519,2.508c-7.1,2.556-8.491,7.093-3.871,12.925Z"/><path class="b" d="M-2741.322-1362.063l-16.655-10.1,6.433-3.679-8.562-3.573,8.143-3.177c2.428-5.861,4.779-11.536,7.129-17.213l1.646.69c-.288.644-.594,1.281-.859,1.935-.272.675-.5,1.367-.753,2.052l1.451,1.272c1.457-1.417,3.549-2.593,4.2-4.314.733-1.939.169-4.37.169-6.554l-6.936-4.067q.293-.791.584-1.579c4.9-.2,9.072-10.825,14.636-.211l5.467-2.072c.469,1.447,1.325,2.652,1.093,3.587-2.27,9.139-4.722,18.234-7.124,27.34-.052.2-.075.47-.21.563-6.5,4.46-6.853,12.34-9.852,19.1"/><path class="b" d="M-2986.673-1281.052c-.273-2.221-.466-3.781-.547-4.44l160.586-14.384,3.987,7.494c-10.214,0-20.682,1.439-30.491-.484a36.686,36.686,0,0,0-19.287,1.772c-8.327,3.142-14.875,3.154-23.444,1.6-8.778-1.591-18.428,1.956-27.734,2.893-19.616,1.975-39.257,3.721-58.889,5.536-1.2.11-2.412.014-4.181.014"/><path class="b" d="M-3511.866-1398.7c-3.863,2.964-7.172,3.1-11.872.444-5.445-3.078-12.046-4.112-18.054-6.828h4.067q.075-.511.151-1.023c-1.451-.387-2.882-.9-4.357-1.14-5.657-.931-11.331-1.762-16.992-2.668-.795-.127-2.052-.257-2.257-.741-2.876-6.774-9.98-6.886-15.315-9.656-2.353-1.221-5.415-.992-8.058-1.758-8.61-2.492-17.13-5.309-25.776-7.666-5.987-1.632-12.124-2.714-18.2-4.036-14.954-3.258-30.035-6.037-44.808-9.973-7.159-1.908-13.741-5.983-20.117-10.228,19.7,8.83,40.536,13.3,61.5,16.932,20.713,3.59,40.923,10.131,62.664,12.019.16.2.914,2.02,2.174,2.492a85.68,85.68,0,0,1,19.348,9.865c7.036,4.887,16.288,6.573,24.558,9.7,3.762,1.421,7.482,2.953,11.227,4.424l.111-.156"/><path class="b" d="M-2315.629-1362.419c1.493,3.53,2.595,6.134,3.7,8.738l-1.662,1.848a36.269,36.269,0,0,1,6.432.1c1.486.271,2.809,1.433,4.206,2.2q-.467.977-.932,1.952h-32.838c4.288,1.729,5.36,3.991,4.045,8.44a47.982,47.982,0,0,0-2.249,15.256c.126,3.059,2.929,6.008,4.529,9.007l-1.433,1.445c-1.719-1.581-4.3-2.846-5.01-4.8-3.249-8.869-5.973-17.93-9.266-28.094l-15.9,1.027q-.047.507-.095,1.012l5.244.759c-5.52,4.477-17.95,4.659-23.151.648-1.193-.92-3.232-1.059-4.871-1.026-5.066.1-10.128.478-15.192.7-.35.016-.716-.324-1.072-.5,7.31-4.918,51.8-7.589,56.127-4.242,5.826-1.19,10.749-2.59,15.764-3.114,5.874-.616,10.9-1.5,10.622-9.109-.019-.531,1.445-1.116,3.007-2.247"/><path class="b" d="M-3098.747-1160.683l107.725-20.353c-6.28-5.841-16.284,3.555-21.961-7.39,8.152,4.646,15.376,3.788,22.64,1.883.969-.254,2.584-.818,2.882-.439,5,6.37,10.355.689,15.842.488.622,1.583,1.256,3.193,2.332,5.932l-128.867,23.289q-.3-1.706-.593-3.41"/><path class="b" d="M-3452.726-1340.087c-5.454.424-10.953.541-16.354,1.328-19.678,2.865-39.4,5.559-58.96,9.075-18.248,3.279-36.248,7.951-54.506,11.155-8.63,1.514-17.61,1.03-26.774,1.468.029-5.815,4.34-4.75,6.962-5.2,9.4-1.608,18.887-2.658,28.3-4.189,21.365-3.476,42.66-7.411,64.073-10.553,10.262-1.505,20.735-1.54,31.1-2.411,8.679-.729,17.338-1.7,26-2.572q.079.948.157,1.9"/><path class="b" d="M-2629.329-1482.491c-10.83-3.255-10.4,4.981-12.665,10.935-3.386-.967-6.975-1.113-9.429-2.856-8.274-5.876-14.63-1.145-21.663,2.58-3,1.59-7.011,1.345-10.581,1.787-6.8.843-13.6,1.683-20.421,2.318-3.137.293-6.351-.169-9.477.182-9.407,1.05-18.571,2.847-25.232,10.883l-4.026-3.43,4.384-1.11c-.335-2.318-.637-4.406-1.045-7.231,7.949-.89,16.762-1.608,25.484-2.928,9.8-1.486,19.431-3.857,29.519-1.916a12.125,12.125,0,0,0,8.149-1.953c12.274-8.259,27.162-7.444,40.488-11.978,1.6-.544,3.949,1.118,5.95,1.757q.282,1.482.565,2.96"/><path class="b" d="M-2952.548-1470.933l-3.228,2.639,4.908,2.7c-6.511,3.821-12.792,7.56-19.129,11.2-3.188,1.833-5.719,3.659-.388,7.82-5.323,3.2-10.852,5.408-14.8,9.242-3.407,3.312-6.53,8.291-7.087,12.861-1.023,8.41-4.894,12.1-12.955,12.448-2.78.119-5.541.676-8.31,1.033l-.637-1.4c1.893-.961,3.689-2.333,5.7-2.8,4.463-1.042,5.536-3.261,3.907-7.5a5.046,5.046,0,0,1,.912-5.394c1.71-1.515,4.437-2.754,4.935-4.6,1.38-5.1,5.347-6.354,9.413-7.6,2.917-.894,9.762-4.823,11.326-7.252,3.022-4.692,5.9-9.475,9.371-15.073l-5.249,1.41-.883-1.071c.856-.931,1.646-2.57,2.582-2.658a34.566,34.566,0,0,1,7.841.355c5.219.718,5.8.005,3.98-5.093a5.317,5.317,0,0,1,.143-2.56c.436-2.32.95-4.626,1.432-6.937l-1.516-.351-.951,2.723-.682-.045v-7.834c8.652,1.471,5.325,10.213,9.367,13.733"/><path class="b" d="M-3990.5-1330.2c1.158-5.634,2.555-11.236,3.336-16.922.254-1.854-1.1-3.928-1.718-5.9l-1.964.565c.24,1.081.481,2.163.873,3.93-3.953-.51-8.225,2.593-13.162-1.778l7.031-2.031q-.093-.873-.185-1.746c-8.434-3.021-16.665,2.741-25.7,1.953,5.734-4.979,15.53-.933,18.932-9.806l18.115,1.879a14.9,14.9,0,0,1,4.587-1.316c13.555-.611,27.171-.431,40.665-1.647,13.307-1.2,26.49-3.749,39.732-5.675.948-.138,1.933-.018,3.634,1.441-1.27.733-2.477,1.955-3.819,2.126-16.917,2.162-33.822,4.5-50.8,6.081-8.034.749-16.215.142-24.319-.145-5.273-.187-7.53,1.615-7.959,7.247-.5,6.585-2.353,13.075-3.772,19.572-.225,1.032-1.259,1.888-1.918,2.826l-1.6-.653"/><path class="b" d="M-2972.755-1194.831c6.178,4.419,12.244,7.264,20.664,6.057,34.969-5.012,70.06-9.172,105.107-13.636,5.844-.744,11.694-1.444,17.541-2.165l.348,2.2c-13.208,2.681-26.324,6-39.642,7.909-27.911,4-55.934,7.206-83.894,10.872-6.264.821-19.129-6.219-20.018-11.357Z"/><path class="b" d="M-3193.878-1398.987c6.246,0,12.494.094,18.738-.022,9.288-.172,18.6-.161,27.847-.9a29.18,29.18,0,0,0,12.078-3.648c10.683-6.264,22.36-8.107,33.314-9.145l-27.208,12.983q.085,1.223.174,2.446l61.261,5.828c-2.269.907-3.218,1.648-4.113,1.589-12.141-.812-24.268-1.86-36.413-2.589-8.818-.529-17.686-.355-26.481-1.1-6.507-.55-13.287-3.926-19.318-2.769-12.454,2.387-24.43-.885-36.612-.686a23.523,23.523,0,0,1-3.3-.4q.015-.8.031-1.591"/><path class="b" d="M-4234.842-1263.937l-5.889-5.152q.56-1.023,1.12-2.045c2,1.05,4.415,1.7,5.9,3.236,3.012,3.122,5.687,3.716,10.305,2.949,15.063-2.505,30.323-3.821,45.506-5.613,1.809-.213,3.961-.007,5.342-.92,4.876-3.224,6.111.119,8.239,4.407-11.808,1.878-22.915,3.921-34.1,5.314-6.188.77-12.566.021-18.752.8-3.181.4-6.124,2.662-9.191,4.045a7.21,7.21,0,0,1-2.3.73c-3.3.258-6.609.412-9.914.6l3.738-8.353"/><path class="b" d="M-4065.6-1273.7c-1.25-4.86-4.471-6.125-9.27-5.057-14.633,3.259-29.414,5.235-43.973,4.26-4.317,1.369-8.57,3.012-12.966,4.041a147.165,147.165,0,0,1-17.831,3.222c-2.28.244-4.749-1.284-7.131-2q.006-1.2.011-2.409c4.95-1.236,9.836-3.02,14.863-3.607,15.234-1.779,30.511-3.239,45.8-4.535,8.817-.748,17.692-.792,26.52-1.448,3.779-.281,7.5-1.311,11.251-2q.405.822.809,1.643l-5.607,1.353,2.7,3,4.5-1.5c-3.488,1.268-3.5,10.168-9.855,4.875Z"/><path class="b" d="M-4065.788-1273.872c.065.4-.012.929.216,1.18,7.974,8.778,7.848,20.018,8.916,30.718.587,5.875-.574,11.908-.683,17.875a40.32,40.32,0,0,0,.909,7.807c1.371,7.574-2.012,10.25-9.338,8.062,1.008-2.489,3.039-5.071,2.868-7.5-.781-11.058-1.853-22.121-3.509-33.078-.72-4.764-1.634-8.929,3.939-12.084l-4.369-1.743,3.359-4.761-6.367,1.652c-2.591-4.762-.179-6.866,4.245-7.958l-.186-.173"/><path class="b" d="M-3647.719-1212.8c3.782-.4,7.434-.854,11.1-1.152,9.359-.759,18.764-1.109,28.077-2.237,17.616-2.132,35.155-4.9,52.774-7.011,14-1.675,28.077-2.756,42.186-3.42-14.789,5.3-130.029,16.4-134.135,13.82"/><path class="b" d="M-2560.351-1270.542c19.472-4.432,37.627-11.8,57.566-12.811.269,1.067.755,3,1.287,5.114-9.341,2.041-18.5,4.028-27.658,6.055a23.116,23.116,0,0,0-5.238,1.469c-6.736,3.322-13.469,4.111-20.511.912-1.4-.638-3.18-.459-5.446-.739"/><path class="b" d="M-3348.66-1113.272l42.993-31.588c2.517,5.941.07,10.771-4.993,12.453-5.594,1.859-8.2,6.613-12.52,9.4a176.185,176.185,0,0,1-20.209,10.67c-1.29.611-3.426-.564-5.271-.935"/><path class="b" d="M-2593.569-1451.37c-2.032-1.693-3.874-3.721-6.139-5.007-4.39-2.495-4.941-8.15-.567-10.949.772-.493,2.891.551,4.052,1.364,1.8,1.256,3.172,3.906,4.976,4.157,1.958.271,4.2-1.528,6.74-2.6.069.543.263,2.071.305,2.4l30.517,1.407.378,1.324c-1.268.7-2.863,2.294-3.747,1.967-5.817-2.152-12.589.862-18.031-3.463-.637-.507-2.588.637-3.778,2.427l6.712,3.147c-2.987.588-4.769,1.526-6.112,1.1-4.819-1.544-8.651-1.686-10.99,3.945-.346.836-3.423.538-5.238.764q.462-.992.922-1.984"/><path class="b" d="M-3985.944-1289.215l2.744,5.024c-3.187,0-6.448-.924-8.789.153-12.495,5.751-25.907,5.672-39.119,6.688-6.845.526-13.763.092-22.74.092,2.391-1.735,3.508-3.216,4.774-3.359,12.243-1.383,24.545-2.273,36.759-3.853,8.754-1.132,17.4-3.1,26.371-4.745"/><path class="b" d="M-2906.148-1385.542l-13.841-.674c.016-.768.03-1.535.046-2.3,6.486,0,12.977.15,19.456-.059,3.6-.116,7.2-1.218,10.776-1.129,2.174.055,4.314,1.533,6.712,2.466,3.917-2.88,8.064-5.947,8.59-12.081.152-1.768,2.6-3.34,4.23-5.287,4.423,7.4,2.254,8.194-1.263,13.881-5.967,9.647-13.487,8.061-21.9,6.771-2.574-.4-5.3.233-7.89-.091a22.6,22.6,0,0,1-4.918-1.494"/><path class="b" d="M-4121.386-1460.786c-7.807.441-15.609,1.154-23.42,1.276-27.415.427-54.833.6-82.247,1.031-2.32.036-4.6,1.6-6.939,1.743-2.708.159-5.463-.478-8.2-.77l.192-2.372,120.661-3.1q-.026,1.094-.05,2.189"/><path class="b" d="M-3310.893-1372.721l55.276-8.513c-2.352,5.4-49.32,16.267-54.732,13.767-.273-2.641-.445-4.295-.544-5.254"/><path class="b" d="M-3901.965-1399.368c28.259-2.668,56.17-6.075,80.54-23.414,4.284,3.422,3.969,5.8-1.847,8.677-16.659,8.23-34.547,11.576-52.837,13.182-8.6.755-17.236,1.051-25.856,1.555"/><path class="b" d="M-3685.415-1146.708c12.827,5.741,26.046,10.5,37.441,19.306,5.766,4.457,13.291,6.579,19.825,10.119,6.113,3.313,11.966,7.1,17.934,10.685q-.274.712-.548,1.427c-1.08.094-2.759.684-3.152.21-7.051-8.521-18.538-8.978-26.975-14.968a111.949,111.949,0,0,0-11.471-6.634c-9.877-5.375-18.879-12.666-30.4-14.505-4.375-.7-2.3-3.586-2.482-5.775Z"/><path class="b" d="M-3687.3-1354.254c-5.091-7.76-9.268-14.125-12.776-19.473,2.61-6.112,5.348-12.525,8.46-19.811.886,5.3,1.726,10.326,2.566,15.35.129.773-.024,1.923.43,2.263,8.578,6.427,1.945,13.5,1.32,21.671"/><path class="b" d="M-4077.038-1182.751c7.564-.315,7.558-.315,8.37-10.216.1-1.211.4-2.408.462-3.619.382-7.25,3.035-9.2,10.311-7.823-.941,9.559-1.879,19.088-2.9,29.479-6.218-2.294-10-10.742-16.241-7.821"/><path class="b" d="M-2375.95-1390.712c.361-2.693.646-4.8.933-6.934a9.456,9.456,0,0,1,2.776-.51c10.539,1.878,20.629-1.881,30.967-2.35,3.589-.164,8.51-1.977,9.316,6.16-3.709-.364-7.467-1.876-10.04-.729-4.332,1.929-9.1-3.618-13.452,2.078-1.744,2.284-7.95,1.177-12.127,1.583-2.394.232-4.794.4-8.373.7"/><path class="b" d="M-3999.567-1462.358h-99.85c33.042-6.629,66.394-1.451,99.622-1.569l.228,1.569"/><path class="b" d="M-2298.538-1440.978c.1,2.208.183,3.927.276,5.945-10.457,1.375-20.632,2.609-30.765,4.129-2.251.338-4.294,1.887-6.536,2.5a21.473,21.473,0,0,1-6.343.739c-.457-.015-1.489-2.594-1.158-2.937,1.378-1.434,3.038-3.192,4.838-3.528,13.044-2.436,26.147-4.555,39.688-6.852"/><path class="b" d="M-3883.006-1294.286c.622,3.816-1.777,4.424-4.739,4.525-16.638.565-33.275,1.215-49.917,1.65-2.176.057-4.38-.96-6.571-1.479q.127-1.188.256-2.375c3.466-.306,6.929-.84,10.4-.88,15.285-.173,30.572-.175,45.857-.329a24.739,24.739,0,0,0,4.752-.979Z"/><path class="b" d="M-3637.308-1475.8c1.176,5.5-.752,7.333-5.474,7.732-8.991.757-17.93,2.126-26.9,3.147-1.333.151-2.722-.2-6.2-.512,2.615-2.5,3.888-4.814,5.528-5.112,10.906-1.981,21.891-3.533,33.047-5.255"/><path class="b" d="M-3111.44-1158.909c-1.917.844-3.789,2.279-5.761,2.433-10.5.82-21.014,1.53-31.538,1.888-23.572.8-47.152,1.373-70.729,2.033a4.9,4.9,0,0,1-2.984-.64c36.619-3.251,73.576-1.526,111.012-5.714"/><path class="b" d="M-2409.442-1113.256c3.955,7.034,8.11,2.034,12.222-.341l.762,1.309c-2.651,2.465-4.992,5.456-8.035,7.26-3.742,2.218-6.415,3.969-3.7,8.813a4.968,4.968,0,0,1-.736,4.738,5.675,5.675,0,0,1-4.987.5,7.849,7.849,0,0,1-3.447-3.981c-.608-1.388-.285-3.185-.388-5.059-1.748.142-3.263.265-4.747.387-.894-6.02-.494-6.614,5.74-8.224-.072.867-.172,1.542-.169,2.218,0,.719.1,1.438.293,3.855l7.35-11.41Z"/><path class="b" d="M-3248.516-1378.537c-.186-1.191-.422-2.7-.544-3.474l19.482-7.672c-1.081-2.608-1.908-4.606-2.508-6.054,6.052-.976,11.525-1.86,17-2.742q.192.735.384,1.472l-10.227,2.588q.1.889.213,1.78l10.976-1.62-6.641,7.06c-4.5-2.542-8.031-2.376-10.4,4.181-.829,2.3-5.893,3.426-9.227,4.351-2.422.671-5.18.13-8.51.13"/><path class="b" d="M-2732.073-1374.243c2.185-.814,4.337-2.226,6.561-2.348,17.973-.99,35.96-1.738,55.332-2.622-1.463,1.4-2.36,3.029-3.381,3.11-15.848,1.26-31.715,2.285-47.572,3.446-3.418.25-6.811.821-10.216,1.243Z"/><path class="b" d="M-2330.739-1308.128l4.548,2.164c.062-1.221.121-2.366.18-3.516,8.479.409,13.544-12.02,23.375-4.63v5.265c-3.7,4.182-8.764,5.293-14.8,1.137-.764-.527-3.021.679-4.332,1.491a26.918,26.918,0,0,0-3.623,2.933l1.307,9.169-2.07.67q-2.767-6.783-5.534-13.567l.95-1.116"/><path class="b" d="M-2955.463-1439.085c5.945-.676,11.883-1.6,17.842-1.774.959-.028,3.264,3.8,2.8,5.02a51.434,51.434,0,0,1-6.547,11.443c-.22.3-4.214-1.868-6.212-3.243-.852-.585-.94-2.176-1.614-3.142-1.572-2.252-3.288-4.4-4.947-6.593l-1.318-1.711"/><path class="b" d="M-2421.188-1389.958c-1.279,1.991-2.337,5.476-3.876,5.7-5.548.817-12.355,2.513-16.613.146-4.714-2.621-8.588-2.035-13.01-2-4.917.044-9.835.01-16.647.01,2.328-1.292,3.247-2.218,4.221-2.28,9.76-.623,19.53-1.092,29.3-1.637,2.428-.135,4.855-.587,7.274-.537,3.165.066,6.322.486,9.482.754Z"/><path class="b" d="M-3002.487-1210.246c-5.207-1.1-10.877-.609-14.91-5.4-1.774-2.106-4.032-3.543-1.611-6.475a1.648,1.648,0,0,0,.179-.573c1.946-6.481,3.6-9.113,9.531-14.353.472,9.934-2.228,20.167,6.651,26.935Z"/><path class="b" d="M-3620.278-1320.794l7.415,4.135-7.61,6.164h8.158c-1.249,2.372-2.255,4.283-3.439,6.529l3.116.84c-.712,2.885-1.429,5.786-2.265,9.172-1.082-1.651-2.078-3.174-3.074-4.7l-1.059.576c1.479,2.891,2.958,5.782,5.162,10.088-10.6-7.517-12.524-20.138-6.311-32.878a1.081,1.081,0,0,0-.093.07"/><path class="b" d="M-3085.235-1414.643l57.816-1.949c-9.2,8.428-19.5,3.634-28.589,4.884-9.493,1.307-19.455-.8-29.211-1.418q-.009-.759-.016-1.517"/><path class="b" d="M-3869.308-1292.625l50.942-6.163.366,2.658c-16.37,6.189-34.088,2.915-50.813,6.6l-.5-3.1"/><path class="b" d="M-2477.708-1418.556l-6.748,2.979c-.481,1.793-.855,3.19-1.228,4.587-1.225-1.232-3.577-2.559-3.483-3.681.436-5.235-2.54-4.2-5.742-3.917q-19.364,1.719-38.76,3.059a8.416,8.416,0,0,1-5.5-1.9c20.351.749,40.387-6.753,61.461-1.123"/><path class="b" d="M-3889.464-1369.531l89.505-3.035c-29.824,2.73-59.733,3.206-89.527,6.7q.011-1.828.022-3.661"/><path class="b" d="M-2447.378-1422.382c-1.092-4.015-1.874-8.149-3.366-12.009-1.4-3.627-.787-6.253,2.362-8.3,3.54-2.3,6.738-2.317,9.033,1.608q-1.674,1.043-3.338,2.078c1.286,1.881,2.57,3.761,3.823,5.595-7.369,3.578.974,6.778.684,10.979l-6.293-4.963c-.646,1.883-1.209,3.521-1.771,5.159Z"/><path class="b" d="M-2335.841-1134.411c-3-4.434-8.521-4.9-14.32-1.89,6.926-8.18,22.28-12.856,29.163-8.459l-14.843,10.349"/><path class="b" d="M-2354.936-1211.507c-16.5-4.053-33.035-8.013-49.47-12.334-1.332-.349-2.013-3.178-2.569-5.637,15.8,11.643,35.418,9.529,52.876,14.85q-.417,1.56-.837,3.121"/><path class="b" d="M-2866.043-1407.9c.576-.183,1.5-.2,1.68-.572,4.341-8.85,12.418-7.466,20.034-7.474a8.1,8.1,0,0,0,2.672-1.055l.564,1.794-9.409,2.411c1.5,8.686-6.654,8.5-12.847,11.182-.826-2.113-1.678-4.29-2.535-6.463,0,0-.159.177-.159.177"/><path class="b" d="M-2550.287-1385.207h50.488c.006.511.011,1.019.017,1.53a188.648,188.648,0,0,1-50.5.051q0-.79-.008-1.581"/><path class="b" d="M-4018.882-1398.675c4.405.167,8.81.447,13.217.481,15.392.121,30.785.161,46.179.222,4.221.017,8.441,0,12.662,0l.063,1.7c-3.393,0-6.788-.094-10.178.017-13.174.432-26.359,1.468-39.517,1.193-7.458-.156-14.872-2.424-22.3-3.74Z"/><path class="b" d="M-2734.719-1167.642c13.422,4.469,26.77,8.87,40.038,13.5.5.174.233,2.548.316,3.769-4.925,2.715-6.847-9.527-11.75-2.053-1.125-1.665-1.771-3.783-3.075-4.329-4.161-1.744-8.673-4.286-12.853-3.965-6.211.478-10.941.435-12.676-6.919"/><path class="b" d="M-3775.9-1229.177h78.265q0,.623,0,1.244H-3775.8q-.045-.621-.092-1.244"/><path class="b" d="M-2828.343-1417.173c5.354-.565,10.721-1.032,16.055-1.746a39.725,39.725,0,0,0,5.864-1.691l-.375-1.773-5.065-.995q-.378-.829-.757-1.661l12.55-7.43,1.029,1.6-4.51,3.15,6.114,3.138a76.489,76.489,0,0,1-5.628,5.411c-5.69,4.5-12.131.234-18.154,1.333a69.1,69.1,0,0,1-7.216.585l.093.075"/><path class="b" d="M-2431.771-1232.7c-8.8-2.391-17.736-4.4-26.377-7.285-8-2.67-15.714-6.229-23.5-9.526-.964-.408-1.591-1.614-3.273-3.412,8.148,3.491,14.852,7.126,22.008,9.219,7.613,2.226,15.774,2.539,23.442,4.622,2.924.794,5.143,4.182,7.683,6.388Z"/><path class="b" d="M-3479.975-1446.853l-68.1,18.679q-.22-.82-.442-1.641l68.172-18.8.369,1.758"/><path class="b" d="M-2703.928-1420.852c-6.539,1.471-4.689,12.535-15.707,10.906,2.416-5.491,4.278-10.646,7.124-15.186.421-.673,5.484,1.565,8.4,2.457l.183,1.823"/><path class="b" d="M-2742.423-1235.188q-4.579-.781-9.157-1.566c-9.059-1.552-18.089-3.324-27.192-4.54-3.335-.445-6.844.428-10.449-.734l31.8-3.68q.089.35.181.7l-7.877,2.539,23.165,4.619q-.238,1.332-.474,2.661"/><path class="b" d="M-3685.239-1146.843c-13.727-3.1-24.794-12.72-38.553-15.8-.5-.112-.666-1.73-1.575-4.321,7.939,3.209,14.649,5.773,21.231,8.633a135.742,135.742,0,0,1,13.581,6.749c1.986,1.143,3.43,3.228,5.13,4.879l.186-.143"/><path class="b" d="M-2360.961-1135.831c1.929,7.537-2.343,9.294-6.282,10.979a112.082,112.082,0,0,1-18.53,6.283c3.109-4.44,6.24-7.925,12.271-7.73,2.534.082,5.26-3,7.734-4.856a54.139,54.139,0,0,0,4.807-4.676"/><path class="b" d="M-2742.383-1171.652c-3.239.912-6.9,2.883-10.477,2.734a16.124,16.124,0,0,1-13.661-8.444c4.573-2.738,17.252.575,24.138,5.71"/><path class="b" d="M-3398.646-1209.949c2.856.22,5.713.636,8.567.613,4.59-.039,9.184-.59,13.763-.462,1.72.048,4.184.96,4.889,2.252a5.565,5.565,0,0,1-.766,5.251c-.976.967-3.507.705-5.27.438a7.733,7.733,0,0,1-4.358-1.954c-3.573-3.925-7.828-4.5-12.729-3.624-1.351.244-2.869-.444-4.311-.7q.108-.9.215-1.809"/><path class="b" d="M-3012.849-1483.011c-4.351,8.5-11.614,12.817-17.533,11.007l9.339-7.307c-2.681-1.607-4.513-2.7-6.351-3.811,5.5-4.012,8.931-3.984,14.545.111"/><path class="b" d="M-2348.133-1257.452c2.967-4.939,30.969-5.01,46.106-.457l-7.285-1.028c-2.74-.388-5.489-1.152-8.217-1.085-5.274.131-10.446,3.963-15.943-.22-.87-.661-5.933-2.438-6.595,2.744-.045.353-5.257.046-8.066.046"/><path class="b" d="M-2821.129-1245.411l-33.339,15.054c2.627-7.007,12.022-11.515,33.339-15.054"/><path class="b" d="M-2433.443-1100.749l1.705,2.613h-42.646c4.032-4.432,5.312-4.674,13.5-3.834,4.374.448,8.748.981,13.135,1.177,4.54.2,9.094.044,14.311.044"/><path class="b" d="M-3005.179-1386.956a159.3,159.3,0,0,1-45.352-1.719h45.4q-.027.859-.052,1.719"/><path class="b" d="M-3503.1-1229.919c15.842-4.681,29.277-6.313,35.41-3.759l-35.24,5.878q-.085-1.059-.17-2.119"/><path class="b" d="M-2403.256-1426.378c8.541-1.711,17.029-1.215,26.332.1-1.069,1.5-1.611,2.911-2.149,2.91-7.342-.016-14.688-.149-22.021-.505-.766-.037-1.455-1.676-2.18-2.57Z"/><path class="b" d="M-2360.469-1418.481l-14.977-3.836c3.011-4.839,8.83-6.631,13.113-4.322,3.377,1.82,4.421,4.5,1.864,8.158"/><path class="b" d="M-2551.6-1090.179c6.978-5.6,13.68-11.9,24.269-8.284l-23.391,10.383-.878-2.1"/><path class="b" d="M-2396.306-1145.156c11.172-1.245,19.058,3.948,28.188,6.746-4.657,3.247-10.984,1.647-28.188-6.746"/><path class="b" d="M-2496.2-1383.684c3.678-6.725,14.654.375,13.85-10.995,2.33,2.141,4.056,3.15,4.879,4.653a8.278,8.278,0,0,1,.611,4.967c-.1.6-2,1.284-3.094,1.314-5.1.138-10.2.061-16.246.061"/><path class="b" d="M-2781.538-1437.527c-.783,2.536-2.262,5.092-2.19,7.6.113,4-2.346,4.781-5.158,5.365a3.68,3.68,0,0,1-3.121-.813,3.757,3.757,0,0,1-.041-3.307c1.69-3.179,3.352-6.487,5.7-9.156,1.092-1.245,3.725-1.138,5.661-1.644Z"/><path class="b" d="M-2697.887-1427.089c3.167-12.8,3.578-13.007,14.188-5.986l-12.88,7.7-1.308-1.711"/><path class="b" d="M-2466.044-1379c-3.791.167-7.008,1.6-7.27-4.294h10.23c-.935,5.2-1.792,9.961-2.708,15.053l-5.735-7.071,5.483-3.688"/><path class="b" d="M-3961.932-1127.625l-45.7-17.25q.129-.642.257-1.282c5.016,1.571,10.08,3,15.033,4.749,5.156,1.817,10.236,3.861,15.293,5.94,5.219,2.146,10.371,4.453,15.553,6.69q-.22.576-.44,1.153"/><path class="b" d="M-3400.763-1459.336l33.783-11.878c-1.321,1.45-2.551,4.053-4.416,4.642-9.571,3.021-19.3,5.524-28.983,8.209l-.384-.973"/><path class="b" d="M-2451.572-1455.058l.071-.167c-3.753.962-7.8.59-10.626,4.691-.74,1.075-5.708-.759-8.734-1.258.029-.673.06-1.347.089-2.021q2.4-.531,4.795-1.059,1.071-1.181,2.14-2.362-2.582-.978-5.174-1.946c-.012.009-.142.1-.155.1,3.854.385,7.769.51,11.567,1.24,2.109.4,4.024,1.819,6.027,2.779"/><path class="b" d="M-2776.552-1341.208l47.089-11.675q.193.788.387,1.574l-46.84,11.708Z"/><path class="b" d="M-2720.756-1075.537l33.147-4.686c-3.211,4.965-21.417,7.064-33.147,4.686"/><path class="b" d="M-3766.786-1258.616c-4.659.789-7.341,1.556-10.031,1.589-1.821.022-3.655-.99-5.483-1.539.682-1.518.967-3.666,2.139-4.409,1.792-1.131,4.486-2.2,6.268-1.634,2.193.7,3.842,3.1,7.107,5.993"/><path class="b" d="M-2872.77-1384.467c1.45-.876,2.887-2.488,4.353-2.512,11.886-.208,23.778-.117,35.668-.117q.041.748.08,1.5l-39.253,2.249q-.424-.558-.848-1.118"/><path class="b" d="M-2505.964-1439.634l8.861-6.349,8.252,6.124-8.435,1.373c-.146.962-.366,2.416-.679,4.472l-8-5.62"/><path class="b" d="M-2749.371-1074.759l-13.894-2.927c6.383-7.278,10.9-8.98,14.7-5.98-1.773,1.248-3.46,2.435-5.4,3.8,1.643,1.968,3.025,3.622,4.415,5.271.008-.005.171-.159.171-.159"/><path class="b" d="M-3986.026-1425.826c-10.178,6-35.65.953-49.929-2.634,16.585,2.441,33.1,6.33,49.929,2.634"/><path class="b" d="M-4052.939-1162.887q15.512,5.857,31.022,11.713c.826.312,1.644.639,2.466.96l-.69,1.912c-9.958-3.436-19.958-6.763-29.825-10.443-1.292-.482-1.908-2.776-2.837-4.23Z"/><path class="b" d="M-2561.929-1086.842c-2.683-.434-5.37-.845-8.041-1.341-.233-.043-.362-.643-.756-1.4,3.893-2.227,7.771-4.584,11.807-6.629.748-.379,2.133.5,3.223.794-.315,1.024-.322,2.393-1,3a61.239,61.239,0,0,1-5.723,4.128l.5,1.446"/><path class="b" d="M-2612.333-1098.16h32.765q-.01.868-.02,1.738h-32.7q-.026-.868-.05-1.738"/><path class="b" d="M-2727.55-1354.521c1.186-3.081,1.974-5.128,2.761-7.176.711,6.321,3.963,7.876,9.48,7.048l-2.646-3.761,1.243-1.2,7.5,6.625-1.313,2.384-17.028-3.921"/><path class="b" d="M-2602.863-1410.6a86.88,86.88,0,0,1,10.771-.98c1.058.02,3.161,2.656,2.914,3.145-.8,1.579-2.686,3.975-3.769,3.792-3.483-.591-6.8-2.2-10.174-3.411q.129-1.272.258-2.546"/><path class="b" d="M-2930.664-1419.378c-2.036,3.044-3.017,5.438-4.785,6.834-1.211.956-3.622.958-5.3.562-1.224-.289-2.131-1.922-3.18-2.956,1.235-1.159,2.3-2.949,3.741-3.343,2.764-.755,5.745-.717,9.527-1.1"/><path class="b" d="M-2430.978-1424.126c-1.525-.222-2.663-.388-3.8-.56,4.778-5.543,8.862-.109,13.23.841-6.048,6.131-9.892,6.905-13.273,2.253,1.175-.776,2.331-1.537,3.843-2.534"/><path class="b" d="M-2505.633-1399.7l16.8-2.524c-3.492,5.1-8.065,6.764-12.987,7.1-1.491.1-3.135-2.04-4.708-3.154q.447-.714.9-1.426"/><path class="b" d="M-3725.745-1431.694c-2.851-1.036-6.052-1.556-8.486-3.207-6.81-4.618-13.3-9.7-19.921-14.6q.408-.615.818-1.227l27.449,19.212Z"/><path class="b" d="M-2558.04-1262.242c3.668.735,6.729,2.865,5.259,9.148l-11.3-2.41,6.045-6.738"/><path class="b" d="M-2305.368-1147.506c-12.22,4.414-12.868,4.278-17.589-3.507l17.589,3.507"/><path class="b" d="M-2421.061-1389.8c4.371-4.667,12.342-4.88,15.782-.026l-11.88,2.493q-.477,1.042-.956,2.085-1.533-2.353-3.071-4.71l.125.158"/><path class="b" d="M-4055.788-1383.564l21.844,7.809c-1.056,1.7-2.022,3.266-2.3,3.71l-20.1-10.238.552-1.281"/><path class="b" d="M-2358.507-1414.8l-9.306,3.827c.4.327.793.656,1.479,1.221h-10.444c2.2-4.873,11.829-7.782,18.271-5.048"/><path class="b" d="M-3105.018-1427.518l-31.27-10.706c.148-.458.3-.916.446-1.375q15.71,5.266,31.423,10.531-.3.775-.6,1.55"/><path class="b" d="M-3303.384-1443.436l26.7-4.532.327,1.818-26.56,4.9q-.233-1.091-.467-2.184"/><rect class="b" width="27.339" height="1.731" transform="translate(-2955.646 -1388.947)"/><path class="b" d="M-2508.436-1445.518l-7.56,4.128h-21.491q-.052-.437-.1-.873,14.616-1.611,29.256-3.206c.024.015-.1-.049-.1-.049"/><path class="b" d="M-2824.867-1464.54H-2872.9c0-.186,0-.371,0-.556h48.036c0,.185,0,.37,0,.556"/><path class="b" d="M-3299.711-1154.271l5.521,8.842c-.168.21-.337.419-.506.629-2.122-2.052-4.044-4.385-6.421-6.078-2.588-1.844-5.6-3.092-8.154-5.467l4.686.824c-.715-1.007-1.292-1.819-1.868-2.632q.343-.45.686-.9,3.023,2.536,6.047,5.07l.009-.287"/><path class="b" d="M-3049-1473.23l-5.955-2.005c1.314-5.832.58-5.322,11.98-4.37l-6.025,6.375"/><path class="b" d="M-3723-1373.746l17.774-1.892c-4.516,5.8-11.828,6.34-17.774,1.892"/><path class="b" d="M-3028.031-1413.2l12.012-3.652c.61,6.626-.408,7.072-11.379,5.807l-.633-2.155"/><path class="b" d="M-3965.3-1428.478q16.35-1.762,32.7-3.528.078.708.157,1.417l-32.781,3.427q-.039-.658-.077-1.316"/><path class="b" d="M-3964.753-1283.1c.648-.972,1.3-1.944,2.825-4.235l-7.756.68c.758-3.724,2.682-5.61,6.355-5.095,1.454.2,3.994,2.2,3.838,2.721-.737,2.437-2.236,4.643-3.464,6.932l-1.8-1"/><path class="b" d="M-2525.443-1397.629h16.622q.006.953.013,1.905h-16.7l.063-1.905"/><path class="b" d="M-3745.266-1184.292c-11.449,6.967-7.868-6.849-11.078-7.192l11.078,7.192"/><path class="b" d="M-3305.22-1282.858c6.647.545,8.968,2.963,5.023,8.816l-6.121-3.157c.359-1.853.717-3.693,1.1-5.659"/><path class="b" d="M-2828.435-1417.249l-5.382.86c-.015.269-.028.538-.042.808h16.7c-18.58,2.926-18.58,2.926-21.655-1.633,3.99,0,7.2,0,10.441.02l-.066-.055"/><path class="b" d="M-4052.8-1162.975c-4.237-.535-8.416-.646-11.575-4.614-1.166-1.465-4.424-1.263-7.693-2.056l11.2-.616c2.66,2.5,5.271,4.956,7.9,7.392.024-.018.16-.106.16-.106"/><path class="b" d="M-2447.553-1272.14l-11.75-5.378c9.846-3.507,10.353-3.308,11.75,5.378"/><path class="b" d="M-3002.992-1450.743c2.248-2.818,3.5-4.385,5.469-6.853.927,1.654,2.356,3.195,2.548,4.876.144,1.272-1.242,3.831-2.038,3.869-1.774.084-3.607-1.052-5.979-1.892"/><path class="b" d="M-3587.274-1272.811c-4.579-.03-9.945,2.1-11.458-6.307l12.023,4.8q-.282.756-.565,1.509"/><path class="b" d="M-2846.364-1389.679c-.134-8.945,1.126-9.465,10.658-4.7l-10.658,4.7"/><path class="b" d="M-2457.567-1406.655l15.78,3.545q-.229,1.033-.459,2.065-7.969-1.389-15.939-2.775Z"/><path class="b" d="M-2587.1-1324.455c1.047,2.688,2.014,5.177,3.31,8.505h-9.081l5.771-8.505"/><path class="b" d="M-2464.682-1410.313c-3.558,6.35-7.419,9.718-14.21,8.1l14.21-8.1"/><path class="b" d="M-3416.051-1218.822c-9.2,3.057-11-7.559-17.512-7.221,6.428-.144,10.852,4.378,17.512,7.221"/><path class="b" d="M-3269.313-1153.46h23.857q-.092,1.363-.182,2.729-11.778-1.428-23.579-2.832c-.026.024-.1.1-.1.1"/><path class="b" d="M-3299.711-1154.271l-.009.287c4.408-.472,8.833-1.43,13.224-1.3,5.718.171,11.409,1.208,17.147,1.847a1.707,1.707,0,0,0,.131-.128q-15.22-.376-30.493-.708"/><path class="b" d="M-4223.316-1093.293l24.658,7.255q-.3,1.047-.6,2.094-12.171-4-24.341-7.995c.1-.451.189-.9.284-1.354"/><path class="b" d="M-2466.218-1427.852c1.443,3.784,2.6,6.8,3.973,10.411l-8.724-1.7,4.751-8.714"/><path class="b" d="M-2455.708-1420.275l11.326,3.364-7.852,3.93c-1.523-1.946-3.12-3.985-4.716-6.025Z"/><path class="b" d="M-2474.686-1437.207a63.088,63.088,0,0,1-7.354,2.265,59.881,59.881,0,0,1-7.539.5q-.322-.781-.647-1.562c2.04-.788,4.023-1.977,6.134-2.268a64.39,64.39,0,0,1,8.715-.1Z"/><path class="b" d="M-2409.282-1113.187l-5.53-4.263c1.585-1.015,3.217-2.018,4.8-3.09,1.369-.924,2.684-1.926,4.022-2.894l1.562,1.665c-1.687,2.829-3.375,5.658-5.04,8.5.022.014.182.082.182.082"/><path class="b" d="M-2431.786-1232.695l21.441,2.034-.269,2.663c-2.615-.358-5.277-.515-7.835-1.116-4.472-1.052-8.879-2.376-13.317-3.586a.06.06,0,0,0-.02.005"/><path class="b" d="M-2413.956-1246.314l15.174-8.679c-2.053,6-5.828,8.141-15.174,8.679"/><path class="b" d="M-2413.142-1153.23l12.83,4.663q-.51,1.295-1.02,2.592l-12.782-4.932.972-2.323"/><path class="b" d="M-2476-1103.81l-15.451,3.769q-.267-1.1-.532-2.2l15.373-3.764q.306,1.1.61,2.2"/><path class="b" d="M-3250.623-1361.746l-16.208-7.79q.394-.864.787-1.728l16.451,7q-.515,1.258-1.03,2.516"/><path class="b" d="M-3274.14-1244.731c4.773-.286,8.3-.5,12.524-.75-.576,1.758-.8,4.232-1.573,4.414-1.441.34-3.226-.56-4.811-1.107-1.647-.569-3.227-1.331-6.14-2.557"/><path class="b" d="M-2841.246-1405.448h-7.354l-.981-1.449c1.307-1.164,2.672-3.328,3.906-3.256,1.811.107,3.528,1.813,5.284,2.837Z"/><path class="b" d="M-2417.269-1153.274l-12.008-3.425q.221-.9.444-1.8c4.682-1.637,8.243,1.367,12.065,3.29l-.5,1.937"/><path class="b" d="M-2319.22-1254.4l-21.039,1.724q-.031-.474-.064-.946l20.87-3.221q.117,1.221.233,2.443"/><path class="b" d="M-2972.648-1194.949c-6.526,1.116-13.106-1.406-15.472-7.192,5.8,2.791,10.558,5.076,15.339,7.336.027-.026.133-.144.133-.144"/><path class="b" d="M-3002.647-1210.11l9.11,2.872c-10.518,3.1-10.518,3.1-8.952-3.007l-.158.135"/><path class="b" d="M-3379.751-1322.8l-17.262-6.155.461-1.578,17.387,5.665-.586,2.068"/><path class="b" d="M-2565.153-1441.474H-2546c-6.467,4.3-12.773,3.068-19.155,0"/><path class="b" d="M-3725.885-1431.52l17.323,10.981.168-.164c-6.5-2.531-13.39-4.443-17.357-10.982l-.134.165"/><path class="b" d="M-2403.273-1426.44c-3.908,3.9-3.908,3.9-11.86,1.612,3.232-3.405,3.232-3.405,11.873-1.525a.283.283,0,0,0-.013-.087"/><path class="b" d="M-3998.928-1326.111l9.554.907c.267.33.533.662.8.993-2.254,1.032-4.44,2.461-6.8,2.864-.735.126-1.944-2.526-3.552-4.764"/><path class="b" d="M-3728.01-1169.041l-12.746-7.487q.641-.99,1.282-1.98l12.409,8.1-.945,1.371"/><path class="b" d="M-3882.97-1294.153l5.922-3.828q1.4,3.292,2.8,6.555l-1.494,1.686c-2.41-1.493-4.819-2.986-7.244-4.512-.015-.033.021.1.021.1"/><path class="b" d="M-2647.572-1428.12c.511-1.1,1.022-2.2,1.851-3.982h-7.385q.012-.792.025-1.586h11.737l-5.56,6.022Z"/><path class="b" d="M-3327.985-1370.586a49.5,49.5,0,0,1,6.457-1.148c4.668-.231,5.352,1.252,3.228,5.879q-4.891-2.418-9.78-4.844l.095.113"/><path class="b" d="M-2981.682-1387.458h-14.978q.007-.654.014-1.308h14.971q0,.654-.007,1.308"/><path class="b" d="M-3870.547-1088.743l15.082-3.505.4,1.217q-7.455,2.171-14.911,4.34-.286-1.026-.572-2.052"/><path class="b" d="M-4018.761-1398.8l-23.4-2.619q.12-.827.239-1.652,11.508,2.214,23.03,4.414l.135-.143"/><path class="b" d="M-2823.182-1258.026c-2.037,2.048-8.99-.24-13.967-4.971l13.967,4.971"/><path class="b" d="M-3708.562-1420.539l8.677,4.369-6.29,2.776c-.655-2.13-1.447-4.71-2.229-7.3l-.158.155"/><path class="b" d="M-3794.9-1244.265c-.366.823-1.153,1.727-1.014,2.453a35.015,35.015,0,0,0,1.689,5h-7.005c1.752-3.1,3.236-5.717,4.72-8.338Z"/><path class="b" d="M-2633.2-1098.438h12.312l-.021,1.247h-12.3c0-.416.006-.831.008-1.247"/><path class="b" d="M-2729.084-1357.891l-9.122-1.322q.12-1.059.241-2.119h9.268l-.387,3.441"/><path class="b" d="M-2475.984-1453.513c1.749,7.469.14,8.813-6.43,6.722a28.337,28.337,0,0,0,4.145-3,19.9,19.9,0,0,0,2.285-3.719"/><path class="b" d="M-2958.323-1235.285h18.138c.006.373.01.747.016,1.12h-18.312q.079-.559.158-1.12"/><path class="b" d="M-2435.5-1159.875l-10.509-2.731q.266-1.091.53-2.181l10.538,2.64q-.281,1.135-.559,2.272"/></g></svg>