<svg xmlns="http://www.w3.org/2000/svg" width="359.626" height="343.234" viewBox="0 0 359.626 343.234"><defs><style>.a{fill:#56a145;}.b{fill:#131b3a;}</style></defs><g transform="translate(694.642 -1144.607) rotate(70)"><path class="a" d="M1057.144,930.709C1034.953,904.829,934.276,817,930.578,903.922c-2.577,60.572,92.135,64.05,128.285,36.809-29.738,15.364-135.8,61.708-97.773,110.637,45.226,58.2,86.567-65.747,93.412-93.055-10.115,23.906-31.373,135.077,26.3,117.773,40.326-12.1-.954-68.23-6.787-96.386,15.722,15.289,74.368,90.01,108.445,62.539,43.794-35.306-94.587-77.218-105.771-81.685,17.724,5.687,123.009,36.649,99.373-10.287-16.791-33.349-86.315-11.149-113.871-10.905,27.922-17.463,141.038-139.92,56.759-148.895-81.38-8.67-63.613,107.208-67.837,152.3" transform="translate(0 0)"/><path class="b" d="M1021.742,1058.814c-.857-47.091,5.939-98.326,54.581-118.511A211.231,211.231,0,0,1,1118.54,927.5c16.252-2.982,38.421-5.015,27.542,18.135-29.115,61.959-102.705-19.395-131.011-42.672-13.354-10.99-30.976-27.485-49.419-28.157-17.754-.64-32.522,20.1-32.288,36.782.618,43.79,84.424,41.611,113.018,48.227,21.237,4.9,42.5,12.257,62.883,19.871,18.6,6.933,43.392,15.2,57.157,30.645,8.837,9.92,10.167,21.285-6.858,20.512-12.6-.574-25.266-11.061-34.607-18.568C1106,997.023,1089.5,979,1070.627,963.644a5.047,5.047,0,0,0-8.488,3.517c-1.45,15.3,4.529,31.369,7.489,46.194,1.865,9.306,4.013,19.106,3.279,28.66-1.061,13.76-14.494,24.144-26.508,12.549-20.542-19.818,5.484-68.588,8.444-92.14.76-6.018-7.875-6.045-9.761-1.326-8.718,21.793-19.486,47.184-36.433,63.873-10.481,10.318-40.126,17.772-35.146-6.9,1.984-9.8,12.187-22.845,19.376-29.328,15.621-14.078,45.482-16.906,56.061-36.446,7.746-14.3-.879-33.768-2.24-48.434-2.59-27.9,3.4-52.711,20.423-74.858,7.591-9.871,35.178-41.4,46.609-22.624,6.654,10.937.305,31.731-4.185,42.31-6.473,15.227-17.148,28.227-27.877,40.644-18.148,21.02-38.836,40.67-51.633,65.641-2.912,5.682,5.66,10.724,8.585,5.02,24.7-48.182,96.271-87.319,86.369-149.35-6.306-39.481-46.711-10.185-61.2,6.7-14.241,16.588-24.011,35.8-26.557,57.616a144.529,144.529,0,0,0,.588,37.82c1.4,9.572,7.149,23.394,3.2,32.858-5.833,13.99-29.058,19.54-41.289,26.53a70.717,70.717,0,0,0-23,20.415c-7.936,10.844-20.843,29.562-11.4,43.079,12.085,17.277,38.465,8.36,50.338-3.663,18.232-18.457,29.482-44.492,38.987-68.252q-4.878-.656-9.766-1.321c-3.195,25.421-36.769,97.358,7.388,106,54.563,10.684,17.67-78.879,19.792-101.265q-4.242,1.75-8.484,3.513c19.584,15.934,36.711,34.67,56.511,50.356,12.231,9.681,27.878,21.391,44.435,19.919,35.571-3.159,11.312-37.882-4.834-48.425-32.893-21.466-76.807-35.456-115.082-43.277-29.053-5.935-63.524-4.423-89.365-20.918C939.841,918.475,940.19,894.3,958.5,885.9c10.127-4.645,22.62,4.317,30.7,9.712,26.733,17.86,48.933,41.854,74.893,60.8,18.051,13.163,43.512,29.6,66.64,19.663,15.262-6.558,40.219-38.076,25.16-54.116-18.581-19.792-70.753,3.256-89.7,11.961-48.46,22.248-55.252,77.479-54.386,124.9.115,6.394,10.057,6.407,9.942,0" transform="translate(9.689 3.238)"/></g></svg>