<svg xmlns="http://www.w3.org/2000/svg" width="1920" height="35.348" viewBox="0 0 1920 35.348"><defs><style>.a{fill:#fffcf1;}</style></defs><g transform="translate(-3810.04 -4707.952)"><path class="a" d="M5724.021,4720.56a.043.043,0,0,1-.04.04c-1.535,0-2.478.05-3.4-.01-6.331-.4-12.751-.26-18.952-1.37-8.277-1.48-16.243-2.33-24.269,1.1-1.294.55-3.792-.22-5-1.24-2.387-2.03-4.755-1.76-7.494-1.38-5.889.8-11.216,4.35-17.467,3.35-3.07-.49-6.2-.62-10.434-1.02h-.02a26.649,26.649,0,0,1-17.326-.18c-2.89-1.07-6.561-.11-9.862.06-6.311.32-12.611.78-18.922,1.09-3.32.17-6.661-.01-9.973.24a13.559,13.559,0,0,1-10.574-3.59c-4.675-4.24-9.651-4.04-15.259-1.74a19.154,19.154,0,0,1-17.166-1.11,2.149,2.149,0,0,0-2.228.08,44.3,44.3,0,0,0-4.374,3.14c-2.959,2.59-6.04,3.82-10.093,2.78-2.368-.61-4.966-.4-7.464-.35-11.347.22-22.694.87-34.021.58-3.942-.1-8.056-2.01-11.668-3.91a14.041,14.041,0,0,0-12.49-.54c-2.789,1.12-5.578,2.27-8.287,3.37a2.714,2.714,0,0,1-2.388-.16c-5.949-3.39-11.849-1.45-17.758-.02a32.95,32.95,0,0,1-7.233,1.32,140.746,140.746,0,0,1-17.446-.5c-4.234-.48-8.357-1.93-12.381-3.28-2.3-.24-5.869-.62-8.167-.87a46.437,46.437,0,0,1-25.453-4.85c-5.769-2.9-10.825-3.15-16.3.66a9.569,9.569,0,0,1-8.989,1.53c-2.388-.83-5.267-.28-7.926-.31a51.727,51.727,0,0,0-7.775-.07c-3.853.35-33.74,3.97-38.084,3.44s-2.6-.07-3.7-.37c-6.882-1.86-13.012-.14-19.262,2.97-2.689,1.34-6.491,1-9.691.61a37.474,37.474,0,0,1-10.093-2.84c-5.588-2.39-11.157-1.25-15.932,1.03a19.368,19.368,0,0,1-16.012.5c-9.542-3.77-19.794-2.61-29.667-5.64a.036.036,0,0,0-.05.02,5.727,5.727,0,0,1-7.564,2.92c-5.7-2.14-11.237-2-16.985-.5-7.3,1.9-14.577.68-21.871-.48-2.729-.43-5.588.02-8.4.03-4.705.02-9.41.01-14.417.01a2.612,2.612,0,0,0-2.588,1.95c-.481,2.07-2.418,2.23-4.334,2.32-7.163.31-14.6,1.84-21.419.46-6.361-1.28-12.029.13-18.039.28-22.042.57-44.093.5-66.145.58a19.406,19.406,0,0,1-4.816-1.12,121.975,121.975,0,0,0-26.115-3.5c-6.25-.25-12.44-2.18-18.63-3.48-4.083-.86-8.066-2.46-12.18-2.77-4.394-.35-8.9.28-13.333.74-6.782.7-13.524,1.78-20.316,2.38-4.163.38-8.247.42-12.059,2.67a11.064,11.064,0,0,1-5.778,1.01c-3.813-.13-7.615-.83-11.438-.99-2.187-.09-4.634-.12-6.561.74-4.856,2.18-9.671,3.62-15.019,2.32a4.779,4.779,0,0,0-1.986-.12c-8.377,1.51-16.494-1.1-24.741-1.49-1.966-.09-4,.83-5.989,1.35-2.067.55-4.113,1.72-6.16,1.68-13.815-.24-27.68.04-41.284-3.23a10.379,10.379,0,0,0-4.816.25c-2.739.71-5.337,2.15-8.1,2.54-2.087.29-4.926.09-6.38-1.13-2.639-2.21-5.067-2.09-7.886-1.2-6.17,1.94-12.259,3.84-18.951,3.26-5.388-.47-10.865.09-16.283-.18-3.592-.17-7.144-1.03-10.715-1.51a12.326,12.326,0,0,0-4.465-.22c-10.2,2.65-20.617,1.2-30.92,1.87-6.02.39-11.156-.79-15.561-5.07-3.592-3.49-7.886-2.44-11.718-.7a19.412,19.412,0,0,1-16.032.07c-3.341-1.36-5.89-.87-8.147,1.52-3.581,3.78-7.6,5.06-12.671,3.31-1.5-.53-3.311-.25-4.976-.2-11.5.29-23,.99-34.482.74-3.933-.08-8.1-2-11.638-4-3.962-2.24-7.574-2.1-11.467-.58-2.328.91-4.535,2.16-6.913,2.92-1.5.48-3.562,1.01-4.776.38-5.588-2.9-11.026-1.3-16.554-.13a63.258,63.258,0,0,1-8.7,1.59c-3.993.28-8.016.1-12.029.09-4.956-.01-9.631.03-14.437-2.65-3.572-2-8.568-1.48-12.953-1.97-1.3-.14-2.779.49-3.953.09-7.063-2.42-14.9-2.19-21.44-6.47-4.344-2.84-9.29-1.31-12.821.89-4.154,2.57-7.5,3.5-12.38,2.48-4.435-.92-9.311.54-13.956.29a93.77,93.77,0,0,1-15.751-2.12c-6.983-1.58-13.354-.59-19.082,3.45a8.992,8.992,0,0,1-7.956,1.6,21.062,21.062,0,0,0-16.433,2.19,13.267,13.267,0,0,1-11.538,1.1c-3.622-1.23-7.435-1.89-11.106-2.99-5.93-1.77-11.347-.18-16.905,1.81-2.688.96-5.809.85-8.748.95a21.58,21.58,0,0,1-4.4-.83c-9.591-1.77-19.172-3.53-29.024-5.35a2.305,2.305,0,0,0-2.368,1.12c-1.114,1.82-3.04,2.18-5.377,1.71-.812-.16-1.666-.2-2.468-.43-4.465-1.3-8.528-1.75-13.464-.27-6.933,2.07-14.447,1.75-21.821.34-4.144-.79-8.548-.19-12.832-.2-3.291-.01-6.592,0-9.913,0a5.923,5.923,0,0,0-5.527,3.78c-.01.02-.021.03-.041.03-8.377.11-17.507,2.03-25.493-.18-7.936-2.19-14.708.88-22.021.67-9.812-.28-19.664.57-29.506.71-10.525.16-21.059.26-31.573-.03-3.22-.09-6.381-1.6-9.591-2.34a36.523,36.523,0,0,0-6.762-1.17l-14.206-1.48c-2.779-.31-4.906-.35-6.952-.8-8.137-1.79-16.233-3.78-24.379-5.53a31.733,31.733,0,0,0-17.657,1.43c-4.745,1.66-10.153,1.57-15.29,1.91-4.474.3-8.889.07-13.132,2.35-2.027,1.09-4.856,1.04-7.314.95-3.943-.15-7.866-.94-11.808-1.11a12.031,12.031,0,0,0-5.237,1.19,25.014,25.014,0,0,1-13.143,2.09c-2.779-.28-5.628.34-8.437.24-4.284-.16-8.588-.43-12.842-.96-5.107-.63-9.812-1.09-14.958,1.42-3.782,1.84-8.809,1.47-13.293,1.52-17.035.19-34.081.17-51.126.2a24.864,24.864,0,0,1-3.11-.49,17.382,17.382,0,0,0-5.99.48c-.02.01-.03.02-.03.04v23.1a.043.043,0,0,0,.04.04H5730a.043.043,0,0,0,.04-.04v-22.7Z"/></g></svg>