<svg xmlns="http://www.w3.org/2000/svg" width="842" height="106.019" viewBox="0 0 842 106.019"><defs><style>.a{fill:#fbd134;}</style></defs><path class="a" d="M789.165,3743.46c109.324,2.551,218.337-4.715,327.561-6.3,54.679-.794,109.532-.56,164.209.313,54.057.863,107.867,4.333,161.9,5.459,62.111,1.293,124.259.547,186.384.527,1.1,0,1.1-98.849,0-98.849-54.868.019-109.748.6-164.609-.153-54.882-.757-109.5-4.264-164.341-5.468-108.719-2.391-217.167-.246-325.751,3.367-61.737,2.053-123.539,3.7-185.35,2.254.617.015-2.814,98.784,0,98.849" transform="translate(-788.041 -3637.98)"/></svg>