<svg width="84" height="92" viewBox="0 0 84 92" fill="none" xmlns="http://www.w3.org/2000/svg">
<path d="M46.808 54.4662C52.4646 56.3006 86.1212 66.1779 78.6262 51.2208C73.2525 40.638 51.0505 47.6932 42.1414 47.6932C51.0505 42.0491 87.2525 2.96318 60.2424 0.141091C37.1919 -2.25768 39.0303 26.5276 38.7474 43.0368C29.4141 33.3006 1.13128 10.4417 -2.97409e-05 36.4049C-0.7071 52.6319 20.6464 56.0184 34.3636 51.5031C21.2121 58.135 -0.282858 70.5521 9.75755 83.3926C21.9192 98.9141 33.0909 73.6564 37.7575 59.9693C34.7878 72.6687 32.9495 95.9509 48.0808 91.2945C60.9495 87.4846 47.7979 69.5644 45.9596 60.5337C50.9091 65.4724 69.7171 89.319 80.606 80.5705C94.606 69.2822 50.3434 55.8773 46.808 54.4662Z" fill="#77C03D"/>
<path d="M81.5959 69.9877C77.7777 65.6135 71.8384 62.9325 66.606 60.6748C68.1616 60.1104 69.7171 59.1227 70.9899 57.9938C72.6868 56.4417 73.9596 54.4662 74.9495 52.3497C75.9394 50.3742 76.9293 48.1165 76.6464 45.7178C75.9394 41.4846 70.8485 40.9202 67.3131 41.2024C61.9394 41.4846 56.707 43.0368 51.7575 44.8711C48.9293 45.8589 46.2424 46.9877 43.6969 48.3988C43.2727 48.1165 42.9899 47.8343 42.5656 47.5521C51.4747 35.9816 64.7676 26.9509 65.4747 11.2883C65.7575 6.77298 64.3434 0.564396 58.5454 1.26992C53.1717 1.83433 48.505 6.49078 45.2525 10.4417C40.7272 15.8037 37.899 21.8711 37.1919 28.9264C36.7677 33.3006 36.9091 37.8159 37.7575 42.1902C37.899 42.7546 38.0404 43.4601 38.1818 44.0245C35.2121 41.4846 32.2424 38.8037 29.1313 36.4049C26.0202 34.0061 22.9091 31.4662 19.3737 29.773C16.6868 28.503 13.7171 27.6564 10.8889 28.9264C9.19189 29.6319 8.06058 31.184 7.07068 32.5951C5.79795 34.4294 4.66664 36.4049 4.2424 38.6626C2.82826 47.9754 15.4141 51.0797 22.202 52.4908C26.4444 53.3374 30.5454 53.9018 34.7879 54.4662C33.9394 54.8895 33.2323 55.3129 32.3838 55.7362C28.707 57.5705 24.8889 59.1227 21.6363 61.6626C19.0909 63.638 16.9697 66.7423 15.4141 69.5644C14.1414 71.8221 12.7272 74.7853 13.4343 77.6073C14.1414 80.7116 17.1111 81.9816 19.9394 82.2638C23.6161 82.6871 26.4444 81.8405 29.1313 79.4417C28.9899 81.8405 28.9899 84.3803 29.1313 86.7791C29.1313 88.7546 32.3838 88.8957 32.3838 86.7791C32.2424 83.2515 32.3838 79.4417 32.6666 75.6319C33.9394 74.0797 35.0707 72.3865 36.0606 70.6932C35.0707 75.2086 34.3636 80.2883 35.9192 84.5215C37.6161 89.1779 43.2727 91.2945 47.798 89.0368C52.606 86.638 52.0404 80.0061 51.4747 75.4908C51.0505 72.1043 50.202 68.7178 49.4949 65.3313C49.2121 63.9202 48.7879 62.3681 48.505 60.8159C53.4545 65.0491 57.8384 69.7055 62.9293 73.9386C67.3131 77.4662 73.3939 82.4049 79.4747 80.8527C82.1616 80.1472 83.8586 78.454 84 75.6319C84.1414 73.5153 83.0101 71.5399 81.5959 69.9877ZM47.798 49.9509C52.3232 47.8343 56.9899 46.2822 61.798 45.2945C64.0606 44.73 66.4646 44.4478 68.8687 44.4478C70.2828 44.4478 72.1212 44.5889 72.9697 45.5767C73.2525 45.8589 73.3939 46.2822 73.3939 46.7055C73.3939 47.5521 73.1111 48.5399 72.6868 49.3865C71.8384 51.503 70.707 53.4785 69.1515 55.1718C66.8889 57.5705 64.0606 58.6994 60.8081 58.2761C59.9596 58.1349 59.1111 57.9938 58.2626 57.7116C57.6969 57.5705 57.1313 57.2883 56.5656 57.1472C54.4444 56.3006 52.3232 55.0307 50.4848 53.9018C48.9293 52.9141 47.5151 51.9264 46.101 50.7975C46.8081 50.3742 47.2323 50.092 47.798 49.9509ZM43.5555 52.4908C43.8384 52.773 44.2626 53.0552 44.5454 53.3374C43.9798 53.1963 43.5555 53.0552 42.9899 52.9141C43.1313 52.6319 43.4141 52.4908 43.5555 52.4908ZM44.404 16.9325C47.2323 12.4172 51.0505 7.90182 55.7171 5.36194C57.1313 4.65642 58.9697 3.9509 60.2424 4.51532C61.6565 5.07973 62.0808 7.1963 62.2222 8.74844C62.7878 16.6503 59.1111 23.4233 54.303 29.4908C50.202 34.5705 45.6767 39.0859 41.4343 44.1656C41.0101 41.908 40.4444 39.6503 40.1616 37.5337C39.5959 30.1963 40.5858 23.1411 44.404 16.9325ZM19.6565 48.5399C15.8384 47.5521 10.8889 46.2822 8.34341 43.0368C5.65654 39.6503 8.34341 35.2761 10.8889 32.5951C11.5959 31.8895 12.5858 31.3251 13.2929 31.3251C14.707 31.184 15.6969 31.4662 17.1111 32.0307C20.6464 33.4417 23.899 35.9816 26.8687 38.3803C30.6868 41.4846 34.3636 44.73 38.0404 47.8343C38.1818 47.9754 38.3232 47.9754 38.3232 48.1165C38.1818 48.3988 37.899 48.681 37.7575 48.8221C37.1919 49.6687 36.6262 50.3742 36.202 51.2208C35.4949 51.0797 34.7879 50.9386 34.2222 50.9386C29.2727 50.3742 24.4646 49.6687 19.6565 48.5399ZM24.1818 78.8773C22.202 79.5828 17.6767 79.5828 16.5454 77.3251C15.5555 75.3497 17.2525 72.5276 18.101 70.9754C19.5151 68.4356 21.3535 65.6135 23.7575 63.7791C26.7272 61.5215 30.2626 60.1104 33.5151 58.4172C33.798 58.2761 34.0808 58.1349 34.2222 57.9938C31.3939 62.7914 29.9798 68.2945 29.2727 74.0797C29.2727 74.2208 29.2727 74.3619 29.2727 74.503C28 76.3374 26.303 78.1718 24.1818 78.8773ZM39.5959 56.1595C38.0404 60.1104 36.202 64.0613 34.0808 67.73C35.0707 63.4969 36.7677 59.546 39.5959 56.1595ZM47.6565 85.5092C45.3939 88.6135 40.303 86.9202 39.0303 83.8159C37.3333 79.4417 38.606 73.7975 39.7373 69.4233C40.7272 65.0491 42.5656 60.6748 42.9899 56.1595C43.8384 56.4417 44.6868 56.5828 45.5353 56.865C45.5353 57.0061 45.3939 57.1472 45.3939 57.2883C44.6868 61.9448 46.5252 67.0245 47.5151 71.5399C48.0808 74.2208 48.6464 76.9018 48.7879 79.5828C48.7879 81.4172 48.7879 83.8159 47.6565 85.5092ZM79.3333 77.6073C77.0707 78.454 74.5252 77.7485 72.5454 76.7607C66.0404 73.6564 60.6666 68.0123 55.4343 63.0736C53.5959 61.3803 51.7575 59.6871 49.7778 57.9938C51.899 58.6994 54.0202 59.4049 56.1414 60.1104C56.707 60.2515 57.1313 60.5337 57.6969 60.6748C60.9495 61.8037 64.202 63.0736 67.3131 64.4846C70.1414 65.7546 72.8283 67.1656 75.3737 68.8589C77.2121 70.1288 79.0505 71.5399 80.1818 73.5153C80.4646 74.2208 80.7474 74.9264 80.7474 75.6319C80.7474 76.7607 80.4646 77.184 79.3333 77.6073Z" fill="#131B3A"/>
</svg>
