<svg width="84" height="92" viewBox="0 0 84 92" fill="none" xmlns="http://www.w3.org/2000/svg">
<path d="M46.8081 54.4663C52.4646 56.3006 86.1212 66.1779 78.6263 51.2209C73.2525 40.638 51.0505 47.6933 42.1414 47.6933C51.0505 42.0491 87.2525 2.96319 60.2424 0.141104C37.1919 -2.25767 39.0303 26.5276 38.7475 43.0368C29.4141 33.3006 1.13131 10.4417 7.76723e-07 36.4049C-0.70707 52.6319 20.6465 56.0184 34.3636 51.5031C21.2121 58.135 -0.282827 70.5522 9.75758 83.3926C21.9192 98.9141 33.0909 73.6564 37.7576 59.9693C34.7879 72.6687 32.9495 95.9509 48.0808 91.2945C60.9495 87.4847 47.798 69.5644 45.9596 60.5338C50.9091 65.4724 69.7172 89.319 80.6061 80.5706C94.6061 69.2822 50.3434 55.8773 46.8081 54.4663Z" fill="#FF9C53"/>
<path d="M81.596 69.9877C77.7778 65.6135 71.8384 62.9325 66.6061 60.6748C68.1616 60.1104 69.7172 59.1227 70.9899 57.9939C72.6869 56.4417 73.9596 54.4663 74.9495 52.3497C75.9394 50.3742 76.9293 48.1166 76.6465 45.7178C75.9394 41.4847 70.8485 40.9202 67.3131 41.2025C61.9394 41.4847 56.7071 43.0368 51.7576 44.8712C48.9293 45.8589 46.2424 46.9877 43.697 48.3988C43.2727 48.1166 42.9899 47.8344 42.5657 47.5521C51.4747 35.9816 64.7677 26.9509 65.4747 11.2883C65.7576 6.77301 64.3434 0.564417 58.5455 1.26994C53.1717 1.83436 48.505 6.4908 45.2525 10.4417C40.7273 15.8037 37.899 21.8712 37.1919 28.9264C36.7677 33.3006 36.9091 37.816 37.7576 42.1902C37.899 42.7546 38.0404 43.4601 38.1818 44.0245C35.2121 41.4847 32.2424 38.8037 29.1313 36.4049C26.0202 34.0061 22.9091 31.4663 19.3737 29.773C16.6869 28.5031 13.7172 27.6564 10.8889 28.9264C9.19192 29.6319 8.0606 31.184 7.0707 32.5951C5.79798 34.4294 4.66666 36.4049 4.24242 38.6626C2.82828 47.9755 15.4141 51.0798 22.202 52.4908C26.4444 53.3374 30.5455 53.9018 34.7879 54.4663C33.9394 54.8896 33.2323 55.3129 32.3838 55.7362C28.7071 57.5706 24.8889 59.1227 21.6364 61.6626C19.0909 63.638 16.9697 66.7423 15.4141 69.5644C14.1414 71.8221 12.7273 74.7853 13.4343 77.6074C14.1414 80.7117 17.1111 81.9816 19.9394 82.2638C23.6162 82.6871 26.4444 81.8405 29.1313 79.4417C28.9899 81.8405 28.9899 84.3804 29.1313 86.7791C29.1313 88.7546 32.3838 88.8957 32.3838 86.7791C32.2424 83.2515 32.3838 79.4417 32.6667 75.6319C33.9394 74.0798 35.0707 72.3865 36.0606 70.6933C35.0707 75.2086 34.3636 80.2883 35.9192 84.5215C37.6162 89.1779 43.2727 91.2945 47.798 89.0368C52.6061 86.638 52.0404 80.0061 51.4747 75.4908C51.0505 72.1043 50.202 68.7178 49.4949 65.3313C49.2121 63.9202 48.7879 62.3681 48.505 60.816C53.4545 65.0491 57.8384 69.7055 62.9293 73.9387C67.3131 77.4663 73.3939 82.4049 79.4747 80.8528C82.1616 80.1472 83.8586 78.454 84 75.6319C84.1414 73.5153 83.0101 71.5399 81.596 69.9877ZM47.798 49.9509C52.3232 47.8344 56.9899 46.2822 61.798 45.2945C64.0606 44.7301 66.4646 44.4479 68.8687 44.4479C70.2828 44.4479 72.1212 44.589 72.9697 45.5767C73.2525 45.8589 73.3939 46.2822 73.3939 46.7055C73.3939 47.5521 73.1111 48.5399 72.6869 49.3865C71.8384 51.5031 70.7071 53.4785 69.1515 55.1718C66.8889 57.5706 64.0606 58.6994 60.8081 58.2761C59.9596 58.135 59.1111 57.9939 58.2626 57.7117C57.697 57.5706 57.1313 57.2883 56.5657 57.1472C54.4444 56.3006 52.3232 55.0307 50.4848 53.9018C48.9293 52.9141 47.5151 51.9264 46.101 50.7975C46.8081 50.3742 47.2323 50.092 47.798 49.9509ZM43.5555 52.4908C43.8384 52.773 44.2626 53.0552 44.5455 53.3374C43.9798 53.1963 43.5556 53.0552 42.9899 52.9141C43.1313 52.6319 43.4141 52.4908 43.5555 52.4908ZM44.404 16.9325C47.2323 12.4172 51.0505 7.90184 55.7172 5.36196C57.1313 4.65644 58.9697 3.95092 60.2424 4.51534C61.6566 5.07975 62.0808 7.19632 62.2222 8.74847C62.7879 16.6503 59.1111 23.4233 54.303 29.4908C50.202 34.5706 45.6768 39.0859 41.4343 44.1656C41.0101 41.908 40.4444 39.6503 40.1616 37.5337C39.596 30.1963 40.5859 23.1411 44.404 16.9325ZM19.6566 48.5399C15.8384 47.5521 10.8889 46.2822 8.34343 43.0368C5.65656 39.6503 8.34343 35.2761 10.8889 32.5951C11.596 31.8896 12.5859 31.3252 13.2929 31.3252C14.7071 31.184 15.697 31.4663 17.1111 32.0307C20.6465 33.4417 23.899 35.9816 26.8687 38.3804C30.6869 41.4847 34.3636 44.7301 38.0404 47.8344C38.1818 47.9755 38.3232 47.9755 38.3232 48.1166C38.1818 48.3988 37.899 48.681 37.7576 48.8221C37.1919 49.6687 36.6263 50.3742 36.202 51.2209C35.4949 51.0798 34.7879 50.9387 34.2222 50.9387C29.2727 50.3742 24.4646 49.6687 19.6566 48.5399ZM24.1818 78.8773C22.202 79.5828 17.6768 79.5828 16.5455 77.3252C15.5556 75.3497 17.2525 72.5276 18.101 70.9755C19.5151 68.4356 21.3535 65.6135 23.7576 63.7791C26.7273 61.5215 30.2626 60.1104 33.5152 58.4172C33.798 58.2761 34.0808 58.135 34.2222 57.9939C31.3939 62.7914 29.9798 68.2945 29.2727 74.0798C29.2727 74.2209 29.2727 74.362 29.2727 74.5031C28 76.3374 26.303 78.1718 24.1818 78.8773ZM39.596 56.1595C38.0404 60.1104 36.202 64.0613 34.0808 67.7301C35.0707 63.4969 36.7677 59.546 39.596 56.1595ZM47.6566 85.5092C45.3939 88.6135 40.303 86.9202 39.0303 83.816C37.3333 79.4417 38.6061 73.7975 39.7374 69.4233C40.7273 65.0491 42.5657 60.6748 42.9899 56.1595C43.8384 56.4417 44.6869 56.5828 45.5354 56.865C45.5354 57.0061 45.3939 57.1472 45.3939 57.2883C44.6869 61.9448 46.5252 67.0245 47.5151 71.5399C48.0808 74.2209 48.6465 76.9018 48.7879 79.5828C48.7879 81.4172 48.7879 83.8159 47.6566 85.5092ZM79.3333 77.6074C77.0707 78.454 74.5252 77.7485 72.5454 76.7607C66.0404 73.6564 60.6667 68.0123 55.4343 63.0736C53.596 61.3804 51.7576 59.6871 49.7778 57.9939C51.899 58.6994 54.0202 59.4049 56.1414 60.1104C56.7071 60.2515 57.1313 60.5337 57.697 60.6748C60.9495 61.8037 64.202 63.0736 67.3131 64.4847C70.1414 65.7546 72.8283 67.1656 75.3737 68.8589C77.2121 70.1288 79.0505 71.5399 80.1818 73.5153C80.4646 74.2209 80.7475 74.9264 80.7475 75.6319C80.7475 76.7607 80.4646 77.184 79.3333 77.6074Z" fill="#131B3A"/>
</svg>
