<svg width="27" height="27" viewBox="0 0 27 27" fill="none" xmlns="http://www.w3.org/2000/svg">
<path d="M8.82073 13.4668C8.82073 10.9668 10.8207 8.96681 13.2207 8.96681C15.6207 8.96681 17.6207 10.9668 17.6207 13.4668C17.6207 15.9668 15.6207 17.9668 13.2207 17.9668C10.8207 17.9668 8.82073 15.9668 8.82073 13.4668ZM6.42073 13.4668C6.42073 17.2668 9.42073 20.3668 13.2207 20.3668C16.9207 20.3668 20.0207 17.2668 20.0207 13.4668C20.0207 9.66681 17.0207 6.56681 13.2207 6.56681C9.42073 6.56681 6.42073 9.66681 6.42073 13.4668ZM18.6207 6.36681C18.6207 7.26681 19.3207 7.96681 20.2207 7.96681C21.1207 7.96681 21.8207 7.26681 21.8207 6.36681C21.8207 5.46681 21.1207 4.76681 20.2207 4.76681C19.3207 4.66681 18.6207 5.46681 18.6207 6.36681ZM7.92073 24.4668C6.62073 24.3668 5.92073 24.1668 5.52073 23.9668C4.32073 23.4668 3.52073 22.5668 3.02073 21.3668C2.22073 19.3668 2.52073 9.56681 2.52073 7.96681C2.62073 6.46681 2.92073 4.96681 3.92073 3.96681C5.22073 2.66681 6.92073 1.96681 18.5207 2.46681C20.0207 2.56681 21.4207 2.86681 22.5207 3.96681C23.8207 5.26681 24.5207 7.06681 23.9207 18.8668C23.8207 20.1668 23.6207 20.8668 23.4207 21.3668C22.2207 24.5668 19.5207 24.9668 7.92073 24.4668ZM7.82073 0.166807C5.62073 0.266807 3.82073 0.766807 2.32073 2.36681C0.720728 3.86681 0.220728 5.76681 0.120728 7.96681C0.0207281 9.36681 -0.279272 19.5668 0.720728 22.2668C1.42073 24.0668 2.82073 25.4668 4.52073 26.1668C5.32073 26.4668 6.32073 26.7668 7.72073 26.7668C19.4207 27.2668 23.7207 26.9668 25.6207 22.1668C25.9207 21.2668 26.1207 20.3668 26.2207 18.8668C26.7207 6.86681 26.1207 4.26681 24.1207 2.16681C22.5207 0.666807 20.6207 -0.433193 7.82073 0.166807Z" fill="white"/>
</svg>
