<svg width="219" height="66" viewBox="0 0 219 66" fill="none" xmlns="http://www.w3.org/2000/svg">
<path d="M70.369 56.0544C70.369 55.5192 70.3021 54.8503 70.3021 54.1814C69.9676 54.2483 69.6332 54.3152 69.3656 54.3821C69.0312 54.449 68.7636 54.5159 68.4291 54.5828C68.2954 54.5828 68.2285 54.5159 68.1616 54.449C68.0947 54.3821 68.0278 54.2483 68.0278 54.1145C68.0278 53.9807 68.0278 53.847 68.0278 53.7132C68.0278 53.5794 68.1616 53.5125 68.2285 53.4456L70.3021 53.0443C70.3021 52.7767 70.369 52.6429 70.5028 52.5091C70.6365 52.4423 70.8372 52.3754 71.0379 52.3754C71.2386 52.3754 71.4392 52.4423 71.573 52.5091C71.7737 52.576 71.9075 52.7098 71.9744 52.7767C73.5797 52.576 75.0513 52.4423 76.3891 52.4423C77.7269 52.4423 78.7972 52.3754 79.4661 52.3085C79.7337 52.3754 79.8006 52.4423 79.8674 52.6429C79.9343 52.8436 79.8006 52.9774 79.533 53.0443C78.7303 53.1112 78.0614 53.1781 77.4594 53.2449C76.8574 53.3118 76.2554 53.3787 75.7202 53.4456C75.1851 53.5125 74.5831 53.5794 74.048 53.6463C73.4459 53.7132 72.8439 53.7801 72.175 53.9138L72.3757 57.8604C72.9777 57.7935 73.5797 57.7266 74.048 57.7266C74.5831 57.6597 75.1182 57.6597 75.6533 57.5928C76.1885 57.5259 76.7236 57.5259 77.3256 57.4591C77.8607 57.3922 78.5296 57.3922 79.1985 57.3253C79.4661 57.3922 79.533 57.4591 79.5999 57.6597C79.5999 57.8604 79.533 57.9942 79.2654 58.0611C78.5965 58.128 77.9276 58.1949 77.3925 58.2617C76.7905 58.3286 76.2554 58.3955 75.7202 58.4624C75.1851 58.5293 74.65 58.5962 74.1149 58.73C73.5797 58.7969 72.9777 58.9306 72.3757 58.9975L72.6433 64.7501C72.6433 64.8839 72.5095 64.9508 72.3757 65.0177C72.175 65.0846 72.0412 65.1515 71.8406 65.1515C71.6399 65.1515 71.4392 65.1515 71.3054 65.0846C71.1048 65.0177 71.0379 64.8839 71.0379 64.6832C70.8372 64.6832 70.4359 56.6564 70.369 56.0544Z" fill="#131B3A"/>
<path d="M79.3323 59.8002C79.4661 59.1313 79.8006 58.5293 80.2688 58.128C80.737 57.7266 81.2722 57.4591 81.8073 57.3922C82.3424 57.3253 82.7437 57.3922 83.1451 57.6597C83.4795 57.9273 83.814 58.1949 84.0816 58.5962C84.3491 58.9975 84.4829 59.3989 84.6167 59.8671C84.7505 60.3354 84.8174 60.7367 84.8842 61.138C85.2856 61.138 85.7538 61.138 86.1552 61.0043C86.5565 60.8705 87.0247 60.536 87.4261 60.0678C87.4261 59.934 87.493 59.8671 87.6268 59.8671C87.6937 59.8002 87.8274 59.8002 87.8943 59.8671C87.9612 59.8671 88.095 59.934 88.095 60.0009C88.1619 60.0678 88.1619 60.2016 88.095 60.3354C88.0281 60.6029 87.8943 60.8036 87.6937 60.9374C87.2923 61.3387 86.8241 61.6063 86.289 61.7401C85.7538 61.8738 85.2856 61.9407 84.8174 61.9407C84.8174 62.8772 84.6167 63.613 84.1485 64.1481C83.6802 64.6832 83.1451 64.9508 82.5431 65.0846C81.9411 65.1515 81.339 65.0846 80.737 64.7501C80.135 64.4157 79.7337 63.8806 79.3992 63.0779C79.2654 62.7434 79.1985 62.2752 79.1317 61.6732C79.1985 61.0043 79.1985 60.4022 79.3323 59.8002ZM82.4762 63.9474C82.7437 64.0143 83.0113 64.0143 83.212 63.8806C83.4127 63.7468 83.6133 63.613 83.7471 63.4123C83.8809 63.2117 84.0147 62.9441 84.0816 62.6765C84.1484 62.409 84.1485 62.1414 84.1485 61.9407C83.8809 61.8738 83.5464 61.8069 83.2789 61.6732C82.9444 61.5394 82.6769 61.3387 82.4093 61.138C82.1417 60.8705 81.9411 60.6029 81.7404 60.3354C81.5397 60.0009 81.4728 59.6664 81.4059 59.2651C81.1384 59.5327 81.0046 59.934 80.8708 60.4022C80.8039 60.8705 80.8039 61.4056 80.8708 61.8738C80.9377 62.3421 81.1384 62.8103 81.4059 63.2117C81.7404 63.5461 82.0748 63.8137 82.4762 63.9474ZM84.0816 61.0043C84.0147 60.536 83.9478 60.0009 83.7471 59.5996C83.5464 59.1313 83.2789 58.7969 83.0113 58.4624C82.8775 58.5293 82.8106 58.6631 82.8106 58.9307C82.8106 59.1982 82.8106 59.4658 82.9444 59.7333C83.0113 60.0009 83.212 60.2685 83.3458 60.536C83.5464 60.8036 83.7471 60.9374 84.0816 61.0043Z" fill="#131B3A"/>
<path d="M88.1619 57.3922C88.1619 57.2584 88.2288 57.1915 88.2956 57.1915C88.3625 57.1915 88.4963 57.1915 88.5632 57.2584C88.9645 57.4591 89.3659 57.5929 89.7672 57.6598C90.1686 57.7267 90.5699 57.7935 90.9044 57.8604C91.2388 57.9273 91.5733 58.0611 91.8408 58.1949C92.1084 58.3287 92.2422 58.5962 92.3091 58.9976C92.376 59.3989 92.4429 59.8003 92.4429 60.2685C92.4429 60.7367 92.4429 61.205 92.5098 61.6063C92.5098 62.0077 92.5766 62.409 92.6435 62.7435C92.7104 63.0779 92.9111 63.2117 93.1118 63.2786C93.3124 63.2786 93.5131 63.2117 93.7138 63.011C93.9145 62.8103 94.1151 62.5428 94.2489 62.2752C94.4496 61.9408 94.5834 61.6732 94.7171 61.2719C94.8509 60.9374 94.9178 60.603 94.9847 60.2685C94.9847 60.1347 95.0516 60.0678 95.1854 60.0009C95.2523 59.934 95.3861 59.934 95.4529 60.0009C95.5198 60.0009 95.5867 60.0678 95.6536 60.1347C95.7205 60.2016 95.7205 60.3354 95.6536 60.4692C95.4529 60.9374 95.3192 61.4056 95.1185 61.807C94.9178 62.2752 94.7171 62.6097 94.5165 62.9441C94.2489 63.2786 93.9813 63.5461 93.58 63.7468C93.2455 63.9475 92.7773 64.0144 92.3091 64.0144C91.5064 64.0144 91.0382 63.5461 90.7706 62.6766C90.7037 62.409 90.6368 62.0745 90.5699 61.807C90.5699 61.4725 90.503 61.205 90.503 60.8705C90.503 60.603 90.503 60.3354 90.503 60.0678V59.5327C90.503 59.2651 90.503 59.1314 90.4361 58.9976C90.3693 58.8638 90.3024 58.7969 90.1686 58.7969C90.0348 58.73 89.901 58.73 89.7004 58.73C89.4997 58.73 89.2321 58.6631 88.9645 58.5293C88.8977 58.6631 88.8308 58.8638 88.697 59.1314C88.5632 59.3989 88.4963 59.6665 88.3625 60.0009C88.2288 60.2685 88.1619 60.5361 88.0281 60.8036C87.9612 61.0712 87.8274 61.2719 87.7605 61.4056C87.4261 62.0745 87.2254 62.3421 87.0247 62.3421C86.8241 62.3421 86.824 62.0077 86.9578 61.3387C87.1585 60.6698 87.2923 59.934 87.493 59.2651C87.8274 58.5293 87.9612 57.9273 88.1619 57.3922Z" fill="#131B3A"/>
<path d="M91.5064 55.4523C91.3058 55.653 91.1051 55.653 90.9713 55.4523C90.8375 55.2517 90.8375 55.1179 90.9713 54.8503C91.1051 54.7165 91.3727 54.5828 91.7071 54.449C92.0416 54.3152 92.376 54.1814 92.7774 54.1145C93.1787 54.0476 93.58 53.9139 93.9814 53.847C94.3827 53.7801 94.7172 53.7132 95.0516 53.7132C95.0516 53.245 94.9847 52.8436 94.9179 52.3754C94.851 51.974 94.7841 51.5058 94.6503 51.0376C94.5834 50.8369 94.6503 50.6362 94.7841 50.5693C94.9179 50.5024 95.1185 50.4355 95.3192 50.3687C95.5199 50.3687 95.7205 50.3687 95.9212 50.4355C96.1219 50.5024 96.2557 50.6362 96.3226 50.77C96.5232 51.2382 96.657 51.7065 96.657 52.1078C96.657 52.576 96.7239 53.0443 96.7239 53.5125C97.7273 53.4456 98.6637 53.3787 99.6671 53.3787H102.61C103.614 53.3787 104.55 53.3787 105.553 53.3118C106.557 53.3118 107.493 53.1781 108.497 52.9774C108.764 52.9774 108.898 53.0443 108.965 53.2449C109.032 53.4456 108.965 53.6463 108.697 53.7132C107.828 53.9139 106.891 54.0476 105.888 54.1145C104.885 54.1814 103.881 54.2483 102.811 54.3152C101.741 54.3821 100.737 54.449 99.6671 54.449C98.6637 54.5159 97.6604 54.5159 96.7239 54.5828C96.7908 55.5192 96.7908 56.5895 96.7908 57.7266C96.7908 58.8638 96.8577 60.0009 96.8577 61.0043C96.9246 62.0076 96.9915 62.8772 97.1252 63.613C97.259 64.2819 97.5266 64.6832 97.861 64.6832C98.0617 64.6832 98.2624 64.5495 98.53 64.215C98.7975 63.8806 99.0651 63.4792 99.3326 63.011C99.6002 62.5427 99.8678 62.0076 100.135 61.4725C100.403 60.9374 100.537 60.4691 100.67 60.0009C100.67 59.8671 100.737 59.8002 100.871 59.7333C100.938 59.6665 101.072 59.6665 101.139 59.7333C101.206 59.7333 101.272 59.8002 101.339 59.934C101.406 60.0009 101.406 60.1347 101.406 60.2685C101.339 60.6029 101.206 61.0043 100.938 61.6063C100.67 62.2083 100.403 62.8103 100.002 63.4123C99.6002 64.0143 99.1989 64.5495 98.7975 65.0177C98.3293 65.4859 97.861 65.6866 97.3928 65.6866C96.9915 65.6866 96.5901 65.5528 96.3226 65.2853C96.055 65.0177 95.8543 64.6832 95.7205 64.3488C95.5868 63.9475 95.453 63.5461 95.3861 63.1448C95.3192 62.7434 95.2523 62.3421 95.2523 62.0745C95.1185 60.9374 95.0516 59.7333 95.0516 58.5962C95.0516 57.3922 95.0516 56.1212 95.0516 54.7834C94.249 54.8503 93.58 54.9172 92.978 55.051C92.3091 55.1179 91.8409 55.2517 91.5064 55.4523Z" fill="#131B3A"/>
<path d="M106.49 64.2819C106.691 64.5495 106.757 64.6163 106.824 64.5495C106.891 64.4826 106.958 64.3488 107.092 64.215C107.226 63.9474 107.426 63.6799 107.56 63.3454C107.694 63.011 107.895 62.6096 108.028 62.2083C108.162 61.8069 108.296 61.4056 108.43 61.0711C108.564 60.6698 108.63 60.3353 108.697 60.0678C108.697 59.934 108.764 59.8671 108.898 59.8002C108.965 59.7333 109.099 59.7333 109.166 59.8002C109.232 59.8002 109.366 59.8671 109.433 59.934C109.5 60.0009 109.5 60.1347 109.433 60.2685C109.366 60.6698 109.232 61.0711 109.032 61.4725C108.898 61.9407 108.697 62.3421 108.497 62.8103C108.296 63.2116 108.095 63.613 107.962 64.0143C107.761 64.3488 107.627 64.6832 107.493 64.8839C107.36 65.0846 107.226 65.2184 107.092 65.3521C106.958 65.4859 106.757 65.6197 106.557 65.6197C106.356 65.6866 106.155 65.6866 105.888 65.6197C105.687 65.5528 105.42 65.3521 105.219 65.0846C104.818 64.6163 104.416 63.9474 104.149 63.1448C103.814 62.3421 103.614 61.5394 103.413 60.7367C103.279 60.9374 103.145 61.2049 102.945 61.4056C102.744 61.6732 102.476 61.8738 102.276 62.0745C102.008 62.2752 101.741 62.409 101.406 62.4758C101.072 62.5427 100.804 62.4758 100.537 62.409C100.403 62.3421 100.269 62.2083 100.202 62.0076C100.135 61.8738 100.135 61.6732 100.135 61.4725C100.135 61.2718 100.135 61.0711 100.202 60.9374C100.269 60.7367 100.269 60.6029 100.336 60.4691C100.403 60.2685 100.537 60.0009 100.737 59.6664C100.938 59.332 101.139 59.0644 101.339 58.7969C101.607 58.5293 101.808 58.2617 102.142 58.128C102.41 57.9273 102.744 57.9273 103.079 57.9942C103.079 57.7935 103.079 57.5928 103.079 57.3922C103.079 57.1915 103.079 56.9908 103.145 56.7901C103.212 56.6564 103.346 56.5895 103.48 56.5226C103.614 56.4557 103.747 56.4557 103.948 56.4557C104.149 56.4557 104.283 56.4557 104.416 56.5226C104.55 56.5895 104.684 56.5895 104.751 56.6564C104.885 56.9239 104.951 57.3253 105.018 57.7935C105.085 58.3286 105.085 58.8638 104.951 59.3989C105.085 60.3353 105.286 61.2049 105.553 62.0745C105.821 63.011 106.089 63.7468 106.49 64.2819ZM101.874 61.4725C102.008 61.4056 102.209 61.2718 102.343 61.0711C102.476 60.8705 102.677 60.6698 102.744 60.4691C102.878 60.2685 102.945 60.0009 103.012 59.8002C103.079 59.5327 103.079 59.332 103.012 59.1313C102.878 59.2651 102.744 59.3989 102.61 59.5995C102.476 59.8002 102.343 60.0009 102.209 60.2016C102.075 60.4022 102.008 60.6698 101.941 60.8705C101.874 61.0711 101.874 61.2718 101.874 61.4725Z" fill="#131B3A"/>
<path d="M111.306 64.9508C110.972 64.8839 110.704 64.6833 110.436 64.4157C110.169 64.1482 109.968 63.8137 109.701 63.4124C109.433 63.011 109.299 62.6097 109.099 62.2083C108.898 61.807 108.764 61.4056 108.63 61.0712C108.296 60.0678 108.162 58.9976 108.095 57.9273C108.028 56.8571 108.095 55.7868 108.229 54.7835C108.229 54.5828 108.296 54.2483 108.363 53.7801C108.43 53.245 108.564 52.7767 108.697 52.2416C108.831 51.7065 109.032 51.2383 109.232 50.8369C109.433 50.4356 109.701 50.2349 109.968 50.2349C110.102 50.2349 110.236 50.3687 110.436 50.6362C110.57 50.9038 110.704 51.1714 110.771 51.5058C110.838 51.8403 110.972 52.1747 111.038 52.5092C111.105 52.8436 111.172 53.1112 111.172 53.3788C111.239 54.6497 111.239 55.7868 111.105 56.8571C110.972 57.9273 110.704 58.9307 110.236 59.8671C110.57 61.2719 110.905 62.3421 111.306 63.0779C111.707 63.8137 112.042 64.1482 112.176 64.1482C112.376 64.1482 112.644 63.9475 112.845 63.613C113.112 63.2786 113.313 62.8103 113.513 62.3421C113.714 61.8739 113.915 61.4056 114.049 61.0043C114.182 60.6029 114.249 60.2685 114.316 60.1347C114.316 60.0009 114.383 59.934 114.517 59.8671C114.584 59.8003 114.717 59.8003 114.784 59.8671C114.851 59.8671 114.985 59.934 115.052 60.0009C115.119 60.0678 115.119 60.2016 115.052 60.3354C114.918 60.8705 114.717 61.4725 114.517 62.0076C114.249 62.5428 113.982 63.1448 113.647 63.6799C113.045 64.6833 112.243 65.1515 111.306 64.9508ZM110.035 58.1949C110.303 57.3253 110.436 56.4557 110.503 55.5193C110.57 54.6497 110.503 53.7132 110.37 52.8436C110.169 53.5794 110.035 54.449 109.968 55.3186C109.901 56.1882 109.901 57.1915 110.035 58.1949Z" fill="#131B3A"/>
<path d="M116.189 57.2584C116.59 57.3253 116.858 57.3922 116.992 57.5929C117.192 57.7935 117.326 57.9942 117.393 58.1949C117.46 58.4625 117.527 58.73 117.46 58.9976C117.393 59.2651 117.326 59.5996 117.192 59.8672C117.059 60.1347 116.858 60.4023 116.657 60.6698C116.457 60.9374 116.256 61.1381 115.988 61.3388C116.189 62.0745 116.524 62.6766 116.858 63.2117C117.192 63.7468 117.661 64.0813 118.129 64.0813C118.463 63.8806 118.731 63.5461 118.998 63.1448C119.266 62.7435 119.467 62.409 119.6 62.1414C119.801 61.7401 119.935 61.3388 120.069 61.0712C120.136 60.7367 120.202 60.4692 120.336 60.0678C120.336 59.9341 120.403 59.8672 120.537 59.8003C120.604 59.7334 120.738 59.7334 120.805 59.8003C120.871 59.8003 120.938 59.8672 121.005 59.934C121.072 60.0009 121.072 60.1347 121.005 60.2685C120.871 60.8036 120.671 61.4056 120.47 61.9408C120.269 62.5428 119.935 63.0779 119.6 63.5461C119.333 63.8806 119.132 64.1482 118.798 64.3488C118.53 64.6164 118.196 64.7502 117.861 64.8171C117.192 64.9509 116.59 64.8171 116.055 64.4826C115.52 64.1482 115.119 63.6799 114.851 63.0779C114.517 62.4759 114.316 61.8739 114.182 61.1381C114.049 60.4023 114.049 59.7334 114.182 59.1314C114.316 58.5293 114.517 57.9942 114.851 57.5929C115.119 57.3922 115.587 57.2584 116.189 57.2584ZM115.788 60.603C116.122 60.3354 116.323 60.0009 116.59 59.5996C116.791 59.1983 116.858 58.8638 116.791 58.5293C116.724 58.3287 116.657 58.1949 116.457 57.9942C116.256 57.8604 116.055 57.7936 115.855 57.7936C115.721 58.128 115.654 58.4625 115.654 58.9976C115.654 59.5327 115.721 60.0678 115.788 60.603Z" fill="#131B3A"/>
<path d="M126.624 60.3354C126.423 60.9374 126.223 61.5394 125.888 62.0745C125.554 62.6097 125.152 63.0779 124.751 63.4792C124.283 63.8806 123.815 64.1481 123.346 64.3488C122.878 64.5495 122.343 64.5495 121.875 64.4157C121.473 64.2819 121.072 64.0144 120.805 63.6799C120.537 63.2786 120.336 62.8772 120.203 62.3421C120.069 61.807 120.002 61.2718 120.069 60.7367C120.069 60.2016 120.136 59.6665 120.269 59.1982C120.47 58.5293 120.738 58.128 121.072 57.9942C121.407 57.8604 121.741 57.8604 122.075 57.9942C122.41 58.128 122.611 58.3955 122.811 58.7969C123.012 59.1313 123.079 59.5327 123.012 59.8671C122.945 60.1347 122.811 60.2016 122.611 60.2016C122.41 60.2016 122.276 60.0678 122.276 59.8671C122.276 59.5327 122.209 59.1982 122.009 58.9307C121.875 59.1313 121.808 59.4658 121.808 59.8671C121.741 60.2685 121.741 60.7367 121.808 61.2049C121.875 61.6732 121.942 62.0745 122.075 62.4759C122.209 62.8772 122.343 63.1448 122.611 63.2786C122.945 63.4792 123.213 63.4792 123.614 63.2786C123.948 63.1448 124.283 62.8772 124.617 62.5428C124.952 62.2083 125.219 61.807 125.487 61.3387C125.754 60.8705 125.888 60.4692 126.022 60.0678C126.022 59.934 126.089 59.8671 126.223 59.8002C126.29 59.7334 126.423 59.7334 126.49 59.8002C126.557 59.8002 126.691 59.8671 126.691 59.934C126.691 60.0678 126.691 60.1347 126.624 60.3354Z" fill="#131B3A"/>
<path d="M127.694 57.2584C128.096 57.3253 128.363 57.3922 128.497 57.5929C128.698 57.7935 128.831 57.9942 128.898 58.1949C128.965 58.4625 129.032 58.73 128.965 58.9976C128.898 59.2651 128.831 59.5996 128.698 59.8672C128.564 60.1347 128.363 60.4023 128.163 60.6698C127.962 60.9374 127.761 61.1381 127.494 61.3388C127.694 62.0745 128.029 62.6766 128.363 63.2117C128.698 63.7468 129.166 64.0813 129.634 64.0813C129.969 63.8806 130.236 63.5461 130.504 63.1448C130.771 62.7435 130.972 62.409 131.106 62.1414C131.306 61.7401 131.44 61.3388 131.574 61.0712C131.641 60.7367 131.708 60.4692 131.842 60.0678C131.842 59.9341 131.908 59.8672 132.042 59.8003C132.109 59.7334 132.243 59.7334 132.31 59.8003C132.377 59.8003 132.444 59.8672 132.51 59.934C132.577 60.0009 132.577 60.1347 132.51 60.2685C132.377 60.8036 132.176 61.4056 131.975 61.9408C131.775 62.5428 131.44 63.0779 131.106 63.5461C130.838 63.8806 130.637 64.1482 130.303 64.3488C130.035 64.6164 129.701 64.7502 129.367 64.8171C128.698 64.9509 128.096 64.8171 127.56 64.4826C127.025 64.1482 126.624 63.6799 126.356 63.0779C126.022 62.4759 125.821 61.8739 125.688 61.1381C125.554 60.4023 125.554 59.7334 125.688 59.1314C125.821 58.5293 126.022 57.9942 126.356 57.5929C126.691 57.3922 127.159 57.2584 127.694 57.2584ZM127.36 60.603C127.694 60.3354 127.895 60.0009 128.163 59.5996C128.363 59.1983 128.43 58.8638 128.363 58.5293C128.296 58.3287 128.229 58.1949 128.029 57.9942C127.828 57.8604 127.627 57.7936 127.427 57.7936C127.293 58.128 127.226 58.4625 127.226 58.9976C127.226 59.5327 127.226 60.0678 127.36 60.603Z" fill="#131B3A"/>
<path d="M141.206 64.4157C141.541 63.9475 141.741 63.2786 141.942 62.409C142.143 61.5394 142.276 60.8036 142.477 60.0678C142.477 59.934 142.544 59.8671 142.678 59.8002C142.745 59.7334 142.878 59.7334 142.945 59.8002C143.012 59.8002 143.079 59.8671 143.146 59.934C143.213 60.0009 143.213 60.1347 143.146 60.2685C143.079 60.6029 143.012 61.0043 142.878 61.6063C142.745 62.2083 142.611 62.8103 142.41 63.4123C142.21 64.0144 142.009 64.5495 141.674 65.0846C141.407 65.5528 141.005 65.8873 140.604 65.9542C140.136 66.0211 139.735 65.8873 139.333 65.5528C138.999 65.2184 138.664 64.7501 138.397 64.1481C138.129 63.5461 137.862 62.8772 137.661 62.2083C137.46 61.4725 137.26 60.8036 137.059 60.2016C136.858 59.5996 136.658 59.0644 136.39 58.6631C136.189 58.2618 135.922 58.0611 135.587 58.0611C135.32 58.0611 135.119 58.3286 134.985 58.7969C134.785 59.2651 134.651 59.8002 134.517 60.4023C134.383 61.0043 134.316 61.5394 134.183 62.1414C134.116 62.6765 133.982 63.0779 133.848 63.2786C133.714 63.4792 133.581 63.613 133.38 63.6799C133.179 63.7468 132.979 63.7468 132.778 63.7468C132.577 63.7468 132.377 63.613 132.243 63.5461C132.109 63.4123 131.975 63.2786 131.908 63.0779C131.708 62.3421 131.574 61.5394 131.44 60.6698C131.373 59.8002 131.239 58.9976 131.106 58.128C131.106 57.8604 131.173 57.7266 131.373 57.6597C131.574 57.5928 131.708 57.5928 131.975 57.5928C132.176 57.5928 132.377 57.7266 132.577 57.7935C132.778 57.9273 132.845 57.9942 132.845 58.128C132.845 58.4624 132.845 58.8638 132.912 59.2651C132.979 59.6665 133.046 60.0678 133.112 60.4023C133.179 60.1347 133.313 59.8002 133.447 59.4658C133.581 59.1313 133.781 58.7969 133.915 58.3955C134.116 58.0611 134.316 57.7935 134.584 57.526C134.852 57.2584 135.119 57.1915 135.454 57.1246C136.056 57.0577 136.524 57.2584 136.992 57.6597C137.46 58.0611 137.862 58.5962 138.196 59.2651C138.531 59.934 138.865 60.6029 139.133 61.3387C139.4 62.0745 139.601 62.6765 139.868 63.2786C140.069 63.8137 140.27 64.215 140.47 64.4826C140.805 64.7501 141.006 64.7502 141.206 64.4157Z" fill="#131B3A"/>
<path d="M142.143 62.0076C141.942 61.4725 141.942 60.9374 142.143 60.4023C142.343 59.8671 142.611 59.3989 143.079 58.9975C143.48 58.5962 143.949 58.3286 144.484 58.128C145.019 57.9273 145.554 57.8604 146.022 57.9273C145.955 57.3922 145.889 56.7233 145.889 55.9206C145.889 55.1179 145.889 54.2483 145.889 53.4456C145.889 52.576 145.889 51.7734 145.889 50.9707C145.889 50.168 145.955 49.566 145.955 49.0977C145.955 48.8971 146.089 48.6964 146.29 48.5626C146.491 48.4288 146.691 48.3619 146.892 48.3619C147.093 48.3619 147.293 48.4288 147.494 48.4957C147.695 48.6295 147.761 48.7633 147.695 49.0308C147.628 49.9673 147.628 50.77 147.761 51.5727C147.895 52.3754 147.962 53.1781 148.096 53.9139C148.163 54.6497 148.23 55.4523 148.297 56.1881C148.297 56.9239 148.23 57.7266 148.029 58.5293C148.096 58.7969 148.163 59.1982 148.23 59.7333C148.363 60.3354 148.497 60.9374 148.631 61.5394C148.765 62.2083 148.965 62.7434 149.166 63.2786C149.367 63.8137 149.567 64.1481 149.701 64.2819C149.969 64.0812 150.17 63.8137 150.37 63.4792C150.571 63.1448 150.705 62.8103 150.838 62.6096C151.039 62.1414 151.24 61.6732 151.44 61.1381C151.641 60.6029 151.775 60.2016 151.842 59.8671C151.842 59.7333 151.909 59.6665 152.042 59.5996C152.109 59.5327 152.243 59.5327 152.31 59.5996C152.377 59.5996 152.511 59.6665 152.511 59.7333C152.578 59.8002 152.578 59.934 152.578 60.0678C152.511 60.4691 152.31 60.9374 152.109 61.4725C151.909 62.0745 151.641 62.6096 151.307 63.2117C150.972 63.8137 150.705 64.2819 150.303 64.6833C149.969 65.0846 149.567 65.3522 149.233 65.3522C148.832 65.3522 148.497 65.2184 148.23 64.8839C147.962 64.5495 147.695 64.1481 147.494 63.6799C147.293 63.2117 147.093 62.6096 146.892 62.0076C146.758 61.4056 146.624 60.8036 146.491 60.2016C146.223 60.6698 145.955 61.1381 145.554 61.6063C145.22 62.0076 144.751 62.409 144.283 62.6765C143.882 62.9441 143.48 63.011 143.079 62.9441C142.678 63.0779 142.343 62.6765 142.143 62.0076ZM145.822 58.7969C145.487 58.8638 145.22 58.9976 144.885 59.1982C144.618 59.3989 144.35 59.6665 144.216 59.934C144.016 60.2016 143.882 60.536 143.815 60.8705C143.748 61.2049 143.748 61.6063 143.882 61.9407C144.417 61.807 144.885 61.4725 145.22 60.8705C145.554 60.3354 145.822 59.7333 146.089 59.1313L145.822 58.7969Z" fill="#131B3A"/>
<path d="M151.775 59.8002C151.909 59.1313 152.243 58.5293 152.711 58.128C153.18 57.7266 153.715 57.4591 154.25 57.3922C154.785 57.3253 155.186 57.3922 155.588 57.6597C155.922 57.9273 156.257 58.1949 156.524 58.5962C156.792 58.9975 156.925 59.3989 157.059 59.8671C157.193 60.3354 157.26 60.7367 157.327 61.138C157.728 61.138 158.196 61.138 158.598 61.0043C158.999 60.8705 159.467 60.536 159.869 60.0678C159.869 59.934 159.936 59.8671 160.069 59.8671C160.136 59.8002 160.27 59.8002 160.337 59.8671C160.404 59.8671 160.538 59.934 160.538 60.0009C160.604 60.0678 160.604 60.2016 160.538 60.3354C160.471 60.6029 160.337 60.8036 160.136 60.9374C159.735 61.3387 159.2 61.6063 158.732 61.7401C158.196 61.8738 157.728 61.9407 157.26 61.9407C157.26 62.8772 157.059 63.613 156.591 64.1481C156.123 64.6832 155.588 64.9508 154.986 65.0846C154.384 65.1515 153.782 65.0846 153.18 64.7501C152.578 64.4157 152.176 63.8806 151.842 63.0779C151.708 62.7434 151.641 62.2752 151.574 61.6732C151.574 61.0043 151.641 60.4022 151.775 59.8002ZM154.919 63.9474C155.186 64.0143 155.454 64.0143 155.655 63.8806C155.855 63.7468 156.056 63.613 156.19 63.4123C156.323 63.2117 156.457 62.9441 156.524 62.6765C156.591 62.409 156.591 62.1414 156.591 61.9407C156.323 61.8738 155.989 61.8069 155.721 61.6732C155.387 61.5394 155.119 61.3387 154.852 61.138C154.584 60.8705 154.384 60.6029 154.183 60.3354C153.982 60.0009 153.915 59.6664 153.848 59.2651C153.581 59.5327 153.447 59.934 153.313 60.4022C153.246 60.8705 153.246 61.4056 153.313 61.8738C153.38 62.3421 153.581 62.8103 153.848 63.2117C154.183 63.5461 154.517 63.8137 154.919 63.9474ZM156.524 61.0043C156.457 60.536 156.39 60.0009 156.19 59.5996C155.989 59.1313 155.721 58.7969 155.454 58.4624C155.32 58.5293 155.253 58.6631 155.253 58.9307C155.253 59.1982 155.253 59.4658 155.387 59.7333C155.454 60.0009 155.655 60.2685 155.788 60.536C155.922 60.8036 156.19 60.9374 156.524 61.0043Z" fill="#131B3A"/>
<path d="M164.016 59.8002C164.15 59.1313 164.484 58.5293 164.952 58.128C165.421 57.7266 165.956 57.4591 166.491 57.3922C167.026 57.3253 167.427 57.3922 167.829 57.6597C168.163 57.9273 168.498 58.1949 168.765 58.5962C169.033 58.9975 169.166 59.3989 169.3 59.8671C169.434 60.3354 169.501 60.7367 169.568 61.138C169.969 61.138 170.437 61.138 170.839 61.0043C171.24 60.8705 171.708 60.536 172.11 60.0678C172.11 59.934 172.177 59.8671 172.31 59.8671C172.377 59.8002 172.511 59.8002 172.578 59.8671C172.645 59.8671 172.779 59.934 172.779 60.0009C172.845 60.0678 172.845 60.2016 172.779 60.3354C172.712 60.6029 172.578 60.8036 172.377 60.9374C171.976 61.3387 171.441 61.6063 170.973 61.7401C170.437 61.8738 169.969 61.9407 169.501 61.9407C169.501 62.8772 169.3 63.613 168.832 64.1481C168.364 64.6832 167.829 64.9508 167.227 65.0846C166.625 65.1515 166.023 65.0846 165.421 64.7501C164.819 64.4157 164.417 63.8806 164.083 63.0779C163.949 62.7434 163.882 62.2752 163.815 61.6732C163.815 61.0043 163.882 60.4022 164.016 59.8002ZM167.16 63.9474C167.427 64.0143 167.695 64.0143 167.896 63.8806C168.096 63.7468 168.297 63.613 168.431 63.4123C168.564 63.2117 168.698 62.9441 168.765 62.6765C168.832 62.409 168.832 62.1414 168.832 61.9407C168.564 61.8738 168.23 61.8069 167.962 61.6732C167.628 61.5394 167.36 61.3387 167.093 61.138C166.825 60.8705 166.625 60.6029 166.424 60.3354C166.223 60.0009 166.156 59.6664 166.09 59.2651C165.822 59.5327 165.688 59.934 165.554 60.4022C165.487 60.8705 165.487 61.4056 165.554 61.8738C165.621 62.3421 165.822 62.8103 166.09 63.2117C166.424 63.5461 166.758 63.8137 167.16 63.9474ZM168.698 61.0043C168.631 60.536 168.564 60.0009 168.364 59.5996C168.163 59.1313 167.896 58.7969 167.628 58.4624C167.494 58.5293 167.427 58.6631 167.427 58.9307C167.427 59.1982 167.427 59.4658 167.561 59.7333C167.628 60.0009 167.829 60.2685 167.962 60.536C168.163 60.8036 168.431 60.9374 168.698 61.0043Z" fill="#131B3A"/>
<path d="M179.2 62.6766C179.2 62.2752 178.999 61.9408 178.665 61.6063C178.264 61.3388 177.929 61.0712 177.461 60.8036C177.06 60.5361 176.658 60.2685 176.324 59.934C175.989 59.5996 175.789 59.2651 175.856 58.7969C175.856 58.4625 176.056 58.1949 176.324 57.9273C176.591 57.7267 176.926 57.526 177.26 57.3922C177.595 57.2584 177.996 57.1915 178.397 57.1915C178.799 57.1915 179.133 57.1246 179.401 57.1915C179.601 57.1915 179.668 57.2584 179.735 57.3253C179.802 57.3922 179.802 57.4591 179.802 57.526C179.802 57.5929 179.735 57.6598 179.668 57.7267C179.601 57.7936 179.468 57.7936 179.401 57.7936C179.066 57.7936 178.732 57.7935 178.33 57.9273C177.929 58.0611 177.728 58.2618 177.662 58.5962C177.595 58.7969 177.728 58.9307 178.063 59.1983C178.33 59.3989 178.665 59.6665 179.066 59.934C179.468 60.2016 179.869 60.5361 180.203 60.8705C180.605 61.205 180.805 61.6063 180.939 62.0746C181.407 61.8739 181.876 61.5394 182.277 61.205C182.678 60.8705 182.946 60.4692 183.013 60.0009C183.013 59.8672 183.08 59.8003 183.214 59.7334C183.28 59.6665 183.414 59.6665 183.481 59.7334C183.548 59.7334 183.682 59.8003 183.682 59.8672C183.749 59.9341 183.749 60.0678 183.682 60.2016C183.548 60.7367 183.28 61.2719 182.745 61.6732C182.21 62.1414 181.675 62.4759 181.006 62.7435C181.006 63.1448 180.939 63.4793 180.805 63.8137C180.672 64.1482 180.471 64.4826 180.203 64.7502C179.936 65.0177 179.668 65.2853 179.334 65.4191C178.999 65.6198 178.665 65.7535 178.33 65.8204C177.862 65.9542 177.394 65.8873 176.993 65.8204C176.591 65.6866 176.257 65.4191 176.056 64.884C175.922 64.5495 175.922 64.2151 176.19 63.9475C176.391 63.6799 176.725 63.4124 177.06 63.2786C177.394 63.0779 177.795 62.9441 178.197 62.8103C178.598 62.8103 178.932 62.7435 179.2 62.6766ZM179.2 63.4124C179.133 63.4124 178.933 63.4793 178.598 63.5461C178.264 63.613 177.929 63.7468 177.595 63.8806C177.26 64.0144 177.06 64.2151 176.926 64.4157C176.792 64.6164 176.859 64.884 177.26 65.0846C177.662 64.9509 178.063 64.7502 178.464 64.4826C178.799 64.2151 179.066 63.8806 179.2 63.4124Z" fill="#131B3A"/>
<path d="M184.752 57.2584C185.086 57.3253 185.421 57.3922 185.555 57.5929C185.755 57.7935 185.889 57.9942 185.956 58.1949C186.023 58.4625 186.09 58.73 186.023 58.9976C185.956 59.2651 185.889 59.5996 185.755 59.8672C185.622 60.1347 185.421 60.4023 185.22 60.6698C185.02 60.9374 184.819 61.1381 184.551 61.3388C184.752 62.0745 185.086 62.6766 185.421 63.2117C185.755 63.7468 186.224 64.0813 186.692 64.0813C187.026 63.8806 187.294 63.5461 187.561 63.1448C187.829 62.7435 188.03 62.409 188.163 62.1414C188.364 61.7401 188.498 61.3388 188.632 61.0712C188.699 60.7367 188.832 60.4692 188.899 60.0678C188.899 59.9341 188.966 59.8672 189.1 59.8003C189.167 59.7334 189.301 59.7334 189.367 59.8003C189.434 59.8003 189.501 59.8672 189.568 59.934C189.635 60.0009 189.635 60.1347 189.568 60.2685C189.434 60.8036 189.234 61.4056 189.033 61.9408C188.832 62.5428 188.498 63.0779 188.163 63.5461C187.896 63.8806 187.695 64.1482 187.361 64.3488C187.093 64.6164 186.759 64.7502 186.424 64.8171C185.755 64.9509 185.153 64.8171 184.618 64.4826C184.083 64.1482 183.682 63.6799 183.414 63.0779C183.08 62.4759 182.879 61.8739 182.745 61.1381C182.612 60.4023 182.612 59.7334 182.745 59.1314C182.879 58.5293 183.08 57.9942 183.414 57.5929C183.749 57.3922 184.217 57.2584 184.752 57.2584ZM184.418 60.603C184.752 60.3354 184.953 60.0009 185.22 59.5996C185.421 59.1983 185.488 58.8638 185.421 58.5293C185.354 58.3287 185.287 58.1949 185.086 57.9942C184.886 57.8604 184.685 57.7936 184.484 57.7936C184.351 58.128 184.284 58.4625 184.284 58.9976C184.284 59.5327 184.284 60.0678 184.418 60.603Z" fill="#131B3A"/>
<path d="M189.568 57.3922C189.568 57.2584 189.635 57.1915 189.702 57.1915C189.769 57.1915 189.903 57.1915 189.969 57.2584C190.371 57.4591 190.772 57.5929 191.174 57.6598C191.575 57.7267 191.976 57.7935 192.311 57.8604C192.645 57.9273 192.98 58.0611 193.247 58.1949C193.515 58.3287 193.648 58.5962 193.715 58.9976C193.782 59.3989 193.849 59.8003 193.849 60.2685C193.849 60.7367 193.849 61.205 193.916 61.6063C193.916 62.0077 193.983 62.409 194.05 62.7435C194.117 63.0779 194.317 63.2117 194.518 63.2786C194.719 63.2786 194.919 63.2117 195.12 63.011C195.321 62.8103 195.521 62.5428 195.655 62.2752C195.856 61.9408 195.99 61.6732 196.123 61.2719C196.257 60.9374 196.324 60.603 196.391 60.2685C196.391 60.1347 196.458 60.0678 196.592 60.0009C196.659 59.934 196.792 59.934 196.859 60.0009C196.926 60.0009 196.993 60.0678 197.06 60.1347C197.127 60.2016 197.127 60.3354 197.06 60.4692C196.859 60.9374 196.725 61.4056 196.525 61.807C196.324 62.2752 196.123 62.6097 195.923 62.9441C195.655 63.2786 195.388 63.5461 194.986 63.7468C194.652 63.9475 194.184 64.0144 193.715 64.0144C192.913 64.0144 192.444 63.5461 192.177 62.6766C192.11 62.409 192.043 62.0745 191.976 61.807C191.976 61.4725 191.909 61.205 191.909 60.8705C191.909 60.603 191.909 60.3354 191.909 60.0678V59.5327C191.909 59.2651 191.909 59.1314 191.842 58.9976C191.776 58.8638 191.709 58.7969 191.575 58.7969C191.441 58.73 191.307 58.73 191.107 58.73C190.906 58.73 190.638 58.6631 190.371 58.5293C190.304 58.6631 190.237 58.8638 190.103 59.1314C189.969 59.3989 189.903 59.6665 189.769 60.0009C189.635 60.2685 189.568 60.5361 189.434 60.8036C189.367 61.0712 189.234 61.2719 189.167 61.4056C188.832 62.0745 188.632 62.3421 188.431 62.3421C188.23 62.3421 188.23 62.0077 188.364 61.3387C188.565 60.6698 188.699 59.934 188.899 59.2651C189.234 58.5293 189.367 57.9273 189.568 57.3922Z" fill="#131B3A"/>
<path d="M192.913 55.4523C192.712 55.653 192.511 55.653 192.378 55.4523C192.244 55.2517 192.244 55.1179 192.378 54.8503C192.511 54.7165 192.779 54.5828 193.113 54.449C193.448 54.3152 193.782 54.1814 194.184 54.1145C194.585 54.0476 194.986 53.9139 195.388 53.847C195.789 53.7801 196.123 53.7132 196.458 53.7132C196.458 53.245 196.391 52.8436 196.324 52.3754C196.257 51.974 196.19 51.5058 196.057 51.0376C195.99 50.8369 196.057 50.6362 196.19 50.5693C196.324 50.5024 196.525 50.4355 196.725 50.3687C196.926 50.3687 197.127 50.3687 197.327 50.4355C197.528 50.5024 197.662 50.6362 197.729 50.77C197.929 51.2382 198.063 51.7065 198.063 52.1078C198.063 52.576 198.13 53.0443 198.13 53.5125C199.133 53.4456 200.07 53.3787 201.073 53.3787H204.016C205.02 53.3787 205.956 53.3787 206.96 53.3118C207.963 53.3118 208.9 53.1781 209.903 52.9774C210.17 52.9774 210.304 53.0443 210.371 53.2449C210.438 53.4456 210.371 53.6463 210.104 53.7132C209.234 53.9139 208.297 54.0476 207.294 54.1145C206.291 54.1814 205.287 54.2483 204.217 54.3152C203.147 54.3821 202.144 54.449 201.073 54.449C200.07 54.5159 199.067 54.5159 198.13 54.5828C198.197 55.5192 198.197 56.5895 198.197 57.7266C198.197 58.8638 198.264 60.0009 198.264 61.0043C198.331 62.0076 198.398 62.8772 198.531 63.613C198.665 64.2819 198.933 64.6832 199.267 64.6832C199.468 64.6832 199.669 64.5495 199.936 64.215C200.204 63.8806 200.471 63.4792 200.739 63.011C201.006 62.5427 201.274 62.0076 201.542 61.4725C201.809 60.9374 201.943 60.4691 202.077 60.0009C202.077 59.8671 202.144 59.8002 202.277 59.7333C202.344 59.6665 202.478 59.6665 202.545 59.7333C202.612 59.7333 202.679 59.8002 202.746 59.934C202.812 60.0009 202.812 60.1347 202.812 60.2685C202.746 60.6029 202.612 61.0043 202.344 61.6063C202.077 62.2083 201.809 62.8103 201.408 63.4123C201.006 64.0143 200.605 64.5495 200.204 65.0177C199.735 65.4859 199.267 65.6866 198.799 65.6866C198.398 65.6866 197.996 65.5528 197.729 65.2853C197.461 65.0177 197.261 64.6832 197.127 64.3488C196.993 63.9475 196.859 63.5461 196.792 63.1448C196.725 62.7434 196.659 62.3421 196.659 62.0745C196.525 60.9374 196.458 59.7333 196.458 58.5962C196.458 57.3922 196.458 56.1212 196.458 54.7834C195.655 54.8503 194.986 54.9172 194.384 55.051C193.715 55.1179 193.247 55.2517 192.913 55.4523Z" fill="#131B3A"/>
<path d="M207.896 64.2819C208.097 64.5495 208.164 64.6164 208.231 64.5495C208.297 64.4826 208.364 64.3488 208.498 64.215C208.632 63.9475 208.833 63.6799 208.966 63.3454C209.1 63.011 209.301 62.6096 209.435 62.2083C209.568 61.807 209.702 61.4056 209.836 61.0712C209.97 60.6698 210.037 60.3354 210.104 60.0678C210.104 59.934 210.17 59.8671 210.304 59.8002C210.371 59.7334 210.505 59.7334 210.572 59.8002C210.639 59.8002 210.772 59.8671 210.839 59.934C210.906 60.0009 210.906 60.1347 210.839 60.2685C210.772 60.6698 210.639 61.0712 210.438 61.4725C210.304 61.9407 210.104 62.3421 209.903 62.8103C209.702 63.2117 209.502 63.613 209.368 64.0143C209.167 64.3488 209.033 64.6833 208.9 64.8839C208.766 65.0846 208.632 65.2184 208.498 65.3522C208.364 65.4859 208.164 65.6197 207.963 65.6197C207.762 65.6866 207.562 65.6866 207.294 65.6197C207.093 65.5528 206.826 65.3522 206.625 65.0846C206.224 64.6164 205.823 63.9475 205.555 63.1448C205.221 62.3421 205.02 61.5394 204.819 60.7367C204.685 60.9374 204.552 61.2049 204.351 61.4056C204.15 61.6732 203.883 61.8739 203.682 62.0745C203.414 62.2752 203.147 62.409 202.812 62.4759C202.478 62.5428 202.21 62.4759 201.943 62.409C201.809 62.3421 201.675 62.2083 201.608 62.0076C201.542 61.8738 201.542 61.6732 201.542 61.4725C201.542 61.2718 201.542 61.0712 201.608 60.9374C201.675 60.7367 201.675 60.6029 201.742 60.4691C201.809 60.2685 201.943 60.0009 202.144 59.6665C202.344 59.332 202.545 59.0644 202.746 58.7969C203.013 58.5293 203.214 58.2618 203.548 58.128C203.816 57.9273 204.15 57.9273 204.485 57.9942C204.485 57.7935 204.485 57.5929 204.485 57.3922C204.485 57.1915 204.485 56.9908 204.552 56.7902C204.619 56.6564 204.752 56.5895 204.886 56.5226C205.02 56.4557 205.154 56.4557 205.354 56.4557C205.555 56.4557 205.689 56.4557 205.823 56.5226C205.956 56.5895 206.09 56.5895 206.157 56.6564C206.291 56.9239 206.358 57.3253 206.425 57.7935C206.491 58.3286 206.491 58.8638 206.358 59.3989C206.491 60.3354 206.692 61.2049 206.96 62.0745C207.16 63.011 207.495 63.7468 207.896 64.2819ZM203.281 55.7868C203.214 55.9206 203.147 55.9875 203.013 55.9875C202.879 55.9875 202.746 55.9875 202.679 55.9875C202.545 55.9875 202.478 55.8537 202.344 55.7868C202.277 55.653 202.21 55.5861 202.277 55.4523C202.277 55.3186 202.344 55.1179 202.411 54.9172C202.478 54.7165 202.612 54.5159 202.679 54.3152C202.746 54.1145 202.946 53.9808 203.08 53.847C203.214 53.7132 203.414 53.6463 203.682 53.7132C203.883 53.7132 204.083 53.847 204.217 53.9808C204.351 54.1145 204.485 54.3152 204.619 54.449C204.752 54.5828 204.886 54.7834 205.02 54.9172C205.154 55.051 205.287 55.1848 205.421 55.1848L205.622 54.6497C205.756 54.449 205.889 54.3821 206.09 54.3821C206.291 54.3821 206.358 54.5159 206.425 54.7834C206.291 55.1179 206.224 55.3855 206.157 55.5192C206.09 55.653 205.956 55.7868 205.889 55.7868C205.622 55.9206 205.421 55.9206 205.221 55.8537C205.02 55.7868 204.819 55.653 204.619 55.5192C204.418 55.3855 204.284 55.2517 204.15 55.1179C204.017 54.9841 203.883 54.9172 203.749 54.8503C203.615 54.9172 203.548 55.051 203.481 55.2517C203.348 55.3855 203.281 55.5861 203.281 55.7868ZM203.281 61.4725C203.414 61.4056 203.615 61.2718 203.749 61.0712C203.883 60.8705 204.083 60.6698 204.15 60.4691C204.284 60.2685 204.351 60.0009 204.418 59.8002C204.485 59.5327 204.485 59.332 204.418 59.1313C204.284 59.2651 204.15 59.3989 204.016 59.5996C203.883 59.8002 203.749 60.0009 203.615 60.2016C203.481 60.4023 203.414 60.6698 203.348 60.8705C203.281 61.0712 203.214 61.2718 203.281 61.4725Z" fill="#131B3A"/>
<path d="M210.17 59.8002C210.304 59.1313 210.639 58.5293 211.107 58.128C211.575 57.7266 212.11 57.4591 212.645 57.3922C213.181 57.3253 213.582 57.3922 213.983 57.6597C214.318 57.9273 214.652 58.1949 214.92 58.5962C215.187 58.9975 215.321 59.3989 215.455 59.8671C215.589 60.3354 215.655 60.7367 215.722 61.138C216.124 61.138 216.592 61.138 216.993 61.0043C217.395 60.8705 217.863 60.536 218.264 60.0678C218.264 59.934 218.331 59.8671 218.465 59.8671C218.532 59.8002 218.666 59.8002 218.732 59.8671C218.799 59.8671 218.933 59.934 218.933 60.0009C219 60.0678 219 60.2016 218.933 60.3354C218.866 60.6029 218.732 60.8036 218.532 60.9374C218.13 61.3387 217.662 61.6063 217.127 61.7401C216.592 61.8738 216.124 61.9407 215.655 61.9407C215.655 62.8772 215.455 63.613 214.987 64.1481C214.518 64.6832 213.983 64.9508 213.381 65.0846C212.779 65.1515 212.177 65.0846 211.575 64.7501C210.973 64.4157 210.572 63.8806 210.237 63.0779C210.104 62.7434 210.037 62.2752 209.97 61.6732C209.97 61.0043 210.037 60.4022 210.17 59.8002ZM213.314 63.9474C213.582 64.0143 213.849 64.0143 214.05 63.8806C214.251 63.7468 214.451 63.613 214.585 63.4123C214.719 63.2117 214.853 62.9441 214.92 62.6765C214.987 62.409 214.987 62.1414 214.987 61.9407C214.719 61.8738 214.385 61.8069 214.117 61.6732C213.783 61.5394 213.515 61.3387 213.247 61.138C212.98 60.8705 212.779 60.6029 212.578 60.3354C212.378 60.0009 212.311 59.6664 212.244 59.2651C211.976 59.5327 211.843 59.934 211.709 60.4022C211.642 60.8705 211.642 61.4056 211.709 61.8738C211.776 62.3421 211.976 62.8103 212.244 63.2117C212.578 63.5461 212.913 63.8137 213.314 63.9474ZM214.853 61.0043C214.786 60.536 214.719 60.0009 214.518 59.5996C214.318 59.1313 214.05 58.7969 213.783 58.4624C213.649 58.5293 213.582 58.6631 213.582 58.9307C213.582 59.1982 213.582 59.4658 213.716 59.7333C213.783 60.0009 213.983 60.2685 214.117 60.536C214.318 60.8036 214.585 60.9374 214.853 61.0043Z" fill="#131B3A"/>
<path d="M38.7966 17.726L38.7297 17.3247L38.0608 17.2578H37.2581L34.7831 17.5922H33.8467L29.1643 17.3247L25.4184 17.4585H22.6759L21.7395 17.5254L20.4016 17.6591V18.5287L20.4685 19.3314L20.6023 21.2043V22.6759L20.6692 23.9469L22.2077 24.2144L23.0104 24.2813H24.2813L25.084 24.2144L26.4887 24.0137L27.4252 23.9469H29.0305L30.3684 24.2144L31.171 25.4184V26.8232L31.2379 28.4285V29.4988V30.0339V30.9035L30.7028 31.84L29.6326 32.5758L28.6961 33.044L27.6258 33.4453L23.4117 34.3818L22.2746 34.5156H21.3381L20.2679 34.4487L19.0638 34.3149L17.124 33.8467L16.1206 33.4453L14.7828 32.6426L13.9133 31.9737L12.7092 30.9035L12.0403 30.1008L11.2376 28.8968L10.8363 27.9603L10.1674 26.4218L9.89982 25.4184L9.36469 22.9435L9.23091 21.405V20.4016L9.36469 19.1976L9.89982 16.4551L10.1005 15.5186L10.4349 14.4484L10.9032 13.3781L11.4383 12.4417L11.9734 11.7059L12.7092 10.7694L13.445 9.96671L14.2477 9.43158L15.2511 8.76268L17.2578 7.82621L18.3949 7.55864L21.3381 7.35797L24.3482 7.55864L25.3516 7.75932L26.5556 8.02688L27.4921 8.42822L28.6292 8.89646L30.2346 9.83293L31.1042 10.4349L32.7095 9.23091L33.7129 8.29444L35.7865 6.22083L36.3885 5.35125L36.3216 5.28436L35.5858 4.74924L35.3852 4.54856L33.1778 3.01008L32.3751 2.60874L30.4352 1.60538L28.3616 0.936469L27.6258 0.735797L25.5522 0.334453L24.2813 0.133781L22.2746 0L20.1341 0.133781L19.3314 0.267563L18.5287 0.468235L16.7896 0.668907L14.7159 1.00336L12.9099 1.47159L12.1072 1.87294L8.76268 3.87966L7.35797 4.88302L5.28436 6.75596L4.08033 8.09377L2.8763 9.69915L2.54184 10.3681L1.80605 12.241L0.668907 15.8531L0.401344 16.7896L0.200672 18.1274L0 20.6692V21.405L0.0668906 22.2077L0.200672 23.0773L0.401344 24.2813L0.535125 25.2847L0.869578 27.0907L1.4047 28.8299L2.1405 30.5021L3.5452 33.1109L4.08033 33.8467L4.61546 34.6494L5.15058 35.2514L6.55528 36.5892L7.22419 37.1243L7.95999 37.6594L9.2978 38.6628L11.037 39.5993L12.9768 40.2682L16.6558 41.2715L17.5254 41.4722L18.3949 41.606L21.3381 41.8067L22.1408 41.7398L24.3482 41.4722L25.2178 41.2715L29.1643 40.6695L29.967 40.4688L32.0406 39.7999L32.7764 39.4655L33.8467 38.9304L35.5858 37.8601L37.4588 36.0541L37.927 35.3852L38.529 34.3818V34.1142V30.7028L38.6628 28.2279V22.7428L38.8635 18.9969L38.7966 17.726Z" fill="#131B3A"/>
<path d="M72.9108 34.9838L72.3757 34.3149L69.7 30.7028L67.4927 27.4921L66.5562 25.686L68.6298 24.9502L69.2318 24.8164L71.573 23.4786L72.0412 23.0773L72.9108 22.2077L73.9142 20.9368L74.3824 20.201L74.8506 19.4652L75.252 18.6625L75.5195 17.9267L75.7202 17.124L75.9209 16.1876L76.0547 15.2511L76.1216 14.3815V13.5788L75.9209 11.4383L75.7871 10.6356L75.5195 9.83294L74.7837 8.29446L73.6466 6.5553L72.8439 5.41816L72.2419 5.01682L71.7737 4.54858L71.2385 4.08035L69.5663 2.9432L68.8305 2.60875L66.2217 1.67228L65.0177 1.33783L64.2819 1.20405L63.4123 1.13716H61.2718L57.3253 0.869594H56.4557L52.5092 1.13716L42.9438 0.802704L41.7398 0.936485L41.606 1.47161L41.5391 2.20741L41.6729 4.01346V5.01682L41.7398 9.09715L41.606 12.241V13.1106L41.4722 16.3882V17.2578L41.6729 20.3348V21.3381L41.4722 24.6158V25.4854L41.606 29.4319L41.8066 32.5758V33.646L41.4053 39.1979L41.4722 40.4689L44.0809 40.6695H44.9505L47.6261 40.4689L50.5024 40.6695H51.0376L51.1044 39.8668V38.9973L50.9707 36.723L50.7031 32.442L50.8369 28.8968L51.1044 27.6259L52.3085 26.7563L53.5794 26.6894L56.5226 26.8901L57.3253 27.2914L57.9942 28.0272L60.4691 31.3717L62.0745 33.9805L64.9508 37.8601L66.7569 40.402L67.0244 40.6026H67.4927L71.0379 40.4689L74.2486 40.5358H77.2587L74.9844 37.8601L72.9108 34.9838ZM65.7535 18.4618L65.0177 19.3314L63.8806 19.9334L62.8772 20.3348L61.4056 20.6023L57.526 20.803H56.5226H56.3888L53.2449 20.5354L52.2416 20.3348L51.2382 19.9334L50.8369 18.6625L50.77 17.9267L50.9038 14.716L50.8369 13.7795L50.5693 11.8397L50.5024 10.435L50.6362 9.23093L51.5058 8.36135L52.3754 8.0269L53.3118 7.96L56.3219 7.75933H57.3253L60.4023 7.82622L61.4725 7.96L63.011 8.36135L64.0143 8.76269L65.0177 9.63227L65.6866 10.5687L66.1548 11.639L66.4224 12.7092L66.5562 13.7126L66.6231 14.8497L66.69 16.0538L66.3555 17.2578L65.7535 18.4618Z" fill="#131B3A"/>
<path d="M109.232 33.1109H108.43L104.349 33.3784H103.346L99.1989 33.1109L96.055 33.3784H95.1185L90.6369 33.1109L89.9011 32.3751L89.4997 31.5055L89.4328 30.569V29.2981L89.4997 28.2947L89.7004 25.686L90.1686 24.6826L91.1051 24.1475L93.2456 23.9468L95.6537 24.1475H96.5232L100.202 24.2813L104.951 23.9468L105.955 24.0137L108.564 24.3482L109.567 24.2813L109.634 24.0137L109.768 22.4084L109.634 21.0705V19.1307L109.567 18.2611L109.433 17.124L107.761 16.9902L101.339 17.3247H95.7206L93.8476 17.4585L91.5733 17.3247L90.5031 16.9902L89.8342 16.1875L89.6335 15.2511L89.4997 13.5788V12.5085L89.6335 10.9032L89.8342 9.49846L90.7706 8.62888L92.5098 8.29443H93.4463L96.055 8.4951L99.0651 8.62888H99.9347L103.881 8.4951L109.366 8.62888L110.704 8.56199L110.771 8.29443L110.838 7.55863L110.704 5.28435V4.2141L110.838 2.74251V1.3378L110.771 0.936459H110.637H109.366L106.356 1.13713H106.289L97.4597 1.07024L94.0483 1.27091H92.978L89.4328 1.07024H88.5632L84.9512 1.13713L81.2722 0.869568L80.8039 0.936459L80.6033 4.34788L80.6702 5.15057L80.5364 6.95662V8.29443L80.8039 13.2443L80.6033 16.3882V21.3381L80.4695 24.4151L80.737 29.365L80.6702 32.5757V33.5122L80.4695 36.5892V37.4588L80.4026 38.3283L80.6033 40.6695H80.737L82.61 40.8033L87.5599 40.5357H88.6301L91.6402 40.7364H95.6537L100.537 40.4019L103.681 40.6026H104.55L111.44 40.4019L111.774 36.4554L111.574 33.3784L109.232 33.1109Z" fill="#131B3A"/>
<path d="M146.089 8.562H146.892L147.026 7.75931L147.093 6.95662L147.026 5.21747L147.159 2.47495L147.093 1.13714L146.357 1.00336H145.487L143.681 1.07025L139.266 1.13714H133.915H130.571L126.223 1.4047H125.152L121.808 1.13714H120.938L117.527 1.33781H116.457L114.383 1.13714L113.179 1.20403L113.112 1.47159L113.045 2.20739L113.246 4.41478V5.28436L113.112 7.02352L113.179 8.29444L113.714 8.36133H114.45L116.791 8.22755L119.467 8.42822H120.47L122.209 8.29444H123.346L124.751 8.62889L125.286 10.0336V11.1038L125.42 14.4484V18.9969L125.688 23.3448V24.3482V27.8265V28.6961L125.621 32.2413V36.5892L125.353 40.5357L127.895 40.6695H128.765L131.373 40.5357L132.443 40.6026L133.915 40.7364L134.785 40.8033L134.718 40.2013L134.383 36.6561L134.517 33.1109V27.7596L134.383 24.3482L134.718 18.9969L134.517 15.5855V14.4484L134.852 9.83292L135.52 8.82956L136.791 8.42822L137.393 8.36133H138.397L139.801 8.49511H140.671L143.347 8.29444L144.35 8.36133L146.089 8.562Z" fill="#131B3A"/>
<path d="M184.217 37.8601L182.678 34.1811L179.066 27.0907L178.665 26.2211L177.126 22.4753L173.916 15.1842L172.845 12.1072L170.906 7.75932L169.434 4.94991L169.033 4.01344L168.029 1.33782L167.427 1.20404L164.819 1.13715H160.27L157.728 1.27093L157.193 1.40471L155.721 4.88302L154.183 8.56201L152.511 12.1072L150.838 15.6524L148.43 21.2043L146.825 24.482L146.491 25.2847L144.818 29.2981L142.945 33.4453L140.337 39.3986L139.935 40.6026H140.002L144.016 40.3351H145.019L149.099 40.5357L149.367 40.402L149.634 40.0675L149.902 39.3317L151.307 35.2514L151.842 34.1811L152.845 33.5122L154.116 33.3115H156.725L157.661 33.2447H158.531L166.424 33.4453H167.294L171.775 33.7798L172.845 33.9805L173.715 35.3183L175.722 40.6695H175.789L179.133 40.4688H181.876L184.819 40.6695L185.287 40.6026V40.5357L184.217 37.8601ZM168.163 25.1509L167.227 26.0874L165.889 26.4887L162.879 26.288H159.2L158.063 26.1542L156.658 25.4853L156.257 23.88L156.591 22.4753L160.136 13.445L161.206 12.3748L162.544 12.0403L163.882 12.3748L165.019 13.1775L165.487 14.3146L166.959 18.7294L168.631 23.88L168.163 25.1509Z" fill="#131B3A"/>
<path d="M218.866 27.1576L218.666 26.0205L218.465 25.2847L218.13 24.5489L217.06 22.9435L215.99 21.7395L214.451 20.4017L212.98 19.599L212.244 19.1976L211.174 18.7294L209.635 18.1943L208.833 17.9267L207.428 17.6591L205.622 17.0571L203.682 16.5889L202.812 16.4551L200.94 16.3882L199.267 16.1875L198.13 15.92L197.729 15.7193L196.792 15.2511L195.856 14.3815L195.187 13.3112L194.852 12.1072L195.053 10.7025L195.722 9.3647L196.257 8.82957L197.194 8.16066L197.729 7.8931L198.799 7.55865L200.003 7.35798L200.94 7.29108H202.612L205.287 7.55865L208.231 8.22755L209.635 8.69579L210.706 9.16402L211.709 9.76604L212.043 9.49848L212.579 8.76268L215.187 5.28437L215.856 4.08033L215.388 3.74588L214.652 3.34454L213.515 2.74252L212.779 2.40807L211.843 2.00672L211.04 1.67227L209.167 1.13715L208.231 0.869582L204.15 0.200676L202.478 0.0668945H201.675L200.873 0.133785L200.003 0.200676L198.799 0.468238L196.993 0.66891L194.852 1.07025L194.05 1.33782L192.444 1.93983L191.441 2.54185L190.638 2.94319L189.301 3.94655L188.498 4.74924L187.963 5.28437L187.628 5.81949L187.227 6.55529L186.692 7.69243L186.224 9.16402L186.09 9.89982L185.956 12.0403L186.023 13.7795L186.224 15.0504L186.357 15.7193L186.759 16.9233L187.026 17.5922L187.829 18.9301L188.699 19.599L189.367 20.0672L190.17 20.5354L190.906 21.0706L193.582 22.3415L195.655 23.0773L196.525 23.3448L198.13 23.6124L203.749 24.1475L204.752 24.3482L206.023 24.6827L207.495 25.2178L208.632 26.1543L209.1 26.6894L209.635 27.6927L209.836 28.5623L209.903 29.9001L209.301 31.3048L208.833 31.9068L208.03 32.7095L207.027 33.2447L206.023 33.646L205.354 33.8467L204.418 33.9136L200.605 34.1811L198.063 34.0474L196.993 33.8467L194.986 33.1778L191.776 31.5724L189.568 30.0339L188.699 30.9704L187.695 32.5758L187.026 33.3784L185.421 34.85L184.886 35.3852L185.421 35.9203L187.762 37.7932L190.237 39.4655L192.645 40.6026L194.585 41.2715L196.324 41.5391L198.331 41.6729H199.602L205.689 41.2715L208.766 40.8033L211.709 39.7999L213.181 38.9973L214.987 37.7932L216.257 36.6561L216.726 36.0541L217.328 35.1176L217.729 34.4487L218.197 33.3784L218.465 32.6426L218.866 30.6359L219 29.6995V28.8299V27.9603L218.866 27.1576Z" fill="#131B3A"/>
</svg>
