<svg width="254" height="370" viewBox="0 0 254 370" fill="none" xmlns="http://www.w3.org/2000/svg">
<path d="M112.256 144.235C70.9986 192.845 64.8293 264.216 120.161 303.759C166.624 336.744 230.824 339.638 282.493 319.577C336.089 298.937 375.997 219.079 362.502 159.86C351.512 111.636 305.82 85.5952 262.635 84.4378C206.532 82.8946 150.237 102.377 110.328 146.55" fill="#131B3A"/>
<path d="M342.066 130.153C332.812 104.113 316.425 97.7471 290.976 90.61C258.587 81.351 232.753 69.5844 198.05 72.6707C139.055 77.8789 73.3127 109.899 66.7578 174.905C60.3956 236.631 98.7614 287.17 160.262 294.307C161.419 294.5 246.055 297.586 227.74 279.261C220.607 272.124 203.834 282.54 198.435 286.398C172.794 304.338 159.877 336.937 150.044 365.485C152.358 365.1 154.479 364.907 156.792 364.521C135.392 332.5 139.634 282.926 101.075 263.83C75.2407 251.292 27.0424 241.454 1.78654 258.814C3.32889 260.743 4.67844 262.672 6.22078 264.601C34.5614 237.017 61.938 196.702 67.9145 156.58C74.4695 111.828 34.5614 74.021 25.3073 32.7414C24.3433 28.6907 17.7884 29.6551 18.1739 33.7059C21.6442 92.5389 137.127 82.7013 169.516 58.3965C178.192 52.0309 206.918 11.1372 215.016 12.6804C222.149 14.0306 233.909 52.6096 243.549 60.5183C270.54 82.3155 304.086 67.0768 334.354 65.7265C338.981 65.5336 338.981 58.2036 334.354 58.3965C317.774 59.1681 301.772 64.5691 284.999 64.9549C244.898 65.9194 233.331 35.442 220.414 2.64982C219.45 0.14219 216.365 -1.01518 214.244 1.10667C183.59 31.5841 164.504 64.762 117.27 67.8483C90.2785 69.7773 27.6208 71.5133 25.3073 33.7059C22.9938 34.0917 20.4875 34.2846 18.1739 34.6704C26.8496 73.6352 62.3235 107.392 61.3596 148.286C60.3956 188.408 28.0064 233.159 1.01537 259.393C-1.87652 262.286 1.97934 267.495 5.44961 265.18C28.5848 249.363 79.0965 258.429 101.846 272.51C133.464 291.799 130.765 339.252 150.044 368.186C151.779 370.886 155.635 370.308 156.792 367.221C165.275 342.531 176.65 313.789 197.279 296.236C203.448 291.028 209.232 288.134 216.365 285.241C223.113 282.54 221.956 285.048 215.594 286.013C155.057 295.464 89.8929 278.49 75.819 210.976C60.974 139.798 115.342 95.0465 179.349 82.7013C206.533 77.4931 233.331 78.4576 259.551 87.5236C287.313 97.1684 324.136 101.219 335.126 132.275C336.475 136.519 343.608 134.59 342.066 130.153Z" fill="#131B3A"/>
</svg>
