<svg width="142" height="180" viewBox="0 0 142 180" fill="none" xmlns="http://www.w3.org/2000/svg">
<path d="M71.8937 60.1913C52.137 39.6273 20.6599 33.6431 0.55362 56.4686C-16.232 75.6457 -20.4331 104.081 -13.8517 127.981C-7.10037 152.766 26.622 174.148 53.5843 170.831C75.5405 168.129 89.2013 148.98 91.6762 129.817C94.909 104.924 88.7951 78.9906 70.9513 59.2284" fill="#EFD046"/>
<path d="M67.7297 163.086C79.7367 160.15 83.3128 153.147 87.6435 142.148C93.2333 128.156 99.6414 117.195 99.8431 101.614C100.203 75.1273 88.939 44.4215 60.3118 38.5546C33.135 32.9223 8.9063 47.6998 2.93942 74.7411C2.80109 75.2471 -2.41334 112.766 6.57173 105.449C10.0712 102.598 6.1976 94.6625 4.726 92.0854C-2.09248 79.8619 -16.0115 72.6348 -28.2681 66.9642C-28.2014 68.0111 -28.2118 68.9635 -28.1452 70.0104C-12.9262 61.9416 8.93961 66.0787 19.1867 49.7885C25.9381 38.8624 32.5029 17.8627 25.9244 5.83704C24.9961 6.43577 24.0766 6.94872 23.1483 7.54745C34.1358 21.4097 50.8318 35.4207 68.4131 39.901C88.0282 44.8487 106.662 28.8071 125.45 26.5629C127.296 26.3178 127.164 23.3574 125.344 23.3451C99.0086 22.2191 98.1448 74.0506 107.489 89.5654C109.928 93.7146 126.82 108.352 125.766 111.885C124.842 114.998 107.142 118.48 103.185 122.41C92.2617 133.431 97.5198 149.049 96.7469 162.579C96.6227 164.646 99.8842 164.979 100.008 162.911C100.418 155.499 98.7406 148.133 99.3301 140.653C100.721 122.766 114.807 119.002 129.984 114.743C131.144 114.427 131.799 113.107 130.951 112.067C118.781 97.0446 104.885 87.0461 105.655 65.8888C106.022 53.7915 108.093 25.8327 125.021 26.5191C124.954 25.4722 124.982 24.3483 124.915 23.3013C107.184 25.3933 90.5535 39.6456 72.4013 37.3607C54.5924 35.1109 36.1499 18.6681 25.7019 5.46764C24.5457 4.04956 22.0533 5.52888 22.9258 7.17805C28.9139 18.1901 22.5874 40.2542 15.2894 49.7377C5.27143 62.9309 -15.7202 59.5763 -29.4697 66.8416C-30.7501 67.4911 -30.6676 69.2331 -29.3468 69.8879C-18.7456 74.7829 -6.47314 81.1486 0.401166 91.1242C2.43857 94.1057 3.46354 96.8105 4.42725 100.116C5.32263 103.241 4.25933 102.612 4.11892 99.7377C2.66068 72.3724 13.1711 44.1476 43.8503 40.9494C76.1953 37.5744 93.6404 63.7966 96.2286 92.8374C97.3123 105.169 95.667 117.05 90.443 128.305C84.8915 140.22 81.4179 156.421 67.1005 159.901C65.151 160.309 65.6856 163.571 67.7297 163.086Z" fill="#EFD046"/>
</svg>
